<svg width="87" height="87" viewBox="0 0 87 87" fill="none" xmlns="http://www.w3.org/2000/svg">
<circle cx="43.5" cy="43.5" r="43.5" fill="#B7EAFC"/>
<g clip-path="url(#clip0_151_414)">
<path d="M33.833 23H36.0889V23.0205L37.1963 23.1846L37.9551 23.3486L38.5703 23.5127L39.3086 23.7588L39.4111 23.7998L39.5957 23.7793L40.252 23.5742L40.8877 23.4102L41.4414 23.2871L42.1387 23.1641L42.7334 23.082L43.4102 23H45.9121V23.0205L46.876 23.1436L47.6348 23.2666L48.3936 23.4307L49.0293 23.5947L49.9316 23.8818L50.6289 24.1484L51.2031 24.3945L51.7979 24.6816L52.3516 24.9688L52.7822 25.2148L53.2129 25.4814L53.582 25.7275L53.9102 25.9531L54.1562 26.1377L54.5869 26.4658L54.8535 26.6914L55.0791 26.876L55.3662 27.1221L55.5508 27.3066L55.7148 27.4502L56.4121 28.1475L56.5557 28.3115L56.7402 28.5166L56.9248 28.7422L57.1709 29.0293L57.376 29.2959L57.6836 29.7061L57.9707 30.1162L58.1963 30.4648L58.4219 30.834L58.627 31.1826L58.75 31.3877L58.9141 31.7158L59.1191 32.1055L59.4062 32.7412L59.6318 33.2949L59.8369 33.8691L60.0625 34.5664L60.2676 35.3457L60.4316 36.1455L60.5342 36.7607L60.6367 37.6221L60.6777 38.1758L60.7393 39.8779L60.8213 40.6162L60.9443 41.293L61.1084 41.9492L61.3545 42.6875L61.5186 43.0977L61.7441 43.6104L62.1133 44.4102L62.4414 45.1279L62.8105 45.9277L63.2002 46.7686L63.5078 47.4453L63.877 48.2451L63.959 48.4707V48.5322L64 48.5527V49.291H63.959L63.918 49.4756L63.7539 49.8037L63.5488 50.0703L63.3848 50.2139L63.0771 50.3984L62.2363 50.7676L61.0469 51.2803L60.4727 51.5264L60.2471 51.6289H60.2061V55.1357L60.1855 55.6689L60.124 56.1611L60.0215 56.6328L59.8164 57.248L59.6113 57.6992L59.3857 58.0889L59.2217 58.335L58.9551 58.6836L58.7295 58.9297L58.5859 59.0938L58.4219 59.2373L58.2168 59.4219L57.8477 59.6885L57.4785 59.9141L57.0068 60.1602L56.5352 60.3447L56.0225 60.4883L55.5713 60.5703L55.2227 60.6113L53.9102 60.6318H52.4541L52.4336 64.3232L52.3516 64.5693L52.208 64.7539L52.0645 64.877L51.8184 65H32.7461L32.4795 64.8564L32.2744 64.6514L32.1514 64.3848L32.1309 64.2822L32.1104 61.0215V59.9141L32.1924 59.668L32.3564 59.4424L32.5615 59.2988L32.7256 59.2373L32.8486 59.2168H33.0332L33.1973 59.2578L33.4434 59.3809L33.6074 59.5449L33.71 59.7295L33.7715 59.9551L33.792 60.4062V63.3389H50.7725V59.75L50.8135 59.5244L50.9365 59.2988L51.0596 59.1553L51.2852 59.0117L51.4287 58.9707L51.6953 58.9502L55.1611 58.9297L55.6533 58.8477L56.002 58.7451L56.2686 58.6426L56.5967 58.4785L56.8838 58.3145L57.1504 58.1094L57.3555 57.9248L57.499 57.8018L57.6426 57.6377L57.8477 57.3711L58.0527 57.043L58.2578 56.6123L58.3809 56.2432L58.4629 55.8945L58.5039 55.5459L58.5244 51.0137L58.5859 50.7676L58.7295 50.542L58.8936 50.3984L59.2217 50.2344L60.3086 49.7627L62.1543 48.9629L62.3389 48.9014L62.1748 48.5732L61.8672 47.8965L61.4775 47.0557L60.7393 45.4561L60.4111 44.7383L60.0625 43.9795L59.7959 43.3232L59.6318 42.8516L59.4678 42.3184L59.3037 41.6621L59.1602 40.8623L59.0781 40.165L59.0371 39.4883L58.9961 38.2578L58.9346 37.5195L58.832 36.7607L58.709 36.084L58.5244 35.3252L58.3604 34.7715L58.1143 34.0332L57.8682 33.418L57.6016 32.8438L57.2939 32.2285L57.0068 31.7363L56.7607 31.3262L56.4121 30.8135L56.1455 30.4443L55.9199 30.1572L55.6533 29.8291L55.4688 29.624L55.2842 29.3984L55.1611 29.2754V29.2344H55.1201L54.9766 29.0703L54.5049 28.5986L54.3408 28.4551L54.0742 28.209L53.8486 28.0244L53.582 27.7988L53.2539 27.5527L52.9463 27.3271L52.5566 27.0605L52.2695 26.876L51.7979 26.5889L51.2031 26.2607L50.4854 25.9121L49.7881 25.625L49.2344 25.4199L48.4961 25.1943L47.6758 24.9893L47.0195 24.8662L46.4863 24.7842L45.666 24.7021L45.2764 24.6816H43.7998L43.0205 24.7432L42.1592 24.8662L41.749 24.9482L41.9746 25.1123L42.2002 25.2559L42.5898 25.543L42.8564 25.748L43.0615 25.9121L43.3486 26.1582L43.5947 26.3838L43.7588 26.5273L44.3535 27.1221V27.1631H44.3945L44.5381 27.3271L44.7842 27.6143L45.0508 27.9424L45.2969 28.2705L45.584 28.6807L45.8096 29.0293L46.1172 29.542L46.2812 29.8291L46.4453 30.1572L46.7529 30.8135L46.9785 31.3877L47.2246 32.1055L47.4297 32.8643L47.5938 33.6436L47.6963 34.3613L47.7578 35.0176L47.7783 35.4688V36.248L47.7373 37.0273L47.6553 37.7246L47.5527 38.3398L47.3887 39.0781L47.2246 39.6523L46.9785 40.3906L46.6709 41.1494L46.3223 41.8672L46.0557 42.3389L45.7891 42.79L45.4404 43.3027L45.1738 43.6719L44.9277 43.9795L44.7432 44.2051L44.5586 44.4102L44.415 44.5742L44.3535 44.6562H44.3125L44.2715 44.7383L43.6973 45.3125L43.5332 45.4561L43.4922 45.4971L43.4717 45.5996V46.0098L43.5127 46.4404L43.6357 47.0146L43.7793 47.4453L43.9434 47.8145L44.1279 48.1631L44.251 48.3887L44.3125 48.5732V48.8398L44.2305 49.0859L44.1074 49.25L43.9639 49.3936L43.7383 49.4961L43.5537 49.5371H42.8154L42.1387 49.4551L41.585 49.332L40.9082 49.1064L40.498 48.9219L40.1699 48.7578L39.6982 48.4707L39.4316 48.2656L39.2266 48.1016L39.124 48.0811L38.3037 48.3271L37.6064 48.4912L36.8271 48.6348L36.1709 48.7168L35.2891 48.7783H34.4688L33.7715 48.7373L33.2178 48.6758L32.541 48.5732L31.7822 48.4092L31.7412 48.3887L32.0078 49.25L32.3359 50.4189L32.6641 51.7109L32.8281 52.4287L32.8691 52.6748L32.8486 52.9209L32.7666 53.126L32.623 53.3105L32.4795 53.4336L32.3154 53.5156L32.1514 53.5566H31.8848L31.6387 53.4746L31.4541 53.3311L31.3311 53.1875L31.2285 52.9619L31.0645 52.2852L30.8594 51.4238L30.5928 50.4189L30.2852 49.373L29.9365 48.2861L29.752 47.7324L29.4238 47.5684L28.9111 47.3223L28.4395 47.0557L27.9883 46.7891L27.4756 46.4404L27.0859 46.1533L26.7988 45.9277L26.5322 45.7021L26.3271 45.5176L26.1631 45.374L25.835 45.0664L25.5068 44.7383L25.3633 44.5742L25.0967 44.2871L24.8711 44L24.6455 43.7334L24.3789 43.3643L24.0918 42.9541L23.8252 42.5234L23.5176 41.9902L23.292 41.5596L23.0459 41.0264L22.7998 40.4111L22.6357 39.9395L22.4307 39.2832L22.2461 38.5039L22.123 37.8066L22.0205 37.0273L22 36.9453V34.792L22.041 34.6074L22.1436 33.8281L22.2666 33.1719L22.4102 32.5771L22.5947 31.9414L22.7998 31.3467L23.0869 30.6494L23.4766 29.8496L23.7637 29.3369L24.0098 28.9473L24.2559 28.5781L24.502 28.2295L24.707 27.9629L24.9736 27.6348L25.1582 27.4092L25.4658 27.0811L25.4863 27.04H25.5273L25.5684 26.958L26.0195 26.5068H26.0605V26.4658L26.2246 26.3223L26.4502 26.1172L26.9014 25.748L27.25 25.4814L27.5986 25.2354L27.9062 25.0303L28.3369 24.7637L28.8086 24.4971L29.3213 24.2305L29.916 23.9639L30.4492 23.7588L31.1875 23.5127L31.8848 23.3281L32.5615 23.1846L33.0537 23.1025L33.751 23.0205L33.833 23ZM34.6328 24.6406L33.874 24.6816L33.3203 24.7432L32.8076 24.8252L32.1514 24.9688L31.5156 25.1533L30.8594 25.3789L30.3262 25.6045L29.7314 25.8916L29.2393 26.1582L28.8086 26.4248L28.3574 26.7324L28.0293 26.9785L27.7012 27.2451L27.5371 27.3887L27.332 27.5732L27.168 27.7168L26.6143 28.2705L26.4707 28.4346L26.2041 28.7422L25.9375 29.0908L25.7324 29.3574L25.4043 29.8496L25.1787 30.2188L24.9941 30.5469L24.8916 30.752L24.9531 30.998L25.1377 31.5107L25.3838 32.1055L25.6299 32.6387L25.876 33.0898L26.0605 33.418L26.2041 33.6436L26.5322 34.1357L26.7578 34.4434L26.7783 34.4844L26.8604 34.4639L27.0859 34.0537L27.2295 33.8486L27.4756 33.5L27.7012 33.2334L27.7422 33.1514L27.7832 32.6387L27.8857 32.0439L28.0293 31.4697L28.2344 30.8955L28.5215 30.2803L28.7266 29.9316L29.0137 29.501L29.2393 29.2139L29.4238 28.9883L29.752 28.6396L29.8955 28.4961L30.0596 28.3525L30.3262 28.127L30.5518 27.9629L30.8594 27.7578L31.126 27.5938L31.4131 27.4297L31.9463 27.1836L32.5 26.9785L33.1152 26.8145L33.7305 26.7119L34.1611 26.6709H35.0635L35.8018 26.7529L36.2939 26.8555L36.8682 27.0195L37.2988 27.1836L37.791 27.4092L38.1807 27.6143L38.7344 27.9834L39.001 28.1885L39.2881 28.4346L39.5547 28.6807L39.7188 28.8447L39.8623 29.0088L40.0879 29.2754L40.3545 29.6445L40.6006 30.0342L40.8467 30.4854L41.0312 30.8955L41.1133 31.0596L41.2568 31.1826L41.5234 31.3672L41.749 31.5518L42.0156 31.7773L42.5078 32.2695L42.6924 32.4951L42.959 32.8438L43.1641 33.1514L43.3486 33.459L43.5537 33.8486L43.7793 34.3818L43.9434 34.874L44.0664 35.3867L44.1484 35.8994L44.1895 36.2686V37.1709L44.1074 37.8477L43.9844 38.4014L43.8203 38.9346L43.6152 39.4473L43.3486 39.9805L43.041 40.4727L42.7949 40.8008L42.5283 41.1289L42.2412 41.4365L42.0566 41.6211L41.8311 41.8057L41.6465 41.9697L41.2773 42.2363L40.9902 42.4209L40.6416 42.626L40.1904 42.8516L39.6777 43.0566L39.165 43.2207L38.6113 43.3438L38.0781 43.4258L37.6064 43.4668H37.0322L36.417 43.4258L36.0889 43.5898L35.6992 43.7744L35.207 43.959L34.6943 44.1025L34.2227 44.2051L33.6279 44.2871L33.3613 44.3076H32.5615L31.9463 44.2461L31.3105 44.123L30.7568 43.959L30.3057 43.7949L29.7314 43.5283L29.3008 43.2822L28.8496 42.9746L28.5625 42.749L28.2754 42.5029L27.7832 42.0107L27.5986 41.7852L27.3115 41.416L27.0449 41.0059L26.7988 40.5547L26.5938 40.124L26.4092 39.6113L26.2656 39.1191L26.1426 38.4629L26.1016 38.0732V37.0889L26.1631 36.5352L26.1836 36.3301L25.9785 36.1045L25.7939 35.8789L25.5889 35.6328L25.2812 35.2227L25.0352 34.874L24.7686 34.4639L24.502 34.0127L24.2148 33.4795L24.0098 33.0898H23.9893L23.8252 33.8896L23.7227 34.5459L23.6611 35.3252L23.6406 35.9814L23.6611 36.5352L23.7227 37.2324L23.8252 37.9297L23.9893 38.668L24.1738 39.3037L24.3789 39.8984L24.6045 40.4316L24.7891 40.8418L25.1582 41.5186L25.4043 41.9287L25.6299 42.2568L25.876 42.6055L26.1016 42.8926L26.3271 43.1592L26.5732 43.4463L26.7783 43.6514L26.9219 43.8154L27.0859 43.9795L27.25 44.123L27.5371 44.3896L27.7627 44.5742L28.0908 44.8408L28.4395 45.0869L28.8701 45.374L29.1367 45.5381L29.5264 45.7637L30.0391 46.0303L30.6953 46.3174L31.3105 46.543L31.8438 46.707L32.418 46.8506L33.0537 46.9736L33.6895 47.0557L34.1611 47.0967L34.5918 47.1172H35.1455L35.8838 47.0762L36.458 47.0146L37.1553 46.8916L37.7705 46.748L38.3242 46.584L39.083 46.3174L39.2881 46.2764L39.5547 46.2969L39.7598 46.3789L39.9443 46.5225L40.2109 46.7686L40.498 46.9941L40.8672 47.2402L41.3799 47.5068L41.8311 47.6709L42.0156 47.7324H42.0977L42.0156 47.4043L41.8926 46.8301L41.8311 46.4199L41.8105 46.1943V45.333L41.8721 44.8818L41.9541 44.6973L42.0771 44.5332L42.2207 44.3896L42.3848 44.2461L42.6924 43.959L43.1641 43.4873L43.3076 43.3232L43.3486 43.2412L43.4102 43.2207L43.6357 42.9336L43.8818 42.626L44.0869 42.3389L44.333 41.9697L44.5791 41.5801L44.7227 41.334L45.0303 40.7188L45.1943 40.3701L45.3994 39.8574L45.543 39.4473L45.7275 38.8525L45.8711 38.2578L45.9736 37.7041L46.0557 37.1094L46.0967 36.6377L46.1172 36.2275V35.5508L46.0762 34.874L45.9941 34.1768L45.8916 33.6025L45.748 32.9873L45.5225 32.249L45.2764 31.5928L44.9688 30.916L44.7021 30.4033L44.3945 29.8906L44.1484 29.5215L43.9434 29.2344L43.7383 28.9678L43.5742 28.7627L43.3896 28.5371L42.8975 28.0039L42.5693 27.6758L42.4053 27.5322L42.1797 27.3271L41.8926 27.1016L41.585 26.8555L41.1953 26.5889L40.8262 26.3428L40.375 26.0762L39.8008 25.7686L39.2061 25.502L38.5088 25.2354L37.9756 25.0713L37.1553 24.8662L36.5605 24.7637L35.8223 24.6816L34.9609 24.6406H34.6328ZM34.2637 28.3115L33.7305 28.373L33.2588 28.4756L32.8691 28.5986L32.541 28.7217L32.0693 28.9473L31.6387 29.2139L31.29 29.4805L31.0029 29.7266L30.7158 30.0137L30.5312 30.2393L30.3672 30.4443L30.1826 30.7109L29.9365 31.1416L29.752 31.5312L29.7725 31.5723L30.4082 31.2852L31.085 31.0596L31.5156 30.957L31.9668 30.875L32.5205 30.8135H33.3818L33.8535 30.8545L34.4688 30.5469L34.8789 30.3828L35.3711 30.2188L35.9863 30.0752L36.54 29.9932L36.7656 29.9727H37.8525L38.4268 30.0342H38.5498L38.4268 29.8906L38.1191 29.583L37.832 29.3574L37.5039 29.1318L37.1143 28.9062L36.6836 28.7012L36.2939 28.5576L35.8428 28.4346L35.3916 28.3525L35.0225 28.3115H34.2637ZM36.9297 31.6133L36.417 31.6748L36.499 31.7568L36.8066 31.9414L37.1553 32.1875L37.4834 32.4541L37.6885 32.6387L37.8525 32.7822L38.0576 32.9873L38.2012 33.1514L38.4268 33.418L38.7139 33.8076L38.96 34.1973L39.165 34.5664L39.4111 35.1201L39.4932 35.2842H39.5342L39.6982 34.7715L39.8008 34.3408L39.8623 33.9102L39.8828 33.6025V33.2744L39.8418 32.7822L39.7598 32.29L39.6982 32.167L39.4111 32.0234L38.9189 31.8389L38.4268 31.7158L37.9346 31.6338L37.7295 31.6133H36.9297ZM31.7207 32.5977L31.2285 32.7412L30.8594 32.8848L30.4287 33.0898L29.957 33.377L29.6699 33.6025L29.4033 33.8281L29.3008 33.9102V33.9512H29.2598L29.1162 34.1152L28.8906 34.3613L28.6445 34.6895L28.4395 34.9971L28.1523 35.5508L28.0498 35.7969L28.0703 35.8994L28.2344 36.043L28.4395 36.2275L28.7266 36.4531L28.9932 36.6582L29.3213 36.8838L29.6084 37.0684L29.916 37.2529L30.3467 37.499L30.4492 37.5195L30.4082 36.8018L30.4287 36.207L30.4902 35.6738L30.6133 35.0996L30.7773 34.5459L31.0029 33.9717L31.2285 33.5205L31.5566 32.9873L31.8232 32.6182V32.5977H31.7207ZM34.1611 32.6182L33.9355 32.8027L33.6689 33.0283L33.4023 33.2949V33.3359H33.3613L33.1768 33.5615L32.9717 33.8281L32.7256 34.2178L32.5 34.6484L32.3359 35.0586L32.1719 35.6328L32.0898 36.1045L32.0693 36.3301V37.0684L32.1309 37.5605L32.2539 38.1348L32.3154 38.2373L32.8691 38.3604L33.7305 38.4834L34.2842 38.5244H34.9404L35.4326 38.4629L35.7812 38.4014L36.2529 38.2783L36.7041 38.1143L37.1758 37.8887L37.6064 37.6221L37.8936 37.417L38.2012 37.1709V37.0889H38.1602L38.1807 37.0479V36.8838L38.0781 36.3506L37.9346 35.8789L37.7295 35.3867L37.5449 35.0381L37.2988 34.6484L37.0732 34.3613L36.8477 34.1152L36.7451 33.9922L36.5811 33.8486L36.3555 33.6436L36.0273 33.3975L35.5967 33.1309L35.2891 32.9668L34.8994 32.8027L34.4688 32.6592L34.3047 32.6182H34.1611ZM41.5439 33.7051L41.5234 33.7666L41.4619 34.3818L41.3389 35.0176L41.1748 35.5508L40.9902 36.043L40.7646 36.5146L40.498 36.9658L40.334 37.2119L40.1289 37.499L39.9033 37.7656L39.8623 37.9707L39.8213 38.4014L39.7393 38.8936L39.5957 39.4678L39.4111 40.001L39.2471 40.3906L39.042 40.7803L38.8369 41.1289L38.5088 41.6006L38.4678 41.6826L38.6934 41.6416L39.3086 41.4365L39.7598 41.2314L40.1494 41.0059L40.3955 40.8418L40.6621 40.6367L40.9492 40.3906L41.2363 40.1035L41.3799 39.9395L41.6465 39.5908L41.8721 39.2422L42.1182 38.7705L42.2822 38.3604L42.4258 37.8477L42.5078 37.417L42.5488 36.9658V36.4531L42.5078 36.0225L42.4053 35.4893L42.2412 34.9561L42.0156 34.4434L41.8105 34.0742L41.5645 33.7051H41.5439ZM27.7422 37.7861L27.7627 38.1348L27.8447 38.627L27.9883 39.1602L28.1934 39.6523L28.3574 39.9805L28.5215 40.2676L28.7266 40.5547L28.8906 40.7598L29.1367 41.0469L29.3828 41.293L29.6084 41.4775L29.8135 41.6416L30.0186 41.7852L30.3262 41.9697L30.7979 42.2158L31.1055 42.3389L31.4541 42.4619L31.9668 42.585L32.3975 42.6465L32.623 42.667H33.2588L33.6484 42.626L33.833 42.6055V42.5439L33.4844 42.3389L33.1768 42.1133L32.9102 41.9082L32.623 41.6621L32.2744 41.334L32.0898 41.1084L31.8643 40.8623L31.5977 40.4932L31.3105 40.042L31.1055 39.6729L31.0645 39.5908L30.6953 39.4473L30.0596 39.1807L29.5469 38.9346L29.0752 38.668L28.7266 38.4629L28.2344 38.1348L27.8652 37.8682L27.7422 37.7861ZM37.8115 39.4268L37.1348 39.7139L36.6426 39.8779L36.1709 40.001L35.6172 40.1035L35.0225 40.165H34.0791L33.5869 40.124H33.4229L33.5459 40.2676L33.7715 40.4932L33.9971 40.6777L34.3662 40.9443L34.6328 41.1084L35.1045 41.3545L35.5146 41.5186L36.0479 41.6826L36.1914 41.6006L36.417 41.416L36.6631 41.1904L37.0117 40.8418L37.2373 40.5547L37.3809 40.3496L37.5859 40.0215L37.75 39.7139L37.8525 39.4678V39.4268H37.8115Z" fill="black"/>
<path d="M54.6689 39.7549H54.9971L55.2227 39.8369L55.4072 39.9805L55.5508 40.1445L55.6328 40.3291L55.6738 40.6367L55.6328 41.0469L55.5508 41.3955L55.3867 41.8057L55.2227 42.0928L55.0586 42.3184L54.833 42.5645L54.6895 42.708L54.4434 42.8926L54.1152 43.0771L53.8281 43.2002L53.3975 43.3232L53.0898 43.3643H52.7412L52.5361 43.3027L52.3721 43.2002L52.249 43.0977L52.126 42.9131L52.0439 42.6875V42.4004L52.126 42.1543L52.29 41.9287L52.4951 41.7852L52.6592 41.7236L53.1924 41.6416L53.4385 41.5391L53.6846 41.3545L53.8281 41.1494L53.9102 40.9854L53.9717 40.7393L54.0127 40.3906L54.0947 40.1855L54.2588 39.96L54.4434 39.8369L54.6689 39.7549Z" fill="black"/>
<path d="M32.4795 55.5459H32.7871L32.9922 55.6074L33.1768 55.7305L33.3203 55.874L33.4434 56.0996L33.4844 56.2842V56.4688L33.4023 56.7354L33.2383 56.9609L33.0127 57.125L32.8281 57.1865H32.459L32.2334 57.1045L32.0283 56.9199L31.9053 56.7559L31.8232 56.5508V56.2227L31.8848 56.0176L32.0078 55.833L32.1514 55.6895L32.3975 55.5664L32.4795 55.5459Z" fill="black"/>
</g>
<defs>
<clipPath id="clip0_151_414">
<rect width="42" height="42" fill="white" transform="translate(22 23)"/>
</clipPath>
</defs>
</svg>
