<svg width="87" height="87" viewBox="0 0 87 87" fill="none" xmlns="http://www.w3.org/2000/svg">
<circle cx="43.5" cy="43.5" r="43.5" fill="#B7EAFC"/>
<path d="M42.0156 23H44.1279V23.0205L45.0303 23.1436L45.7686 23.2871L46.3428 23.4307L46.7529 23.5537L47.2861 23.7383L48.0244 24.0459L48.5781 24.3125L49.0498 24.5791L49.46 24.8252L49.8291 25.0713L50.2803 25.3994L50.5674 25.625L50.8545 25.8711L51.0186 26.0146L51.2646 26.2402L51.5723 26.5273V26.5684H51.6133L51.7568 26.7324L51.9004 26.876V26.917H51.9414L52.126 27.1426L52.3926 27.4502L52.7002 27.8604L52.9258 28.168L53.1924 28.5781L53.3975 28.9062L53.7051 29.46L53.9717 29.9932L54.2588 30.6699L54.5049 31.3672L54.71 32.0645L54.874 32.8027L54.9766 33.418L55.0381 33.9512L55.0791 34.6279V35.4688L55.0381 36.1865L54.9355 36.9453L54.833 37.499L54.6895 38.1143L54.5254 38.668L54.2998 39.3447L53.9717 40.2061L53.6436 41.0059L53.377 41.6211L53.0898 42.2568L52.4131 43.6104L52.208 43.9795L51.8389 44.6562L51.5518 45.1484L51.3057 45.5586L51.0596 45.9482L50.8955 46.2148L50.3623 47.0146L50.0342 47.4863L49.8291 47.7734L49.542 48.1631L49.3164 48.4707L49.3369 48.5527L49.5625 48.7373L49.8701 49.0039L50.1367 49.2295L50.4238 49.4756L50.6904 49.7012L50.9775 49.9473L51.2441 50.1729L51.4697 50.3574L51.7773 50.6445L51.9004 50.7881L52.0029 51.0137L52.0439 51.1572V51.5264L51.9824 51.7314L51.9004 51.8955L51.6953 52.1621L50.957 53.0234L50.8135 53.208L50.793 53.2695L50.9365 53.6182L51.0186 53.9668V54.459L50.9365 54.8076L50.793 55.1357L50.6494 55.3613L50.4033 55.6279L50.1572 55.8125L49.8291 55.9766L49.583 56.0586L49.2344 56.1201H49.0088L48.7422 56.0791L48.5166 56.0176H48.4141L48.168 56.3047L47.9834 56.5303L47.7168 56.8379L47.5322 57.0635L47.2861 57.3301L47.0605 57.4736L46.835 57.5557L46.7529 57.5762H46.4248L46.1787 57.4941L45.9326 57.3506L45.707 57.1455L45.502 56.9814L45.2969 56.7969L45.0713 56.6123L44.7637 56.3457L44.5381 56.1611L44.2305 55.8945L43.9434 55.6484L43.7178 55.4639L43.5127 55.2793L43.0615 54.9102L42.959 54.9307L42.7129 55.1562L42.4873 55.3408L42.2207 55.5664L42.0566 55.71L41.79 55.9355L41.5645 56.1201L41.3594 56.3047L41.1338 56.4893L40.5596 56.9814L40.334 57.166L40.0264 57.4326L39.7393 57.6787L39.2061 58.1299L38.9805 58.3145L38.7549 58.5195L38.5293 58.7041L37.9551 59.1963L37.7295 59.3809L37.4424 59.627L37.1758 59.8525L36.8682 60.1191L36.6426 60.3037L36.4375 60.4883L36.2119 60.6729L35.9043 60.9395L35.6787 61.124L35.4736 61.3086L35.248 61.4932L34.6738 61.9854L34.4482 62.1699L34.1406 62.4365L33.915 62.6211L33.71 62.8057L33.4844 62.9902L33.2793 63.1748L32.9922 63.4004L32.7666 63.6055L32.541 63.79L31.6797 64.5283L31.3926 64.7334L31.1465 64.8154H30.8594L30.6543 64.7539L30.4287 64.5898L30.2646 64.3643L30.1826 64.1182L29.875 62.2314L29.5674 60.3242V60.2832L29.2803 60.2217L27.3936 59.75L26.0195 59.4014L25.7939 59.3193L25.6094 59.1758L25.4658 58.9912L25.3838 58.7861L25.3633 58.7041V58.4785L25.4453 58.2119L25.6094 57.9863L25.8145 57.8018L26.04 57.6172L26.3477 57.3506L26.5732 57.166L27.4346 56.4277L27.7012 56.2021L27.9268 56.0176L28.2344 55.751L28.5215 55.5049L28.7881 55.2793L29.0752 55.0332L29.3418 54.8076L29.6289 54.5615L29.8545 54.377L30.0596 54.1924L30.2852 54.0078L30.8594 53.5156L31.085 53.3311L31.2695 53.167L31.4951 52.9824L31.8027 52.7158L32.0693 52.4902L32.3564 52.2441L32.623 52.0186L32.9102 51.7725L33.1357 51.5879L33.4434 51.3213L33.71 51.0957L33.9971 50.8496L34.2637 50.624L34.5508 50.3779L34.7764 50.1934L35.084 49.9268L35.3506 49.7012L35.6377 49.4551L35.9043 49.2295L36.1299 49.0449L36.4375 48.7783L36.6836 48.5732L36.7451 48.5117L36.6426 48.3271L36.3555 47.958L36.0889 47.5684L35.9043 47.3223L35.5967 46.8711L35.3506 46.502L35.125 46.1533L34.8789 45.7637L34.5303 45.1895L34.2432 44.6973L34.0381 44.3281L33.71 43.7334L33.3613 43.0566L33.0127 42.3594L32.7666 41.8262L32.459 41.1289L32.1514 40.3906L31.8438 39.5908L31.5771 38.8525L31.3926 38.2373L31.2285 37.5605L31.085 36.7402L31.0029 36.0225L30.9619 35.3047V34.8125L31.0029 34.0332L31.1055 33.1719L31.2695 32.3311L31.4746 31.5723L31.7002 30.8955L31.9463 30.2803L32.1104 29.9111L32.2744 29.583L32.541 29.0908L32.7461 28.7422L33.0127 28.332L33.1973 28.0654L33.4844 27.6758L33.6484 27.4912L33.8535 27.3887L33.9561 27.3682H34.0996L34.3047 27.4297L34.4688 27.5527L34.5713 27.6758L34.6533 27.8809V28.1064L34.5918 28.291L34.4072 28.5576L34.2432 28.7832L34.0586 29.0498L33.874 29.3369L33.5869 29.8291L33.3408 30.3008L33.0947 30.834L32.8691 31.4082L32.6641 32.0439L32.5 32.6797L32.377 33.3154L32.2949 33.9307L32.2539 34.4434V35.6328L32.2949 36.1455L32.377 36.7812L32.5 37.417L32.6846 38.1143L32.9307 38.873L33.2588 39.7344L33.6484 40.6777L33.9971 41.457L34.3662 42.2363L34.6123 42.7285L34.8174 43.1182L35.1045 43.6514L35.3711 44.123L35.6377 44.5742L35.9248 45.0459L36.2324 45.5381L36.7246 46.2764L36.9502 46.6045L37.1963 46.9531L37.4629 47.3223L37.9961 48.0195L38.2217 48.3066L38.4883 48.6348L38.6523 48.8398L38.8984 49.127L39.083 49.3525L39.3086 49.5986L39.4932 49.8242L39.6367 49.9678L39.7803 50.1318L40.0879 50.46L40.252 50.624L40.3955 50.7881L40.9082 51.3008L40.9492 51.3213V51.3623L41.0312 51.4033L41.3184 51.6904L41.4824 51.834L41.6465 51.998L41.6875 52.0186V52.0596L41.7695 52.1006L42.0977 52.4082L42.2617 52.5518L42.4668 52.7363L42.6309 52.8799L42.8359 53.0645L43.0615 53.249L43.2871 53.4541L43.5127 53.6387L43.8203 53.9053L44.1074 54.1514L44.6406 54.6025L44.8662 54.7871L45.1738 55.0537L45.3994 55.2383L45.707 55.5049L45.9326 55.6895L46.2402 55.9561L46.5273 56.1816L46.6094 56.2227L46.6504 56.1406L46.835 55.9355L46.999 55.7305L47.1426 55.5459H47.1836L47.2246 55.4639L47.4912 55.1562L47.6758 54.9307L47.9014 54.6846L48.0859 54.582L48.1475 54.5615H48.4346L48.6191 54.6436L48.8447 54.7871L48.9883 54.8281H49.2549L49.46 54.7461L49.6445 54.582L49.7266 54.3975L49.7471 54.2949V54.1104L49.665 53.8848L49.542 53.7207L49.3984 53.5566L49.3164 53.3516V53.1465L49.3984 52.9209L49.542 52.7363L49.7061 52.5518L49.8906 52.3262L49.9316 52.2646H49.9727L50.0137 52.1826L50.2803 51.875L50.4648 51.6494L50.6494 51.4443L50.6904 51.3623L50.4854 51.1777L50.2598 50.9932L50.0547 50.8086L49.8291 50.624L49.5215 50.3574L48.9883 49.9062L48.7012 49.6602L48.4756 49.4756L48.2705 49.291L48.0449 49.1064L47.7373 48.8398L47.5117 48.6553L47.3066 48.4707L47.0811 48.2861L46.7939 48.04L46.5684 47.835L46.3428 47.6504L46.0352 47.3633L45.9326 47.2197L45.8711 47.0352V46.8711L45.9531 46.6455L46.0762 46.4814L46.2607 46.3584L46.4043 46.3174H46.6094L46.7734 46.3789L46.958 46.502L47.2041 46.7275L47.4297 46.9121L47.6963 47.1582L47.9219 47.3428L48.209 47.5889L48.2705 47.6504L48.3525 47.6709L48.3936 47.5889L48.6191 47.2812L48.7832 47.0557L49.0293 46.707L49.2549 46.3789L49.8291 45.5176L50.1572 44.9844L50.4648 44.4922L50.793 43.918L51.1211 43.3232L51.3467 42.9131L51.5107 42.585L51.9004 41.7852L52.0439 41.457L52.1875 41.1494L52.4336 40.5957L52.7412 39.8574L53.0078 39.1602L53.2129 38.5859L53.3975 38.0117L53.5615 37.3555L53.6641 36.8223L53.7461 36.248L53.7871 35.8174L53.8076 35.4688V34.5664L53.7666 33.9922L53.6846 33.3564L53.582 32.7822L53.4385 32.208L53.2539 31.6133L53.0693 31.1006L52.7822 30.4443L52.5156 29.9111L52.2285 29.4189L51.9619 29.0088L51.7363 28.6807L51.4697 28.332L51.2852 28.1064L51.0596 27.8398L50.752 27.5117L50.2803 27.04L50.1162 26.8965L49.8086 26.6299L49.3984 26.3223L49.1113 26.1172L48.8037 25.9121L48.25 25.584L47.6553 25.2764L47.1426 25.0508L46.4248 24.7842L45.7891 24.5996L45.2559 24.4766L44.6816 24.374L44.21 24.3125L43.6562 24.2715L43.6357 24.3535L43.6562 25.6455L43.9844 25.8096L44.21 25.9736L44.415 26.1582L44.5996 26.4043L44.7637 26.7119L44.8457 26.958L44.8867 27.1631V27.7168L44.8047 28.0449L44.6816 28.332L44.5381 28.5576L44.3535 28.7627L44.21 28.9062L44.0049 29.0498L43.6562 29.2344L43.6357 30.6699L44.0254 30.7314L44.5176 30.875L44.9072 31.0391L45.3379 31.2646L45.707 31.5312L45.9326 31.7158L46.0762 31.8389V31.8799H46.1172V31.9209H46.1582L46.3018 32.085L46.4658 32.2695L46.7324 32.6387L46.9375 32.9873L47.1221 33.3975L47.2861 33.8896L47.3682 34.2588L47.4297 34.7305V35.3457L47.3887 35.7148L47.3066 36.125L47.1836 36.5352L46.8555 37.417L46.5479 38.1553L46.3633 38.5654L46.1172 39.1191L45.6865 39.9805L45.5635 40.1855L45.4199 40.4727L45.1533 40.9443L44.9688 41.252L44.7637 41.6006L44.4766 42.0518L44.292 42.3389L44.1279 42.585L43.9023 42.9131L43.8408 42.9951L43.8613 43.1182L44.0664 43.3643L44.292 43.6514L44.5586 43.9795L44.8047 44.2666L45.0098 44.5332L45.0918 44.6973L45.1123 44.7793V44.9639L45.0303 45.1689L44.9072 45.333L44.7637 45.4355L44.6406 45.4766L44.415 45.4971L44.1895 45.4355L43.9844 45.251L43.7383 44.9844L43.5537 44.7588L43.2871 44.4307L42.8359 43.8564L42.5898 43.5283L42.3232 43.1592L41.9951 42.6875L41.79 42.3799L41.5645 42.0312L41.3184 41.6416L41.0723 41.2314L40.8467 40.8418L40.6416 40.4727L40.3955 40.0215L40.0469 39.3447L39.8213 38.8525L39.6777 38.5449L39.4316 37.9912L39.2061 37.4375L38.9189 36.6787L38.7754 36.248L38.6729 35.7764L38.6113 35.2432V34.874L38.6523 34.4229L38.7549 33.9307L38.8574 33.582L39.0215 33.1719L39.2676 32.7207L39.4932 32.3926L39.7188 32.126L39.8623 31.9619L40.1084 31.7158L40.334 31.5312L40.6211 31.3262L41.0518 31.0801L41.4619 30.8955L41.9541 30.752L42.3438 30.6699L42.3643 28.6396L42.4258 28.4346L42.5488 28.2705L42.6719 28.168L42.877 28.0859L43.2256 28.0244L43.4307 27.9014L43.5537 27.7578L43.6152 27.5938V27.2861L43.5332 27.0811L43.4102 26.9375L43.2051 26.835L42.7744 26.7529L42.6104 26.6504L42.4463 26.4658L42.3848 26.3223L42.3643 26.2197V24.251L42.0361 24.292L41.3594 24.374L40.7646 24.4766L40.0264 24.6611L39.2676 24.9072L38.6729 25.1533L38.1602 25.3994L37.6475 25.666L37.2168 25.9326L36.8271 26.1992L36.458 26.4658L36.2529 26.5684L36.1709 26.5889H35.9658L35.7197 26.4863L35.5762 26.3428L35.4736 26.1377L35.4531 26.0762V25.8506L35.5146 25.6865L35.6172 25.5225L35.9658 25.2559L36.3145 25.0098L36.6221 24.8047L37.0732 24.5381L37.4424 24.333L37.9346 24.0869L38.4473 23.8613L39.165 23.5947L39.8418 23.3896L40.457 23.2461L41.2363 23.1025L41.9131 23.0205L42.0156 23ZM42.877 31.8799L42.4668 31.9209L42.0361 32.0234L41.626 32.1875L41.2773 32.3926L40.9902 32.6182L40.8672 32.7207V32.7617L40.7852 32.8027L40.6006 33.0078L40.375 33.3154L40.1699 33.6846L40.0469 33.9922L39.9648 34.2383L39.8828 34.6689L39.8623 35.1406L39.9033 35.5508L40.0059 35.9814L40.2314 36.6172L40.4775 37.2324L40.6826 37.7246L40.9902 38.4014L41.2363 38.9141L41.4824 39.4062L41.667 39.7344L41.79 39.9805L41.9951 40.3291L42.2412 40.7598L42.4463 41.0879L42.7334 41.5391L43 41.9287H43.0615L43.2871 41.5801L43.4922 41.2725L43.8203 40.7393L44.1279 40.2061L44.3125 39.8779L44.6611 39.2217L44.9688 38.6064L45.2764 37.9297L45.543 37.3145L45.7891 36.6992L46.0352 36.002L46.1172 35.6943L46.1787 35.2432V34.8125L46.1172 34.3818L45.9941 33.9512L45.8301 33.582L45.666 33.2949L45.4814 33.0488L45.2559 32.7822L45.0508 32.5977L44.7021 32.3516L44.4561 32.208L44.0664 32.0439L43.6768 31.9414L43.4512 31.9004L43.1436 31.8799H42.877ZM37.5244 49.4961L37.2783 49.7217L37.0732 49.8857L36.7861 50.1318L36.4785 50.3984L36.2529 50.583L35.9658 50.8291L35.6992 51.0547L35.4121 51.3008L35.1865 51.4854L34.9609 51.6904L34.7354 51.875L34.4482 52.1211L34.2227 52.3057L33.9971 52.5107L33.7715 52.6953L33.4844 52.9414L33.2178 53.167L32.9922 53.3516L32.6846 53.6182L32.418 53.8438L32.1104 54.1104L31.8848 54.2949L31.6797 54.4795L31.4746 54.6436L31.167 54.9102L30.9414 55.0947L30.7158 55.2998L30.4902 55.4844L29.916 55.9766L29.6904 56.1611L29.3828 56.4277L29.1572 56.6123L28.9521 56.7969L28.7266 56.9814L28.5215 57.166L28.2344 57.3916L28.0088 57.5967L27.7832 57.7812L27.4961 58.0273L27.2295 58.2529L27.1064 58.3555V58.3965L27.4961 58.4785L28.6855 58.7861L29.9365 59.0938L30.2031 59.1963L30.4082 59.3193L30.4902 59.4014H30.5312L30.5723 59.4834L30.6953 59.6885L30.7773 59.9551L31.208 62.6416L31.29 63.1748L31.3721 63.1338L31.5977 62.9492L31.9053 62.6826L32.1924 62.4365L32.459 62.2109L32.6846 62.0264L32.9922 61.7598L33.2793 61.5137L33.5459 61.2881L33.833 61.042L34.0996 60.8164L34.3252 60.6318L34.6328 60.3652L34.9199 60.1191L35.1865 59.8936L35.4736 59.6475L35.7402 59.4219L36.0273 59.1758L36.2529 58.9912L36.5605 58.7246L36.8271 58.499L37.1143 58.2529L37.3809 58.0273L37.668 57.7812L37.8936 57.5967L38.2012 57.3301L38.4678 57.1045L38.7549 56.8584L39.0215 56.6328L39.2471 56.4482L39.5547 56.1816L39.8418 55.9355L40.1084 55.71L40.3955 55.4639L40.6621 55.2383L40.8877 55.0537L41.0928 54.8691L41.3184 54.6846L41.5234 54.5L41.749 54.3154L42.0361 54.0693V54.0078L41.8105 53.8232L41.5645 53.5977L41.4004 53.4541L41.1953 53.2695L41.0312 53.126L40.7031 52.8184L40.498 52.6133L40.334 52.4697L39.2061 51.3418L39.0625 51.1777L38.8984 51.0137L38.7549 50.8496L38.4883 50.5625L38.3447 50.3984L38.1602 50.1934L37.9756 49.9678L37.709 49.6602L37.5654 49.4961H37.5244Z" fill="black"/>
<path d="M54.1768 53.1465H54.3818L54.5664 53.1875L54.792 53.3105L55.0996 53.5771L55.3252 53.7617L55.6328 54.0283L55.8584 54.2129L56.0635 54.3975L56.207 54.5L56.3301 54.459L56.5762 54.3564L56.8018 54.2949L56.9453 54.2744H57.417L57.7041 54.3359L57.9707 54.4385L58.2578 54.6025L58.4629 54.7666L58.627 54.9307L58.8115 55.1973L58.9551 55.4844L59.0576 55.874L59.0781 56.0381V56.2842L59.0371 56.5713L58.9551 56.8379L59.2217 57.084L59.4473 57.2686L60.0215 57.7607L60.2471 57.9453L60.4727 58.1709L60.5957 58.3965L60.6367 58.5811V58.7451L60.5957 58.9297L60.4727 59.1553L60.2061 59.4834L60.0215 59.6885L59.8574 59.8936L59.8164 59.9551H59.7754L59.7344 60.0371L59.2422 60.6113L59.0576 60.8369L58.873 61.001L58.6475 61.1035L58.5654 61.124H58.2168L58.0117 61.042L57.7656 60.9395L57.54 60.9189L57.335 60.9805L57.2119 61.0625L57.1094 61.165L57.0273 61.3086L56.9863 61.4521V61.6572L57.0684 61.8828L57.2529 62.1699L57.335 62.375V62.6826L57.2324 62.9492L56.9863 63.2773L56.8018 63.4824L56.6172 63.708L56.3506 64.0156L56.1045 64.3027L55.9199 64.5283L55.6328 64.8359L55.4482 64.9385L55.3252 65H54.915L54.6279 64.8564L54.3613 64.6309L54.0742 64.3848L53.8486 64.2002L53.6641 64.0361L53.4385 63.8516L53.1309 63.585L52.9258 63.4004L52.7822 63.2568L52.6592 62.9902L52.6387 62.8877V62.7031L52.7002 62.457L52.8232 62.2109L52.8438 62.1289V61.8623L52.7617 61.6367L52.6387 61.4932L52.4336 61.3906L52.3721 61.3701H52.085L51.9209 61.4316L51.6133 61.6367L51.4492 61.6982L51.1826 61.7188L50.957 61.6777L50.7109 61.5342L50.5059 61.3496L50.2803 61.165L49.7061 60.6729L49.4805 60.4883L49.1934 60.2422L48.9678 60.0371L48.8242 59.8115L48.7627 59.5859V59.4014L48.8447 59.1348L48.9883 58.9092L49.1729 58.7041L49.1934 58.6631H49.2344L49.2754 58.5811L49.3369 58.499H49.3779L49.4189 58.417L49.6445 58.1504L49.8906 57.8633L50.0752 57.6377L50.2803 57.4121L50.4238 57.248L50.5674 57.125L50.7725 57.043L50.8545 57.0225H51.1416L51.3672 57.1045L51.5928 57.207L51.6953 57.2275H51.9004L52.1055 57.1455L52.2695 57.0225L52.3516 56.8994L52.4131 56.6943V56.5098L52.3516 56.3047L52.1465 55.9971L52.085 55.8535L52.0645 55.751V55.4844L52.1465 55.2383L52.3105 55.0127L52.5566 54.7256L52.7822 54.459L52.9668 54.2334L53.1514 54.0283L53.3359 53.8027L53.377 53.7412H53.418L53.459 53.6592L53.7256 53.3516L53.9512 53.208L54.1768 53.1465ZM54.3203 54.582L54.1357 54.7871L53.9512 55.0127L53.6846 55.3203L53.582 55.4434V55.4844H53.541L53.4385 55.6074L53.459 55.7305L53.582 56.0176L53.6436 56.2637L53.6641 56.4277V56.7559L53.623 57.043L53.5205 57.3506L53.3564 57.6582L53.2129 57.8428L53.1309 57.9453L52.8643 58.1504L52.6592 58.2734L52.3516 58.3965L52.0029 58.4785H51.5723L51.2646 58.417L51.1006 58.376L51.0391 58.4375V58.4785L50.9775 58.499L50.8135 58.7041L50.5674 58.9912L50.3418 59.2578L50.2188 59.4014V59.4834L50.4443 59.668L50.752 59.9346L50.9775 60.1191L51.2441 60.3447L51.3262 60.3242L51.6133 60.2012L51.9824 60.1191H52.4746L52.8232 60.2012L53.0693 60.3037L53.3359 60.4678L53.6025 60.6934L53.8076 60.96L53.9717 61.2881L54.0742 61.6367L54.0947 61.7598V62.2314L54.0332 62.5186L53.9922 62.6621L54.0947 62.7646L54.3203 62.9697L54.5459 63.1543L54.8535 63.4209L55.0586 63.585L55.1611 63.4824L55.4277 63.1748L55.6533 62.9082L55.8994 62.6211L55.9609 62.5391L55.9404 62.4365L55.8174 62.1289L55.7559 61.9033L55.7354 61.7598V61.3291L55.8379 60.8984L56.002 60.5703L56.1455 60.3652L56.3301 60.1602L56.5967 59.9551L56.9248 59.791L57.2119 59.709L57.335 59.6885H57.8682L58.1758 59.75L58.3193 59.7705L58.5449 59.5039L58.791 59.2168L58.9756 58.9912L59.1807 58.7656L59.2012 58.7041L58.9961 58.5195L58.7705 58.335L58.5449 58.1299L58.3193 57.9453L58.0322 57.6992L57.7861 57.4736L57.6631 57.2686L57.6221 57.125V56.7764L57.7246 56.5303L57.8066 56.3457L57.8271 56.1201L57.7861 55.9355L57.6836 55.751L57.5195 55.6074L57.3145 55.5254H57.0273L56.8633 55.5869L56.5557 55.792L56.3916 55.8535L56.125 55.874L55.9199 55.833L55.7148 55.7305L55.4482 55.5049L54.874 55.0127L54.6074 54.7871L54.3613 54.582H54.3203Z" fill="black"/>
</svg>
