<svg width="87" height="87" viewBox="0 0 87 87" fill="none" xmlns="http://www.w3.org/2000/svg">
<circle cx="43.5" cy="43.5" r="43.5" fill="#B7EAFC"/>
<path d="M35.5781 50.1766H36.8867L37.3164 50.1987L37.5117 50.287L37.6875 50.4635L37.8047 50.7284L37.8242 50.8387V50.9932L37.7461 51.236L37.668 51.3684L37.4922 51.545L37.3164 51.6112L36.9453 51.6333H34.8555L34.4844 51.6553L34.1914 51.7436L33.957 51.8981L33.7812 52.0747L33.6445 52.2954L33.4883 52.6264L33.2734 53.134L32.7852 54.2375L32.5703 54.7451L32.3164 55.319L32.1406 55.7383L31.3008 57.6363L31.0859 58.1439L30.4414 59.6005L30.3438 59.8875L30.2852 60.1964V60.4171L30.3633 60.7923L30.5195 61.1234L30.6953 61.3441L30.9297 61.5206L31.2031 61.631L31.2812 61.6531H39.4453L39.6797 61.5648L39.8555 61.4324L39.9141 61.4103V61.3662H39.9531L39.9922 61.2779L40.0898 61.0792L40.1484 60.9027L40.168 60.7703V60.5496L40.1094 60.2847L39.9922 60.0419L39.8555 59.8654L39.6211 59.7109L39.5039 59.6668L39.3672 59.6447L33.9766 59.6226L33.7617 59.5343L33.5664 59.3357L33.4688 59.1371L33.4492 59.0488V58.784L33.5273 58.5412L33.8594 57.8349L34.0547 57.4377L34.3281 56.8639L34.582 56.3342L34.7773 55.9369L35.0508 55.3631L35.207 55.0762L35.3438 54.8996L35.5 54.8113L35.5586 54.7893H35.8711L36.0664 54.8776L36.2227 55.032L36.3203 55.2086L36.3594 55.341V55.6279L36.2617 55.8928L36.0078 56.4445L35.7539 56.9521L35.5 57.5039L35.2461 58.0115L35.168 58.166L39.1328 58.1881L39.543 58.2101L39.8555 58.2763L40.168 58.4088L40.4805 58.6074L40.7344 58.8281L40.9297 59.0488L41.125 59.3578L41.2812 59.6888L41.3984 60.0861L41.457 60.5496L41.4375 61.0351L41.3594 61.4103L41.2617 61.6972H44.7383L44.6211 61.3441L44.543 60.8585V60.4613L44.6016 60.064L44.6992 59.733L44.8359 59.424L45.0508 59.0709L45.1484 58.9384H45.1875V58.8943L45.4023 58.6957L45.6172 58.5191L45.9492 58.3426L46.2812 58.2322L46.5938 58.1881H50.832L50.6758 57.8349L50.3828 57.217L50.1484 56.7314L49.8359 56.0914L49.6797 55.7383L49.6406 55.6059V55.3852L49.7188 55.1424L49.8555 54.9438L49.9922 54.8334L50.207 54.7672H50.3438L50.5391 54.8334L50.7148 54.9658L50.8711 55.1865L51.1836 55.8486L51.4375 56.3563L51.6523 56.8197L51.8867 57.3053L52.1406 57.8129L52.2773 58.1219L52.4922 58.5633L52.5508 58.7398V59.0488L52.4727 59.2695L52.2969 59.4902L52.1406 59.5785L51.8867 59.6226L46.5938 59.6447L46.3594 59.7109L46.1445 59.8654L45.9883 60.064L45.8906 60.2847L45.832 60.5716V60.7482L45.9102 61.0792L46.0469 61.322L46.2227 61.4986L46.4375 61.6089L46.5938 61.6531H54.6797L54.9727 61.5648L55.1875 61.4324L55.3633 61.2779L55.3828 61.2337H55.4219L55.4609 61.1455L55.6172 60.8365L55.6953 60.5496L55.7148 60.3951V60.1964L55.6758 59.9316L55.5781 59.6447L55.3438 59.0929L54.7188 57.6805L54.5039 57.1728L54.0156 56.0693L53.8008 55.5617L53.1953 54.1934L52.9805 53.6858L52.3555 52.2733L52.2188 52.0747L52.082 51.9202L51.8086 51.7436L51.5547 51.6553L51.3984 51.6333L48.6445 51.6112L48.4492 51.5229L48.293 51.3684L48.1953 51.2139L48.1367 51.0153V50.7946L48.1953 50.5739L48.3125 50.3973L48.4883 50.2428L48.5859 50.1987L48.7031 50.1766H51.3398L51.6523 50.1987L52.043 50.287L52.4336 50.4635L52.707 50.6401L52.9609 50.8608L53.2539 51.1919L53.4492 51.5008L53.5859 51.7657L53.8008 52.2733L54.1719 53.112L54.3867 53.6196L54.9922 54.9879L55.207 55.4955L55.7344 56.6873L55.9492 57.1949L56.5156 58.475L56.7305 58.9826L56.8867 59.4019L56.9648 59.733L57.0039 60.0861V60.4613L56.9648 60.8365L56.8477 61.2779L56.7305 61.5648L56.6719 61.6972H61.8477L62.0234 61.7634L62.1992 61.8958L62.3359 62.1165L62.375 62.249V62.58L62.2578 62.8448L62.1016 63.0214L61.8867 63.1097L61.7305 63.1318H24.2109L23.9766 63.0655L23.8594 62.9773L23.7617 62.8669L23.6641 62.7124L23.625 62.58V62.249L23.7031 62.0283L23.8398 61.8517L24.0547 61.7193L24.1328 61.6972L29.3086 61.6751L29.1523 61.2999L29.0352 60.8365L28.9961 60.5496V60.0419L29.0547 59.6668L29.1523 59.3136L29.2891 58.9384L29.8555 57.6584L30.0508 57.1949L30.6367 55.8707L30.8516 55.3631L31.3789 54.1713L31.5547 53.752L32.1211 52.4719L32.3359 51.9643L32.5312 51.545L32.7266 51.236L32.9023 51.0153L33.0586 50.8387L33.332 50.618L33.6445 50.4194L34.0547 50.2649L34.3867 50.1987L35.5781 50.1766Z" fill="black"/>
<path d="M48.1758 25.2374H49.0547L49.5234 25.2816L50.0703 25.3698L50.5586 25.4802L51.1055 25.6568L51.5938 25.8554L52.1602 26.1423L52.5117 26.363L52.8242 26.5837L53.1953 26.8927L53.4688 27.1575L53.7422 27.4444L53.8789 27.621L54.0742 27.8858L54.3867 28.4155L54.543 28.7686L54.6992 29.188L54.8164 29.6956L54.875 30.137V30.7549L54.8359 31.1301L54.7188 31.6819L54.5625 32.1454L54.3477 32.6088L54.1523 32.9399L53.9961 33.1606L53.8789 33.3151V33.4916L54.25 35.2352L54.3867 35.8752V36.2062L54.3086 36.4269L54.1523 36.6256L53.957 36.7359L53.8008 36.7801L53.6055 36.758L53.4102 36.6697L52.9414 36.3387L52.5703 36.0738L52.1211 35.7648L51.3398 35.2131L51.1641 35.2572L50.6758 35.4117L50.1484 35.5441L49.4453 35.6545L48.957 35.6986H48.2148L47.5703 35.6324L46.9844 35.5221L46.4961 35.3897L46.0273 35.2352L45.6562 35.0807L45.1289 34.8158L44.7578 34.5951L44.3867 34.3303L44.0156 34.0213L43.8203 33.8227L43.6641 33.6682L43.3906 33.3592L43.2148 33.1164L43.0195 32.8295L42.7852 32.3881L42.5898 31.9247L42.4727 31.5053L42.3945 31.1301L42.3555 30.777V30.1811L42.4336 29.5852L42.5508 29.1438L42.707 28.7245L42.8828 28.3493L43.0391 28.0845L43.2734 27.7313L43.4883 27.4665L43.5078 27.4224H43.5469L43.5859 27.3341H43.625V27.2899L43.7812 27.1355L43.9766 26.9368L44.3477 26.6278L44.7188 26.363L45.1875 26.0761L45.7344 25.8112L46.3203 25.5905L46.8477 25.4361L47.3945 25.3257L47.8828 25.2595L48.1758 25.2374ZM48.1367 26.6941L47.5703 26.7603L47.043 26.8706L46.5352 27.0251L46.1445 27.1796L45.6953 27.4003L45.3047 27.6431L45.0117 27.8638L44.7383 28.1065L44.5039 28.3493L44.3281 28.5479L44.0742 28.9231L43.8594 29.3425L43.7031 29.828L43.6445 30.2473V30.7329L43.7031 31.1301L43.8008 31.4612L43.957 31.8143L44.0938 32.0791L44.2891 32.3661L44.5234 32.653L44.6797 32.8075L44.9727 33.0723L45.3047 33.3151L45.7344 33.5799L46.1445 33.7785L46.7305 33.9992L47.2383 34.1317L47.7266 34.2199L48.1172 34.2641L48.7617 34.2861L49.3672 34.242L50.0117 34.1317L50.5 33.9992L50.8711 33.8668L51.2227 33.7344L51.3008 33.7123H51.5352L51.7305 33.8006L52.1992 34.1317L52.707 34.4848L52.7656 34.5069L52.7461 34.2861L52.5508 33.3592L52.5312 33.0944L52.5703 32.8957L52.6875 32.6971L53.0391 32.2557L53.2539 31.9026L53.4492 31.4833L53.5664 31.0419L53.6055 30.7991L53.625 30.4018L53.5859 30.0046L53.5078 29.6735L53.4102 29.3866L53.2148 28.9673L53.0195 28.6583L52.7266 28.3052L52.4922 28.0624L52.1406 27.7755L51.8477 27.5769L51.3984 27.312L50.9492 27.1134L50.5195 26.9589L50.1094 26.8485L49.5234 26.7382L49.0938 26.6941H48.1367Z" fill="black"/>
<path d="M29.3477 37.376H30.3633L30.9883 37.4422L31.5547 37.5525L32.043 37.685L32.4922 37.8394L32.9023 38.016L33.2539 38.1926L33.7812 38.5015L34.25 38.8547L34.5234 39.0974L34.7969 39.3623L35.1094 39.7154L35.2852 39.9582L35.5 40.2892L35.6953 40.6644L35.8516 41.0175L35.9883 41.4369L36.0859 41.9003L36.125 42.2314V43.0038L36.0664 43.4011L35.9688 43.8204L35.8516 44.1736L35.6758 44.5929L35.4414 45.0122L35.2266 45.3212L35.0508 45.5419L34.9141 45.7185L34.6406 46.0054L34.3672 46.2481L34.0156 46.535L33.5078 46.8661L33.0195 47.1309L32.5508 47.3296L32.1992 47.462L31.5742 47.6386L31.0078 47.7489L30.4414 47.8151L30.0508 47.8372H29.6797L29.0156 47.793L28.3516 47.6827L27.8242 47.5503L27.1992 47.3516L27.1211 47.3737L26.6719 47.6827L26.2031 48.0137L25.8125 48.2786L25.4414 48.5434L25.0508 48.8083L24.8555 48.8965H24.6406L24.4453 48.8303L24.2891 48.6979L24.1719 48.5214L24.0938 48.3007V48.102L24.2109 47.5061L24.5234 46.0495L24.6211 45.564V45.4536L24.4648 45.255L24.25 44.9239L24.0742 44.5929L23.918 44.2398L23.8008 43.9087L23.6836 43.4452L23.625 43.0259L23.6055 42.739V42.4521L23.6445 42.0107L23.7422 41.5031L23.8984 41.0175L24.0547 40.6644L24.2109 40.3554L24.4062 40.0465L24.582 39.8037L24.7969 39.5388L25.0508 39.2519L25.2656 39.0533L25.5195 38.8326L25.8711 38.5678L26.1641 38.3691L26.4766 38.1926L27.0234 37.9277L27.5703 37.7291L28.0977 37.5746L28.7617 37.4422L29.3477 37.376ZM29.4453 38.8105L28.8398 38.8767L28.293 38.9871L27.7266 39.1637L27.3945 39.2961L27.0625 39.4506L26.6914 39.6713L26.3398 39.914L26.1055 40.1127L25.8906 40.3113L25.7539 40.4437L25.6172 40.6203L25.4609 40.8189L25.2852 41.1058L25.1094 41.4589L24.9922 41.79L24.9141 42.1431L24.875 42.4962L24.8945 42.8935L24.9727 43.3349L25.0898 43.688L25.2656 44.0632L25.5 44.4163L25.7344 44.7032L25.8906 44.9239L25.9688 45.1667V45.3433L25.8711 45.895L25.7148 46.6233L25.793 46.6013L26.1836 46.3364L26.5547 46.0716L26.8281 45.895L26.9844 45.8288H27.2188L27.5312 45.9392L27.9414 46.0936L28.4102 46.2261L28.8594 46.3143L29.4648 46.3806H30.3047L30.8906 46.3143L31.3398 46.2261L31.8867 46.0716L32.3945 45.8729L32.7461 45.6964L33.1953 45.4315L33.4883 45.2108L33.8008 44.946L34.0547 44.6812V44.637H34.0938L34.2305 44.4605L34.4258 44.1736L34.6016 43.8425L34.7578 43.4232L34.8359 43.0701L34.875 42.6949L34.8555 42.2535L34.7773 41.8341L34.6211 41.3927L34.4648 41.0837L34.2695 40.7748L34.0547 40.5099L33.8594 40.2892L33.5859 40.0465L33.332 39.8478L32.9609 39.6051L32.4727 39.3402L31.9844 39.1416L31.4766 38.9871L30.9492 38.8767L30.4023 38.8105H29.4453Z" fill="black"/>
<path d="M55.6758 38.1042L56.2617 38.1263L56.8672 38.1925L57.5312 38.3249L58.1172 38.5015L58.6836 38.7222L59.2891 39.0312L59.7383 39.3181L60.0312 39.5388L60.2656 39.7374L60.4609 39.914L60.6562 40.1126L61.0078 40.5099L61.2227 40.8189L61.457 41.2161L61.6328 41.5692L61.7891 41.9886L61.9062 42.4079L61.9844 42.9376V43.7542L61.9062 44.2839L61.7891 44.7253L61.6133 45.1887L61.3984 45.6081L61.2227 45.895L61.0469 46.1377L60.9883 46.226L61.0078 46.4247L61.3008 47.8151L61.4961 48.7199L61.5156 48.8524V49.051L61.4375 49.2938L61.2617 49.5145L61.1055 49.6027L60.8516 49.669L60.5977 49.5807L60.2852 49.382L59.8555 49.0731L59.4062 48.7641L58.9375 48.433L58.5078 48.1241L58.3711 48.102L57.9219 48.2565L57.4141 48.3889L56.8477 48.4992L56.2812 48.5655L55.9492 48.5875H55.5L54.9336 48.5434L54.4453 48.4772L53.7812 48.3227L53.293 48.1682L52.7852 47.9696L52.2578 47.7047L51.8281 47.4399L51.457 47.175L51.2031 46.9543L50.9883 46.7557L50.7539 46.5129L50.5 46.226L50.3242 45.9833L50.1094 45.6522L49.9531 45.3653L49.7969 45.0122L49.6797 44.7032L49.5625 44.2618L49.4844 43.7763L49.4648 43.4893V43.2466L49.5039 42.761L49.582 42.3417L49.7188 41.8782L49.8555 41.5472L50.0312 41.172L50.2266 40.863L50.4219 40.5761L50.6562 40.2892L50.9297 39.9802L51.2031 39.7374L51.457 39.5167L51.8281 39.2519L52.2578 38.9871L52.6875 38.7663L53.3516 38.5015L53.957 38.3249L54.4844 38.2146L54.9531 38.1484L55.6758 38.1042ZM55.6172 39.5609L55.168 39.5829L54.6602 39.6492L54.2109 39.7374L53.7031 39.8919L53.293 40.0464L52.7656 40.3113L52.4141 40.532L52.1211 40.7527L51.8477 40.9954L51.75 41.0837V41.1278L51.6719 41.172L51.5156 41.3485V41.3927L51.457 41.4148L51.2031 41.7899L51.0469 42.0769L50.8906 42.4741L50.8125 42.761L50.7734 43.0259L50.7539 43.2686V43.5114L50.8125 43.9749L50.9297 44.3721L51.0859 44.7253L51.2227 44.968L51.3984 45.2329L51.6914 45.586L51.9453 45.8288L52.2188 46.0495L52.5703 46.2922L52.9023 46.4909L53.4297 46.7336L54.0156 46.9323L54.6211 47.0647L55.0898 47.1309L55.3047 47.153H56.2031L56.8867 47.0647L57.4531 46.9323L57.9805 46.7557L58.3906 46.6012L58.5859 46.5792L58.7812 46.6454L59.1133 46.8661L59.4844 47.1309L59.7969 47.3516L59.8945 47.3957L59.875 47.2192L59.6602 46.1819V45.8729L59.8164 45.5198L59.875 45.4977L60.0117 45.3212L60.2266 45.0342L60.4414 44.6591L60.5977 44.2618L60.6758 43.9749L60.7148 43.7763L60.7344 43.5776V43.1362L60.6758 42.739L60.5586 42.3417L60.4023 41.9886L60.2266 41.6796L60.0703 41.4589L59.8164 41.1499L59.6602 40.9954L59.4062 40.7747L59.1133 40.554L58.7617 40.3333L58.3906 40.1347L57.9219 39.9361L57.4336 39.7816L56.9453 39.6712L56.5352 39.605L56.3008 39.5829L55.6172 39.5609Z" fill="black"/>
<path d="M34.0938 21.6843H34.582L35.1875 21.7285L35.7734 21.8167L36.3398 21.9492L36.8867 22.1257L37.375 22.3244L37.7656 22.523L38.1562 22.7437L38.5273 23.0085L38.8008 23.2292L39.0742 23.472L39.3281 23.7368L39.6406 24.09L39.8555 24.3989L40.0312 24.6859L40.2266 25.061L40.4023 25.5024L40.5195 25.9218L40.5977 26.3632L40.6367 26.7825V27.0915L40.5781 27.6432L40.4805 28.0846L40.3242 28.5481L40.168 28.9012L40.0312 29.1661L39.8945 29.3868L39.6797 29.6958L39.4453 29.9827L39.1914 30.2696L38.918 30.5123L38.6641 30.733L38.293 30.9979L37.8633 31.2627L37.4922 31.4614L36.9062 31.7041L36.4375 31.8586L35.9102 31.991L35.2656 32.1014L34.8164 32.1455H33.8984L33.2734 32.0793L32.6875 31.969L32.1992 31.8366L31.7305 31.6821L31.5938 31.7041L31.125 32.0352L29.6016 33.0945L29.4453 33.1828L29.3086 33.227L29.0547 33.2049L28.8594 33.0945L28.7031 32.918L28.6055 32.6973L28.5859 32.5869V32.4104L28.8008 31.3731L29.0352 30.2696L29.1133 29.9165V29.784L28.9375 29.5413L28.6836 29.144L28.4883 28.7467L28.3125 28.3053L28.1953 27.8419L28.1172 27.3563L28.0977 27.0915V26.7163L28.1562 26.2087L28.2734 25.679L28.4492 25.1935L28.625 24.8183L28.8203 24.4872L29.0156 24.2003L29.2305 23.9355L29.25 23.8913H29.2891L29.3281 23.8031L29.582 23.5382L29.8555 23.2954L30.1094 23.0747L30.5195 22.7878L30.832 22.5892L31.3008 22.3464L31.9648 22.0816L32.6484 21.883L33.0781 21.7947L33.5273 21.7285L34.0938 21.6843ZM34.2109 23.1189L33.5859 23.163L33.0586 23.2513L32.6094 23.3617L32.1406 23.5161L31.7305 23.6927L31.4375 23.8472L31.0664 24.0679L30.7148 24.3327L30.4414 24.5755L30.1875 24.8403L30.0508 25.0169L29.9531 25.1493L29.7578 25.4583L29.5625 25.8776L29.4453 26.2749L29.3867 26.6059V27.2239L29.4453 27.577L29.5625 27.9522L29.7188 28.3053L29.9336 28.6585L30.1875 28.9895L30.3242 29.144L30.4219 29.3426L30.4609 29.453V29.7178L30.2461 30.7551L30.207 30.9537L30.3047 30.9096L30.6953 30.6448L31.125 30.3358L31.4375 30.1592L31.4961 30.1372H31.6719L31.9844 30.2475L32.4531 30.4241L33.0391 30.5786L33.5859 30.6668L34.1328 30.711H34.582L34.9727 30.6889L35.4609 30.6227L35.9883 30.5123L36.4766 30.3579L36.8672 30.2034L37.2383 30.0268L37.668 29.762L37.9805 29.5413L38.2539 29.2985L38.4492 29.0999L38.7227 28.7909L38.9375 28.4598L39.0938 28.1509L39.1914 27.9302L39.3086 27.5329L39.3477 27.2901L39.3672 27.0473V26.8266L39.3281 26.4294L39.25 26.0983L39.1328 25.7673L38.9766 25.4362L38.7812 25.1273L38.6055 24.9066L38.4688 24.73L38.3125 24.5755L38.0391 24.3327L37.7461 24.112L37.3945 23.8913L36.9844 23.6706L36.5742 23.4941L36.0859 23.3396L35.5977 23.2292L35.168 23.163L34.6211 23.1189H34.2109Z" fill="black"/>
<path d="M42.5312 42.2534H43.4297L43.8789 42.3196L44.3281 42.43L44.7969 42.6065L45.168 42.7831L45.5977 43.0479L45.9102 43.2907L46.2422 43.5776L46.5742 43.9307L46.75 44.1294L46.9258 44.3721L47.1211 44.6591L47.2969 44.968L47.4531 45.277L47.6094 45.6301L47.7656 46.0715L47.9219 46.6895L48 47.2192L48.0391 47.7489V48.1461L47.9805 48.8303L47.8828 49.36L47.7656 49.8014L47.6484 50.1324L47.5117 50.4635L47.4141 50.6842L47.1992 51.0814L46.9648 51.4346L46.7891 51.6773L46.5156 52.0084L46.2617 52.2732L45.9297 52.5601L45.6367 52.7808L45.2266 53.0457L44.8164 53.2443L44.4062 53.3988L43.918 53.5312L43.332 53.6195H42.6484L42.1797 53.5533L41.7109 53.4429L41.2812 53.2884L40.8125 53.0677L40.4219 52.825L40.0703 52.5601L39.8164 52.3394L39.582 52.0967L39.4258 51.9422L39.1914 51.6553L38.9375 51.3021L38.7617 51.0152L38.5859 50.6842L38.4297 50.3531L38.2344 49.8014L38.0977 49.2938L38 48.6979L37.9609 48.3006V47.5723L38.0195 46.9985L38.1172 46.5129L38.1953 46.1819L38.3516 45.7184L38.5664 45.2108L38.8594 44.6811L39.0156 44.4604L39.1523 44.2618L39.3281 44.019H39.3672L39.4062 43.9307L39.7188 43.5997L39.9727 43.379L40.2852 43.1362L40.6758 42.8714L41.0859 42.6507L41.4766 42.4962L41.9258 42.3638L42.375 42.2755L42.5312 42.2534ZM42.6289 43.688L42.1602 43.7763L41.6914 43.9307L41.3789 44.0852L41.1445 44.2177L40.8711 44.4163L40.6367 44.6149L40.4414 44.8135L40.1289 45.1667L39.8555 45.586L39.6797 45.917L39.5039 46.3364L39.3477 46.8661L39.25 47.4399L39.2305 47.7709V48.1241L39.2695 48.5655L39.3672 49.0951L39.5039 49.5365L39.7188 50.0441L39.8945 50.3531L40.0898 50.64L40.3047 50.9049L40.5391 51.1697L40.793 51.3904L41.1055 51.6111L41.5156 51.8539L41.8867 52.0084L42.3945 52.1408L42.7266 52.1849H43.2734L43.8008 52.0967L44.2695 51.9422L44.6797 51.7435L44.9922 51.5449L45.2461 51.3463L45.4414 51.1697L45.6953 50.9049L45.9297 50.618L46.1836 50.2207L46.418 49.7352L46.5742 49.2938L46.6914 48.7862L46.75 48.3668L46.7695 47.9034L46.75 47.5282L46.6914 47.0647L46.5547 46.535L46.457 46.2481L46.2812 45.8288L46.0664 45.4536L45.8516 45.1446L45.6172 44.8577L45.3438 44.5928L45.0117 44.328L44.6602 44.1073L44.3477 43.9528L43.9961 43.8204L43.6445 43.7321L43.3516 43.688H42.6289Z" fill="black"/>
<path d="M45.9297 29.7618H46.2031L46.3789 29.8502L46.5352 29.9827L46.6328 30.1373L46.6914 30.336V30.6231L46.6133 30.8439L46.4375 31.0648L46.2812 31.1531L46.125 31.1973H45.9883L45.7734 31.131L45.5977 30.9764L45.4805 30.7777L45.4219 30.5789V30.3802L45.4805 30.1593L45.5977 29.9606L45.8125 29.806L45.9297 29.7618Z" fill="black"/>
<path d="M51.0469 29.7618H51.3203L51.5156 29.8502L51.7109 30.0489L51.8086 30.2698L51.8281 30.5568L51.7695 30.7777L51.6523 30.9764L51.4961 31.1089L51.3398 31.1752L51.2617 31.1973H51.1055L50.9102 31.131L50.7539 30.9985L50.6367 30.8439L50.5586 30.6452V30.3139L50.6367 30.0931L50.793 29.8943L50.9883 29.7839L51.0469 29.7618Z" fill="black"/>
<path d="M32.375 41.8783H32.5117L32.707 41.9445L32.8828 42.077L33.0195 42.2979L33.0586 42.4083L33.0781 42.6954L33.0195 42.9162L32.9023 43.0929L32.7656 43.2254L32.5703 43.3137H32.2969L32.1016 43.2254L31.9453 43.0708L31.8086 42.7616V42.4525L31.8867 42.2316L31.9844 42.077L32.1992 41.9225L32.375 41.8783Z" fill="black"/>
<path d="M53.0977 42.6287H53.2539L53.4102 42.6728L53.5859 42.7832L53.7227 42.9599L53.8008 43.1587L53.8203 43.2691V43.4457L53.7422 43.6887L53.625 43.8653L53.4688 43.9978L53.2734 44.0641H53.0586L52.8633 43.9758L52.707 43.8432L52.6094 43.6887L52.5508 43.512L52.5312 43.3353L52.5703 43.1145L52.6875 42.8716L52.8633 42.717L53 42.6507L53.0977 42.6287Z" fill="black"/>
<path d="M27.2578 41.8783L27.4922 41.9004L27.6875 42.0108L27.8242 42.1654L27.9219 42.3641L27.9414 42.4525V42.7395L27.9023 42.872L27.7852 43.0929L27.6289 43.2254L27.4336 43.3137H27.1797L26.9844 43.2254L26.8281 43.0708L26.7305 42.8941L26.6719 42.7175V42.4966L26.7305 42.2758L26.8477 42.0991L27.0234 41.9445L27.2578 41.8783Z" fill="black"/>
<path d="M58.2344 42.6287H58.3906L58.5859 42.6949L58.7422 42.8274L58.8594 42.982L58.9375 43.2028V43.4899L58.8594 43.7328L58.7422 43.8874L58.5469 44.0199L58.3906 44.0641H58.1758L57.9414 43.9537L57.7852 43.777L57.6875 43.5341L57.668 43.4457V43.247L57.7461 42.982L57.9219 42.7612L58.1172 42.6507L58.2344 42.6287Z" fill="black"/>
<path d="M31.6914 26.2085H31.9258L32.1211 26.2968L32.2773 26.4293L32.3945 26.6281L32.4336 26.7606V27.0918L32.3164 27.3568L32.2188 27.4673L32.082 27.5777L31.9648 27.6218L31.7305 27.6439L31.5156 27.5777L31.3398 27.4231L31.2227 27.2243L31.1641 27.0035V26.8268L31.2422 26.5618L31.418 26.341L31.5938 26.2306L31.6914 26.2085Z" fill="black"/>
<path d="M36.8086 26.2085H37.043L37.2578 26.2968L37.4531 26.4956L37.5312 26.6722L37.5703 26.8268V27.0035L37.5117 27.2243L37.3945 27.4231L37.2383 27.5556L37.082 27.6218L36.8672 27.6439L36.6523 27.5777L36.5352 27.4893L36.3789 27.2906L36.3008 27.0918V26.7606L36.3789 26.5397L36.5156 26.3631L36.6719 26.2527L36.8086 26.2085Z" fill="black"/>
<path d="M34.25 26.2085H34.4844L34.6992 26.2968L34.8555 26.4514L34.9727 26.6722L35.0117 26.871L34.9922 27.0918L34.9336 27.2685L34.8164 27.4452L34.6016 27.5998L34.3086 27.6439L34.1328 27.5998L33.9766 27.4893L33.8789 27.3789L33.7812 27.2022L33.7422 27.0918L33.7227 26.8489L33.7812 26.6281L33.8984 26.4293L34.0742 26.2747L34.25 26.2085Z" fill="black"/>
<path d="M55.6758 42.6287L55.9297 42.6507L56.125 42.7612L56.2812 42.9599L56.3594 43.1366L56.3789 43.247V43.4457L56.3203 43.6666L56.2031 43.8432L56.0664 43.9758L55.9297 44.042L55.8125 44.0641H55.6172L55.3828 43.9537L55.2266 43.777L55.1289 43.5562L55.1094 43.4899V43.2249L55.1875 42.982L55.3633 42.7612L55.5586 42.6507L55.6758 42.6287Z" fill="black"/>
<path d="M29.8164 41.8783L30.0508 41.9004L30.2461 42.0108L30.4023 42.1875L30.5 42.4304V42.7837L30.4023 43.0045L30.2852 43.1591L30.1094 43.2696L29.9922 43.3137H29.7383L29.543 43.2254L29.3672 43.0487L29.25 42.7837V42.4304L29.3281 42.2095L29.4453 42.055L29.6406 41.9225L29.8164 41.8783Z" fill="black"/>
<path d="M48.4883 29.7618H48.7422L48.957 29.8502L49.1328 30.0268L49.2305 30.2477L49.25 30.3139V30.6452L49.1328 30.9102L49.0352 31.0206L48.8984 31.131L48.6836 31.1973L48.4492 31.1752L48.2539 31.0648L48.1562 30.9543L48.0391 30.7777L48 30.6452V30.3139L48.0781 30.0931L48.2344 29.8943L48.4297 29.7839L48.4883 29.7618Z" fill="black"/>
</svg>
