<svg width="87" height="87" viewBox="0 0 87 87" fill="none" xmlns="http://www.w3.org/2000/svg">
<circle cx="43.5" cy="43.5" r="43.5" fill="#B7EAFC"/>
<g clip-path="url(#clip0_151_415)">
<path d="M27.7832 23H29.3828V23.0205L30.1211 23.1641L30.6133 23.3076L31.0645 23.4717L31.5156 23.6768L31.8848 23.8818L32.2129 24.0869L32.6025 24.374L32.8691 24.5996L33.0332 24.7432L33.4844 25.1943L33.6689 25.4199L33.9355 25.7686L34.1406 26.0762L34.3457 26.4248L34.4893 26.6914L34.5713 26.6709L34.7559 26.5068L35.125 26.2402L35.5146 25.9941L36.0684 25.707L36.5605 25.502L36.8682 25.3994L37.3193 25.2764L37.8936 25.1738L38.5293 25.1123H39.0625L39.5957 25.1533L40.2109 25.2559L40.7646 25.3994L41.3184 25.6045L41.8105 25.8301L42.1797 26.0352L42.6719 26.3633L42.959 26.5889L43.2461 26.835L43.5127 27.0811L43.6562 27.2451L43.8613 27.4707L44.0869 27.7578L44.333 28.1064L44.5176 28.4141L44.7637 28.8857L44.9688 29.3574L45.1328 29.8496L45.2559 30.3418L45.3379 30.8135L45.3789 31.2236V32.3926L46.0967 32.4746L46.6914 32.5771L47.3887 32.7412L47.6963 32.8438L47.9219 32.9873L48.0449 33.1719L48.0859 33.2949V33.5615L47.9629 33.8076L47.8809 33.9102L47.6348 34.0332L47.5527 34.0537H47.3682L46.4658 33.8281L45.8506 33.7256L45.2764 33.6641L44.8662 33.6436H44.3945L43.7998 33.6846L43.2256 33.7666L42.6719 33.8896L42.1387 34.0537L41.585 34.2793L41.1748 34.4844L40.7031 34.7715L40.375 35.0176L40.1084 35.2432L39.9033 35.4072L39.9238 35.7354L40.1084 37.5605L40.1289 37.7451L40.2109 37.7861L40.498 38.0527L40.5391 38.0732V38.1143L40.6211 38.1553L40.8877 38.3809L41.2979 38.6885L41.667 38.9346L42.0156 39.1396L42.4463 39.3652L43 39.5908L43.4512 39.7344L44.0254 39.8574L44.6816 39.9395L45.2969 39.9805L46.5273 40.042L47.1631 40.1035L47.7168 40.2061L48.25 40.3701L48.6191 40.5342L48.9678 40.7188L49.3369 40.9648L49.6855 41.2314L49.9316 41.457L50.0957 41.6006L50.3008 41.8262L50.5674 42.1748L50.7314 42.4414L50.8955 42.7695L51.0391 43.1387L51.0596 43.2617L51.1416 43.1797L51.3262 42.8311L51.4902 42.4004L51.6133 41.8877L51.6748 41.4775L51.6953 41.2314V40.3086L51.6133 39.5703L51.4697 38.873L51.2646 38.1963L51.0391 37.6221L50.793 37.1094L50.5674 36.6992L50.3623 36.3916L50.1572 36.1045L49.9727 35.8789L49.7881 35.6738V35.6328H49.7471L49.6035 35.4688L49.4395 35.3047L49.3164 35.0996L49.2959 35.0176V34.7715L49.3779 34.5664L49.5215 34.4023L49.6855 34.2998L49.8701 34.2588L50.0752 34.2793L50.2803 34.3818L50.4854 34.5664L50.7109 34.792L50.8545 34.9561L51.0801 35.2227L51.3262 35.5508L51.6133 35.9814L51.7979 36.2891L51.9414 36.5352L52.167 37.0068L52.3721 37.499L52.5361 37.9707L52.6797 38.4629L52.8027 38.9961L52.8643 39.3242V39.4473L53.0898 39.3242L53.418 39.1396L53.8896 38.9141L54.3818 38.7295L54.8945 38.5859L55.4072 38.4834L55.8994 38.4219L56.2275 38.4014H56.6992L57.2324 38.4424L57.8477 38.5449L58.4014 38.6885L58.9551 38.8936L59.4473 39.1191L59.8164 39.3242L60.2471 39.6113L60.4932 39.7959L60.7188 39.9805L60.9648 40.2061L61.375 40.6162L61.5596 40.8418L61.7852 41.1289L62.0312 41.498L62.2363 41.8467L62.4619 42.2979L62.6875 42.8721L62.8516 43.4463L62.9541 43.9795L63.0156 44.4922V45.4766L62.9336 46.1123L62.8105 46.6865L62.6465 47.1992L62.4414 47.7119L62.2773 48.0605L62.0928 48.3682L61.8262 48.7783L61.6211 49.0449L61.5801 49.0859L61.6006 49.168L61.8262 49.3525L61.9902 49.5166L62.0723 49.5781V49.6191L62.1543 49.6602V49.7012H62.1953L62.3389 49.8652L62.5234 50.0703L62.8311 50.4805L63.0361 50.7881L63.1592 51.0342L63.1797 51.0957V51.4033L63.0771 51.6084L62.9951 51.7109L62.79 51.834L62.7285 51.8545H62.4004L62.1953 51.752L62.0518 51.6084L61.7852 51.1982L61.6006 50.9521L61.3545 50.665L60.9443 50.2549L60.6572 50.0293L60.3701 49.8242L60.0625 49.6396L59.6729 49.4346L59.1602 49.2295L58.668 49.0859L58.2578 49.0039L57.8887 48.9629L57.54 48.9424H57.2529L56.7402 48.9834L56.2686 49.0654L55.7559 49.209L55.3252 49.373L54.9766 49.5371L54.5254 49.8037L54.2383 50.0088L53.9717 50.2344L53.7256 50.46L53.5205 50.665L53.377 50.8291L53.1309 51.1367L52.9873 51.3623L52.7822 51.6904L52.5566 52.1621L52.3926 52.5928L52.29 52.9414L52.1875 53.4541L52.1465 53.8232L52.126 54.1309V54.4385L52.1875 55.0537L52.3105 55.6484L52.4336 56.0381L52.5156 56.2432V56.2842L52.7207 56.3457L53.1309 56.5098L53.5615 56.7148L53.9717 56.9609L54.2588 57.166L54.5459 57.3916L54.7715 57.5967L54.9355 57.7402L55.2432 58.0684L55.4688 58.3555L55.6738 58.6426L55.8789 58.9707L56.043 59.2578L56.1045 59.3809L56.4121 59.4629L56.8633 59.5244L57.0889 59.5449H57.8271L58.3193 59.4834L58.873 59.3604L59.3652 59.1963L59.8574 58.9707L60.2266 58.7656L60.6162 58.499L60.9443 58.2324L61.0879 58.0889L61.252 57.9453L61.4365 57.7402L61.5801 57.5762L61.8672 57.1865L62.0928 56.7969L62.2568 56.4688L62.4209 56.0791L62.585 55.5459L62.6875 55.0127L62.7285 54.6436L62.749 53.9053L62.8105 53.7002L62.9336 53.5361L63.0977 53.4131L63.3027 53.3516H63.4463L63.6514 53.4131L63.7744 53.4951L63.918 53.6592L64 53.7822V55.0332H63.959L63.9385 55.2588L63.8359 55.7715L63.7129 56.2432L63.5078 56.7969L63.3438 57.166L63.2207 57.3916L63.0771 57.6377L62.8516 57.9863L62.6055 58.3145L62.3799 58.5811L62.1953 58.7861L61.8057 59.1758L61.5186 59.4014L61.252 59.6064L60.8828 59.8525L60.4111 60.1191L60.0215 60.3037L59.4678 60.5088L59.0371 60.6318L58.4014 60.7549L58.0938 60.7959L57.8271 60.8164H57.0068L56.5762 60.7959L57.0273 63.3184L57.1914 64.2412V64.5283L57.0889 64.7334L56.9658 64.877L56.7607 65H56.3916L56.1865 64.877L56.043 64.7334L55.9609 64.5488L55.8584 64.0156L55.3867 61.3701L55.2637 60.7754L55.0791 60.2217L54.874 59.7705L54.6279 59.3604L54.4229 59.0732L54.2383 58.8477L53.9922 58.5811L53.8281 58.4375L53.5205 58.1914L53.2129 57.9863L52.8848 57.8018L52.4951 57.6172L52.1465 57.4941L51.6338 57.3301L49.8496 56.7969H49.6855L49.6445 56.9814L49.5215 58.1914L49.3984 59.0938L49.2139 60.1807L49.0908 60.7344L48.6191 62.457L48.4346 63.0518L48.209 63.6465L47.9219 64.3027L47.7168 64.6924L47.6143 64.8359L47.4707 64.9385L47.3477 65H46.958V64.959L46.835 64.918L46.6709 64.7744L46.5479 64.5283L46.5273 64.3438L46.6094 64.0771L46.917 63.4414L47.1836 62.7646L47.3271 62.334L47.7373 60.8574L47.8809 60.3242L48.0654 59.3604L48.209 58.417L48.332 57.3711L48.3525 57.3096L48.127 57.248L47.4297 57.043L47.3066 57.5557L47.1836 57.8838L47.0605 58.1299L46.876 58.417L46.7119 58.6221L46.6709 58.6836H46.6299L46.5889 58.7656L46.3428 59.0117L46.1172 59.1963L45.9121 59.3398L45.584 59.5449L45.1533 59.75L44.5996 59.9346L44.0254 60.0576L43.5127 60.1191H42.5078L41.8926 60.0371L41.3799 59.9141L40.9697 59.7705L40.6416 59.627L40.334 59.4629L40.0879 59.2988L39.8008 59.0732L39.3291 58.6016L39.1035 58.2939L38.9189 57.9658L38.7754 57.6172L38.6523 57.1455V57.043L37.791 57.3096H37.7295L37.873 58.3145L38.0166 59.1348V59.4219L37.8936 59.668L37.7295 59.8115L37.5244 59.8936H37.2578L37.0527 59.8115L36.8887 59.6475L36.7861 59.4424L36.6426 58.7246L36.499 57.7607L36.417 56.9609L36.376 56.7969H36.2324L35.4531 57.0225L34.0996 57.4326L33.6689 57.5762L33.3408 57.7197L32.9922 57.9043L32.6846 58.1094L32.4385 58.2939L32.1514 58.54L31.8848 58.7861L31.6387 59.0732L31.4541 59.3398L31.249 59.668L31.085 59.9961L30.9209 60.3857L30.7979 60.7754L30.6953 61.2676L30.5518 62.0469L30.2646 63.6875L30.1211 64.4873L30.0186 64.7334L29.8955 64.877L29.6904 65H29.3008L29.0752 64.8564L28.9111 64.6309L28.8701 64.5078V64.2617L29.0752 63.0928L29.3623 61.4727L29.4854 60.8164L29.6084 60.3037L29.793 59.7705L29.957 59.4014L30.2031 58.9297L30.3877 58.6426L30.6543 58.2734L30.8389 58.0684L30.9824 57.9043L31.1055 57.7607H31.1465V57.7197L31.3105 57.5762L31.5977 57.3301L31.9258 57.084L32.2334 56.8789L32.6641 56.6328L33.0537 56.4482L33.5664 56.2637L34.5713 55.9561L35.8018 55.5869L36.0684 55.5254L36.3555 55.5049L36.6426 55.5459L36.9092 55.6484L37.1348 55.792L37.3398 55.9766L37.4219 56.0791L37.6064 56.0381L38.5498 55.751L38.6729 55.71L38.6934 55.6689L38.8574 54.2334L38.9189 53.6797L38.6113 53.4131L38.2012 53.0439L37.5039 52.3467L37.3604 52.1826L37.1143 51.8955L36.8887 51.6289L36.6221 51.2803L36.3145 50.8701L36.0889 50.542L35.8428 50.1523L35.6377 49.7832L35.4531 49.4346V50.5625L35.4121 50.9727L35.3096 51.5264L35.166 52.0596L34.9609 52.6133L34.7969 52.9824L34.5303 53.4541L34.3047 53.8027L34.0586 54.1309L33.874 54.3564L33.6895 54.5615L33.2588 54.9922L32.6846 55.4434L32.2744 55.71L31.7822 55.9766L31.3311 56.1816L30.7158 56.3867L30.2236 56.5098L29.7314 56.5918L29.3008 56.6328H28.46L28.0088 56.5918L27.4551 56.4893L26.9834 56.3662L26.5732 56.2227L26.1631 56.0586L25.7529 55.8535L25.4043 55.6484L25.0146 55.3818L24.7275 55.1562L24.5225 54.9717L24.3584 54.8281L24.0098 54.4795L23.8252 54.2539L23.6201 54.0078L23.3125 53.5566L23.1074 53.208L22.8613 52.7158L22.6768 52.2441L22.5127 51.7109L22.3896 51.1162L22.3281 50.624L22.3076 50.3164V49.8242L22.3486 49.3115L22.4512 48.6963L22.5742 48.2041L22.7793 47.6094L22.9229 47.2812L23.1279 46.8916L23.333 46.543L23.5176 46.2764L23.6816 46.0508L23.8867 45.7842H23.9277L23.9688 45.7021L24.2148 45.4355L24.4404 45.21L24.666 45.0254L24.9121 44.8203L25.3223 44.5332L25.6299 44.3486L26.1016 44.1025L26.5732 43.8975L27.1475 43.7129L27.7217 43.5898L28.1113 43.5283L28.6035 43.4873H29.0752L29.6289 43.5283L30.1826 43.6104L30.7568 43.7539L31.1875 43.8975L31.6797 44.1025L32.1514 44.3486L32.6025 44.6357L32.9102 44.8613L33.0127 44.8818L33.1768 44.6562L33.3203 44.4922L33.4844 44.3486L33.71 44.1846L33.6279 44.041L33.4434 43.7744L33.2588 43.4463L33.0742 43.0566L32.8896 42.5439L32.7461 41.9902L32.623 41.252L32.582 40.7598V40.083L32.6436 39.3857L32.7461 38.7705L32.8691 38.2578L33.0742 37.6426L33.2588 37.2324L33.5049 36.7607L33.792 36.3301L33.9355 36.1455L33.8945 36.043L33.6689 35.7969L33.3818 35.4072L33.1357 35.0176L32.8896 34.5664H32.8281L32.541 34.792L32.377 34.915L32.0078 35.1611L31.5771 35.4072L31.1465 35.6123L30.5928 35.8174L30.1621 35.9404L29.5264 36.0635L29.2188 36.1045L28.9521 36.125H28.1318L27.6807 36.084L27.127 35.9814L26.5117 35.8174L26.1426 35.6738L26.0195 35.5918L25.876 35.4277L25.7939 35.2432V34.9766L25.876 34.792L25.958 34.6689L26.1221 34.5459L26.2861 34.4844H26.5117L27.3525 34.7305L27.8242 34.8125L28.2344 34.8535H28.9316L29.4443 34.792L29.998 34.6689L30.4902 34.5049L30.9824 34.2793L31.3516 34.0742L31.7412 33.8076L32.0693 33.541L32.418 33.2129L32.5615 33.0488L32.7256 32.8643L32.9307 32.5771L33.1768 32.1875L33.3613 31.8389L33.5664 31.3262L33.71 30.8545L33.8125 30.3213L33.8535 29.9316V29.1934L33.792 28.6807L33.6895 28.1885L33.4844 27.5732L33.2998 27.1631L33.0947 26.7939L32.8486 26.4248L32.6436 26.1582L32.3154 25.8096L32.1104 25.6045L31.8848 25.4199L31.6182 25.2148L31.2285 24.9688L30.7158 24.7021L30.2441 24.5176L29.7109 24.374L29.2188 24.292L28.6855 24.251H28.3779L27.8857 24.292L27.4961 24.3535L27.0039 24.4766L26.5938 24.6201L26.1016 24.8457L25.7939 25.0303L25.5068 25.2148L25.2402 25.4199L24.9531 25.666L24.6455 25.9736L24.502 26.1377L24.2559 26.4453L24.1123 26.6709L23.9072 26.999L23.6816 27.4707L23.5176 27.9014L23.415 28.25L23.3125 28.7422L23.251 29.3984V29.6855L23.292 30.1777L23.374 30.6904L23.5176 31.2236L23.6816 31.6543L23.9072 32.126L24.1738 32.5566L24.3584 32.8027L24.5635 33.0693L24.6865 33.3154V33.582L24.6045 33.7666L24.502 33.9102L24.2969 34.0332L24.1328 34.0742H23.9688L23.7842 34.0127L23.6611 33.9307L23.5176 33.7871L23.292 33.5L23.0459 33.1514L22.8613 32.8438L22.6562 32.4746L22.4307 31.9619L22.2256 31.3467L22.123 30.916L22 30.2803V28.8242L22.1025 28.3115L22.1846 27.9219L22.3486 27.3887L22.5127 26.958L22.7588 26.4453L23.0049 26.0352L23.1895 25.7686L23.3535 25.543L23.5791 25.2764L23.7637 25.0508L24.1123 24.7021L24.3379 24.5176L24.584 24.3125L24.9941 24.0254L25.4453 23.7588L25.8965 23.5332L26.3682 23.3486L26.7578 23.2256L27.2705 23.1025L27.7627 23.0205L27.7832 23ZM38.6318 26.3633L38.1191 26.4043L37.6475 26.4863L37.1348 26.6299L36.7041 26.7939L36.2734 26.999L35.9043 27.2246L35.6172 27.4297L35.2891 27.6963L35.125 27.8398V27.8809H35.084V27.9219H35.043L34.9609 28.0244L35.002 28.291L35.084 28.8447L35.1045 29.0908V30.0342L35.043 30.5469L34.9814 30.8955L34.8994 31.2441L34.7764 31.6543L34.6123 32.1055L34.3457 32.6592L34.0791 33.1104L33.8945 33.377L33.833 33.459L33.8535 33.6436L34.0791 34.1357L34.2842 34.5049L34.5098 34.833L34.7764 35.1611L34.8584 35.2432L35.084 35.0996L35.3711 34.915L35.8018 34.6895L36.2119 34.5254L36.6426 34.4023L37.0732 34.3203L37.3809 34.2793H38.1396L38.5703 34.3408L38.9395 34.4229L39.124 34.4434L39.3086 34.2588L39.5342 34.0742L39.9238 33.7871L40.2725 33.5615L40.7031 33.3154L41.2158 33.0693L41.6875 32.8848L42.2002 32.7207L42.6924 32.5977L43.2461 32.4951L44.0664 32.3926L44.1074 32.249L44.1279 32.0439V31.3262L44.0664 30.793L43.9639 30.3213L43.8408 29.9316L43.6357 29.4189L43.4102 28.9883L43.1846 28.6396L43 28.3936L42.8154 28.1885L42.6719 28.0244L42.3643 27.7168L42.1387 27.5322L41.8721 27.3271L41.4414 27.0605L40.9697 26.8145L40.498 26.6299L39.9648 26.4863L39.4727 26.4043L38.9395 26.3633H38.6318ZM37.5039 35.5098L37.0732 35.5713L36.6836 35.6738L36.3555 35.7969L35.8838 36.043L35.5146 36.3096L35.166 36.6377L34.9609 36.8633L34.7559 37.1299L34.5918 37.3965L34.4688 37.6016L34.2637 38.0527L34.1201 38.4629L33.9766 38.9961L33.874 39.6934L33.833 40.3701L33.8535 40.9238L33.915 41.3955L34.0176 41.8877L34.1816 42.4209L34.3662 42.8516L34.5098 43.1182L34.6738 43.3438L34.7559 43.4463H34.7969L34.8379 43.5283L34.9199 43.5693L35.0635 42.9951L35.2686 42.5029L35.4326 42.2158L35.6787 41.8672L35.8633 41.6621L36.0068 41.498L36.2529 41.2725L36.6631 40.9648L37.0527 40.7188L37.4014 40.4727L37.709 40.1855L37.873 40.001V39.96H37.9141L38.2012 39.5293L38.4473 39.0576L38.6523 38.5859L38.8574 38.0117L38.8779 37.8682L38.6729 35.8584L38.6318 35.6328L38.4473 35.5713L38.2627 35.5303L38.0576 35.5098H37.5039ZM39.7803 39.0986L39.5547 39.6113L39.3086 40.083L39.1855 40.2881L39.0215 40.5342L38.7754 40.8418L38.6318 41.0059L38.3037 41.334L37.9551 41.6006L37.5449 41.8672L37.2373 42.0723L36.9707 42.2979L36.8477 42.4004V42.4414L36.7656 42.4824L36.499 42.8311L36.2939 43.2207L36.1914 43.5283L36.1094 43.9795L36.0889 44.3486V45.5586L36.1094 46.3584L36.1709 47.2402L36.2529 47.8145L36.376 48.3271L36.5195 48.7373L36.6836 49.1064L36.8887 49.4756L37.1348 49.8652L37.3809 50.2139L37.709 50.6445L37.9756 50.9727L38.1602 51.1982L38.3857 51.4443L38.5293 51.6084L38.8574 51.957L38.9395 52.0391H38.9805L39.001 52.1006L39.165 52.2441L39.4316 52.4902L39.6572 52.6748L40.0264 52.9619L40.457 53.249L40.8057 53.4541L41.1953 53.6592L41.708 53.8643L42.1182 53.9873L42.5488 54.0693L42.7744 54.0898H43.2871L43.7588 54.0283L44.21 53.9053L44.5586 53.7822L44.9277 53.6182L45.3994 53.3721L45.7891 53.126L46.0762 52.9209L46.3428 52.7158L46.5684 52.5312L46.8145 52.3057L46.9785 52.1621L47.1836 51.957L47.2246 51.9365V51.8955H47.2656V51.8545H47.3066V51.8135H47.3477L47.4912 51.6494L47.6348 51.5059L47.7783 51.3418L48.0244 51.0547L48.209 50.8291V50.7881H48.25L48.5576 50.3779L48.8447 49.9883L49.0498 49.6807L49.2754 49.291L49.4395 48.9629L49.6035 48.5732L49.7471 48.0811L49.8291 47.6709L49.8701 47.4248L49.9316 46.6865L49.9521 46.2354L49.9727 45.1279V44.4307L49.9521 44.041L49.8906 43.6924L49.7881 43.3438L49.624 43.0156L49.46 42.7695L49.2344 42.5029L48.9883 42.2773L48.7012 42.0518L48.4346 41.8672L48.0859 41.6621L47.6758 41.498L47.3066 41.3955L46.9375 41.334L46.5068 41.293L45.1328 41.2314L44.1895 41.1494L43.5947 41.0469L43.082 40.9238L42.5693 40.7598L42.0566 40.5547L41.5029 40.2881L40.9492 39.96L40.5596 39.6934L40.1289 39.3652L39.8008 39.0986H39.7803ZM56.3506 39.6523L55.7969 39.6934L55.3867 39.7549L54.9766 39.8574L54.4844 40.0215L53.9922 40.2471L53.6025 40.4727L53.377 40.6367L53.0078 40.9033L52.9668 41.0264L52.9258 41.5391L52.8643 42.0312L52.7617 42.5029L52.6387 42.9131L52.4746 43.3232L52.3105 43.6514L52.126 43.959L52.085 44V44.0615L52.3105 44.1846L52.6387 44.4307L52.8848 44.6768L53.1104 45.0049L53.2744 45.3125L53.3975 45.7021L53.459 46.0918V46.4609L53.377 46.9941L53.2744 47.3223L53.1309 47.6709L52.9668 47.958L52.7617 48.2451L52.5361 48.4912L52.5156 48.5732L52.9053 48.9629L53.1924 49.1885L53.2744 49.168L53.7256 48.8398L54.0742 48.6143L54.5664 48.3477L55.0791 48.1221L55.6943 47.917L56.248 47.7939L56.6582 47.7324L57.1914 47.6914H57.6221L58.1963 47.7324L58.8115 47.835L59.3652 47.9785L59.8779 48.1631L60.3086 48.3477L60.4727 48.4297L60.5547 48.3887L60.8418 47.999L61.0674 47.6504L61.2725 47.2607L61.4775 46.748L61.6006 46.3584L61.7031 45.8867L61.7646 45.333V44.6152L61.7031 44.082L61.6006 43.6104L61.4775 43.2207L61.2725 42.708L61.0469 42.2773L60.7598 41.8467L60.5547 41.5801L60.2266 41.2314L60.001 41.0059L59.7754 40.8213L59.5088 40.6162L59.0781 40.3496L58.6064 40.1035L58.1348 39.9189L57.6016 39.7754L57.1094 39.6934L56.5762 39.6523H56.3506ZM28.7061 44.7383L28.1934 44.7793L27.7217 44.8613L27.209 45.0049L26.7783 45.1689L26.4297 45.333L26.0195 45.5791L25.7529 45.7637L25.4658 45.9893L25.1582 46.2764L24.9531 46.4814L24.8096 46.6455L24.5635 46.9531L24.4199 47.1787L24.2148 47.5068L23.9893 47.9785L23.8252 48.4092L23.7227 48.7578L23.6201 49.2705L23.5586 49.8857V50.2754L23.6201 50.8701L23.7227 51.3828L23.8867 51.916L24.1123 52.4287L24.2969 52.7773L24.584 53.208L24.8506 53.5361L25.1377 53.8438L25.3018 54.0078L25.4658 54.1514L25.7529 54.377L26.1221 54.623L26.5732 54.8691L27.1064 55.0947L27.5166 55.2178L28.0088 55.3203L28.5215 55.3818H29.2598L29.7725 55.3203L30.3262 55.1973L30.8184 55.0332L31.3105 54.8076L31.6797 54.6025L31.9258 54.4385L32.2539 54.1924L32.5 53.9668L32.6641 53.8232L32.9717 53.4951L33.1768 53.2285L33.3613 52.9619L33.5459 52.6543L33.71 52.3467L33.915 51.834L34.0586 51.3623L34.1611 50.8291L34.2021 50.46V49.7012L34.1406 49.1475L34.0996 48.9629L33.833 48.7578L33.5459 48.5117L33.2998 48.2451L33.0947 47.958L32.9102 47.6299L32.7871 47.3428L32.6641 46.9121L32.6025 46.4814L32.582 46.2354L32.377 46.0303L32.0898 45.8047L31.8027 45.5996L31.3105 45.3125L30.9619 45.1484L30.4492 44.9639L30.0596 44.8613L29.752 44.7998L29.3623 44.7588L29.0342 44.7383H28.7061ZM51.2236 45.0664L51.1621 46.7891L51.0801 47.6504L51.0391 47.8965V48.0195L51.1621 47.9785L51.4082 47.835L51.5723 47.7119V47.6709L51.6543 47.6299L51.7363 47.5479V47.5068H51.7773L51.9619 47.2402L52.085 46.9941L52.167 46.748L52.208 46.543L52.2285 46.2559L52.1875 45.9482L52.085 45.6816L51.9209 45.4561L51.7773 45.3125L51.5928 45.1895L51.2646 45.0664H51.2236ZM34.8174 45.0664L34.5098 45.1689L34.2842 45.3125L34.1201 45.4766L33.9766 45.7021L33.8945 45.8867L33.8535 46.0508V46.543L33.9355 46.8711L34.0381 47.1172L34.1816 47.3633L34.3662 47.5889L34.5098 47.7324L34.8174 47.9375L34.9814 48.0195H35.0225L35.002 47.7734L34.9199 47.0557L34.8789 46.3994L34.8379 45.0664H34.8174ZM51.3672 49.2295L51.1006 49.3115L50.8135 49.373L50.5879 49.4141L50.3828 49.8447L50.1572 50.2344L50.0137 50.46L49.8496 50.7061L49.5625 51.0957L49.3779 51.3418L49.1934 51.5674L49.0293 51.7725L48.8037 52.0391L48.6191 52.2441L48.4756 52.4082L48.3936 52.4902V52.5312H48.3525L48.209 52.6953L47.9424 52.9619L47.9014 52.9824V53.0234L47.8193 53.0645L47.6758 53.208L47.5117 53.3516L47.2451 53.5771L47.1426 53.6592V53.8438L47.3477 55.6689L47.3682 55.71L48.291 55.9971L48.6396 56.0996L48.8447 55.874L49.0703 55.71L49.2959 55.6074L49.5215 55.5459L49.8496 55.5254L50.1777 55.5869L50.9775 55.833H51.0391L51.0186 55.6484L50.916 55.0127L50.875 54.459V54.0078L50.916 53.4746L50.998 52.9619L51.1211 52.4697L51.3262 51.8545L51.5518 51.3418L51.7773 50.9316L51.9209 50.7061L52.085 50.46L52.3311 50.1318L52.29 50.0498L52.0645 49.8652L51.5928 49.3936L51.4492 49.2295H51.3672ZM40.1084 54.4795L40.0674 54.6846L39.8828 56.2432L39.8623 56.4893V56.7559L39.9238 57.084L40.0059 57.3301L40.1289 57.5762L40.293 57.8018L40.5391 58.0684L40.8262 58.2939L41.1748 58.499L41.5645 58.6631L41.9336 58.7656L42.4053 58.8477L42.5898 58.8682H43.4717L44.0459 58.7861L44.4766 58.6631L44.7842 58.54L45.1328 58.3555L45.3584 58.1914L45.584 58.0068V57.9658H45.625L45.7686 57.8018L45.8916 57.6377L46.0146 57.4326L46.1172 57.166L46.1787 56.8789L46.1992 56.6943V56.5098L46.0967 55.5459L45.9736 54.5L45.8711 54.5205L45.543 54.6846L45.1123 54.8896L44.5381 55.0947L44.0459 55.2178L43.7178 55.2793L43.3486 55.3203H42.7129L42.2002 55.2588L41.7285 55.1562L41.0518 54.9307L40.5596 54.7051L40.1289 54.4795H40.1084Z" fill="black"/>
<path d="M56.6582 23H58.2783V23.0205L58.9961 23.1641L59.5088 23.3076L59.9395 23.4717L60.4316 23.6973L60.8008 23.9023L61.293 24.2305L61.5801 24.4561L61.8672 24.7021L62.0312 24.8457L62.1748 25.0098L62.3594 25.1943L62.5439 25.4199L62.7695 25.707L63.0156 26.0762L63.2207 26.4248L63.4463 26.876L63.6104 27.2861L63.7539 27.7168L63.918 28.3936L63.959 28.6396H64V30.4033L63.959 30.4443L63.877 30.8955L63.7539 31.4082L63.5898 31.9004L63.3438 32.4746L63.2207 32.7002L63.0771 32.9463L62.8516 33.2949L62.6055 33.623L62.3799 33.8896L62.1953 34.0947L61.8057 34.4844L61.2314 34.9355L60.8828 35.1611L60.4521 35.4072L60.0215 35.6123L59.4678 35.8174L58.9551 35.9609L58.5449 36.043L58.0938 36.1045L57.8271 36.125H57.0068L56.5557 36.084L56.002 35.9814L55.4688 35.8379L54.9561 35.6533L54.4639 35.4277L54.0127 35.1816L53.7666 35.0176L53.4795 34.8125L53.2539 34.6279L53.0488 34.4434L52.8848 34.2998L52.5566 33.9717L52.3721 33.7461L52.167 33.5L51.8799 33.0898L51.6338 32.6592L51.4697 32.3311L51.2646 31.8594L51.0801 31.2852L50.9775 30.834L50.8955 30.3213L50.8545 29.8291V29.3164L50.8955 28.8037L50.9775 28.2705L51.1211 27.6963L51.3262 27.1016L51.5518 26.6094L51.7773 26.1992L52.0029 25.8506L52.2285 25.543L52.4336 25.2764H52.4746L52.5156 25.1943L52.5566 25.1328H52.5977L52.6387 25.0508L52.9873 24.7021L53.2129 24.5176L53.459 24.3125L53.8691 24.0254L54.1768 23.8408L54.6484 23.5947L55.1201 23.3896L55.6328 23.2256L56.125 23.1025L56.6172 23.0205L56.6582 23ZM57.2529 24.2305L56.7402 24.2715L56.2686 24.3535L55.7559 24.4971L55.3252 24.6611L54.9766 24.8252L54.5664 25.0713L54.2998 25.2559L53.9717 25.5225L53.8896 25.584V25.625L53.8076 25.666L53.5 25.9736L53.3564 26.1377L53.1104 26.4453L52.9668 26.6709L52.7617 26.999L52.5361 27.4707L52.3721 27.9014L52.249 28.332L52.167 28.7627L52.1055 29.3984V29.7471L52.167 30.3623L52.29 30.957L52.4746 31.5107L52.7002 32.0029L52.8848 32.3311L53.1309 32.7002L53.3975 33.0283L53.6846 33.3359L53.8281 33.4795L53.9922 33.623L54.3203 33.8896L54.71 34.1357L55.0791 34.3408L55.5508 34.5459L55.8994 34.6689L56.4326 34.792L56.8633 34.8535L57.0479 34.874H57.8271L58.3193 34.8125L58.873 34.6895L59.3652 34.5254L59.8574 34.2998L60.2266 34.0947L60.4727 33.9307L60.8008 33.6846L61.0469 33.459L61.252 33.2744L61.4775 33.0283L61.6621 32.8027L61.9082 32.4541L62.0928 32.1465L62.2568 31.8389L62.4619 31.3262L62.6055 30.8545L62.708 30.3213L62.749 29.9316V29.1934L62.6875 28.6807L62.585 28.1885L62.4619 27.7988L62.2568 27.2861L62.0312 26.8555L61.7441 26.4248L61.5391 26.1582L61.2314 25.8301L60.9648 25.5635L60.7393 25.3789L60.4316 25.1533L60.0625 24.9277L59.5908 24.6816L59.1191 24.4971L58.5859 24.3535L58.0938 24.2715L57.5605 24.2305H57.2529Z" fill="black"/>
<path d="M28.3369 25.4609H28.8291L29.1572 25.5225L29.4648 25.6455L29.6904 25.7686L29.9365 25.9531L30.2031 26.2197L30.4082 26.5273L30.5518 26.8555L30.6338 27.1631L30.6543 27.3066V27.7373L30.5723 28.1475L30.4287 28.4961L30.2852 28.7217L30.0596 28.9883L29.8545 29.1729L29.6289 29.3164L29.3418 29.46L29.2188 29.4805V30.4854L29.1777 30.7109L29.0547 30.8955L28.9521 30.998L28.7881 31.0801L28.7266 31.1006H28.4395L28.2754 31.0391L28.0703 30.8545L27.9883 30.6904L27.9473 30.5059V28.9473L28.0088 28.7012L28.1318 28.5371L28.2754 28.4141L28.4395 28.3525L28.8291 28.291L29.0752 28.168L29.1777 28.0654L29.2803 27.9424L29.3623 27.7373L29.3828 27.6143V27.4092L29.3213 27.2041L29.2188 27.0195L29.0752 26.876L28.8701 26.7734L28.7266 26.7324H28.4395L28.1934 26.8145L28.0088 26.958L27.8857 27.1221L27.8037 27.3477L27.7422 27.7373L27.6191 27.9424L27.4551 28.0859L27.2705 28.1475H27.0039L26.7988 28.0654L26.6758 27.9629L26.5732 27.8193L26.5117 27.6348V27.3066L26.5732 26.999L26.6553 26.7529L26.8193 26.4248L27.0039 26.1787L27.168 25.9941L27.4346 25.7891L27.7217 25.625L28.0908 25.502L28.3369 25.4609Z" fill="black"/>
<path d="M56.207 40.8828H56.7197L57.0479 40.9443L57.3555 41.0674L57.5811 41.1904L57.8271 41.375L58.0938 41.6416L58.2988 41.9492L58.4424 42.2773L58.5244 42.6055L58.5449 42.7285V43.1592L58.4629 43.5693L58.3193 43.918L58.1758 44.1436L57.9502 44.4102L57.7451 44.5947L57.5195 44.7383L57.2324 44.8818L57.1094 44.9023V45.9072L57.0684 46.1328L56.9248 46.3584L56.7402 46.4814L56.6172 46.5225H56.3301L56.166 46.4609L55.9609 46.2764L55.8789 46.1123L55.8379 45.9072V44.4102L55.8789 44.1846L55.9609 44.0205L56.1045 43.877L56.2686 43.7949L56.5146 43.7539L56.7812 43.6924L56.9658 43.5898L57.0684 43.4873L57.1709 43.3643L57.2529 43.1592L57.2734 43.0361V42.8516L57.2119 42.626L57.1094 42.4414L56.9658 42.2979L56.7197 42.1748L56.6172 42.1543H56.3301L56.084 42.2363L55.8994 42.3799L55.7764 42.5439L55.6943 42.749L55.6328 43.1387L55.5303 43.3438L55.3662 43.4873L55.1611 43.5693H54.8945L54.6895 43.4873L54.5664 43.3848L54.4434 43.1797L54.4023 43.0566V42.749L54.4639 42.4209L54.5664 42.1133L54.751 41.7852L54.9766 41.498L55.1816 41.3135L55.3867 41.1699L55.7148 41.0059L56.0635 40.9033L56.207 40.8828Z" fill="black"/>
<path d="M38.6934 27.5938H39.0215L39.2266 27.6963L39.3291 27.7988L39.4521 27.9834L39.4727 28.0654V32.7822L39.3906 32.9668L39.2471 33.1309L39.0625 33.2334L38.96 33.2539H38.7344L38.5088 33.1719L38.3447 33.0078L38.2627 32.8438L38.2217 32.6387V28.168L38.2627 27.9834L38.3857 27.7783L38.5498 27.6553L38.6934 27.5938Z" fill="black"/>
<path d="M28.7676 45.9688H29.0957L29.3008 46.0713L29.4033 46.1738L29.5059 46.3174L29.5469 46.4404V51.1367L29.4648 51.3418L29.3008 51.5264L29.1162 51.6084L29.0342 51.6289H28.8086L28.624 51.5674L28.4189 51.3828L28.3369 51.2188L28.2959 51.0137V46.543L28.3369 46.3584L28.46 46.1533L28.624 46.0303L28.7676 45.9688Z" fill="black"/>
<path d="M46.5889 45.1074L46.8145 45.1279L47.0195 45.2305L47.1836 45.415L47.2656 45.5996V45.8867L47.1426 46.1328L46.9785 46.2764L46.4863 46.5635L46.3223 46.6455H46.2812L46.3633 46.7275L46.7529 46.9531L47.04 47.1377L47.1836 47.3018L47.2656 47.4863V47.7734L47.1426 48.0195L46.9785 48.1631L46.7734 48.2451H46.5068L46.2607 48.1426L45.707 47.8145L45.1328 47.4863L44.6816 47.2197L44.5176 47.0762L44.415 46.8916L44.3945 46.8301V46.543L44.4766 46.3379L44.5791 46.2148L44.8662 46.0303L45.3379 45.7637L45.8301 45.4766L46.2197 45.251L46.4248 45.1484L46.5889 45.1074Z" fill="black"/>
<path d="M39.2676 45.1074H39.4111L39.6162 45.1689L40.0674 45.415L40.5596 45.7021L41.0928 46.0098L41.3184 46.1533L41.4824 46.2969L41.585 46.4814L41.6055 46.543V46.8301L41.4824 47.0762L41.3184 47.2197L40.252 47.835L39.7598 48.1221L39.4932 48.2451H39.2061L39.0215 48.1631L38.8574 48.0195L38.7344 47.7734V47.4863L38.8164 47.2812L38.8984 47.1787L39.1035 47.0352L39.6367 46.7275L39.6982 46.666L39.2881 46.4404L39.0215 46.2764L38.8369 46.1123L38.7344 45.8867V45.5996L38.8164 45.415L38.9189 45.2715L39.124 45.1484L39.2676 45.1074Z" fill="black"/>
<path d="M38.0576 61.4111L38.3242 61.4521L38.5293 61.5752L38.6729 61.7803L38.7754 62.0674L39.083 63.0312L39.3496 63.79L39.5137 64.2412L39.5342 64.4463L39.4521 64.6719L39.3086 64.8564L39.1445 64.959H39.1035V65H38.6934V64.959L38.5703 64.918L38.4062 64.7744L38.3037 64.5898L38.1396 64.1797L37.7705 63.1133L37.6064 62.5801L37.4834 62.1904V61.9033L37.5654 61.7188L37.668 61.5752L37.873 61.4521L38.0576 61.4111Z" fill="black"/>
<path d="M42.3027 50.8701H43.6562L43.8818 50.9111L44.0664 51.0342L44.21 51.1982L44.2715 51.3418L44.292 51.5469L44.2305 51.7725L44.1074 51.9365L43.9844 52.0391L43.8408 52.1006L43.7383 52.1211H42.2207L42.0361 52.0596L41.8311 51.875L41.7285 51.6699L41.708 51.5879V51.4238L41.79 51.1982L41.9131 51.0342L42.1182 50.9111L42.3027 50.8701Z" fill="black"/>
<path d="M42.2412 48.1836H42.5283L42.7334 48.2656L42.8975 48.3271H43.082L43.3486 48.2246L43.4512 48.1836H43.7588L43.9229 48.2451L44.1279 48.4297L44.21 48.5938L44.2305 48.6553V48.9629L44.1279 49.168L43.9844 49.3115L43.7793 49.4346L43.4307 49.5576L43.2051 49.5986H42.7539L42.4258 49.5166L42.1797 49.4141L41.9951 49.291L41.8311 49.1064L41.7695 48.9629L41.749 48.7578L41.79 48.5732L41.9131 48.3682L42.0771 48.2451L42.2412 48.1836Z" fill="black"/>
<path d="M28.7676 52.8799H29.0957L29.3008 52.9824L29.4648 53.1465L29.5469 53.3516V53.7002L29.4443 53.9053L29.3623 54.0078L29.1572 54.1309L29.0957 54.1514H28.7676L28.5625 54.0488L28.46 53.9668L28.3574 53.8027L28.2959 53.5566L28.3164 53.3311L28.4395 53.085L28.583 52.9619L28.7676 52.8799Z" fill="black"/>
<path d="M28.4395 32.3721H28.7676L28.9727 32.4746L29.1367 32.6387L29.2188 32.8438V33.1924L29.1162 33.3975L29.0342 33.5L28.8291 33.623L28.7676 33.6436H28.4395L28.2344 33.541L28.1729 33.5V33.459H28.1318L28.0293 33.2949L27.9678 33.0488L27.9883 32.8232L28.1113 32.5771L28.2549 32.4541L28.4395 32.3721Z" fill="black"/>
<path d="M57.3555 53.5771L57.6221 53.6182L57.7861 53.7207L57.8887 53.8232L57.9912 53.9873L58.0117 54.0488V54.377L57.9092 54.582L57.7656 54.7256L57.6016 54.8076L57.5195 54.8281H57.2734L57.0479 54.7461L56.8838 54.582L56.7812 54.377L56.7607 54.1719L56.8223 53.9258L56.9658 53.7412L57.1709 53.6182L57.3555 53.5771Z" fill="black"/>
<path d="M57.4375 28.8857L57.7041 28.9268L57.8682 29.0293L57.9707 29.1318L58.0732 29.2959L58.0938 29.3779V29.6855L57.9912 29.8906L57.8477 30.0342L57.6836 30.1162L57.6016 30.1367H57.3555L57.1299 30.0547L56.9658 29.8906L56.8633 29.6855L56.8428 29.4805L56.9043 29.2344L57.0479 29.0498L57.2529 28.9268L57.4375 28.8857Z" fill="black"/>
<path d="M59.6934 53.5977H60.001L60.2061 53.6797L60.3086 53.7617L60.4521 53.9873L60.4727 54.0693V54.377L60.3701 54.582L60.2266 54.7256L60.0625 54.8076L59.9805 54.8281H59.7344L59.5498 54.7666L59.3857 54.623L59.2627 54.4385L59.2217 54.1719L59.2832 53.9258L59.4268 53.7412L59.6318 53.6182L59.6934 53.5977Z" fill="black"/>
<path d="M59.7754 28.9062H60.1035L60.3086 29.0088L60.4111 29.1113L60.5342 29.2959L60.5547 29.3779V29.6855L60.4521 29.8906L60.3086 30.0342L60.1445 30.1162L60.0625 30.1367H59.8164L59.5908 30.0547L59.4268 29.8906L59.3242 29.6855L59.3037 29.4805L59.3652 29.2344L59.5088 29.0498L59.7139 28.9268L59.7754 28.9062Z" fill="black"/>
<path d="M54.7715 53.5977H55.0996L55.3047 53.7002L55.4072 53.8027L55.4893 53.9053L55.5508 54.0488V54.377L55.4482 54.582L55.3047 54.7256L55.1406 54.8076L55.0586 54.8281H54.8125L54.5869 54.7461L54.4229 54.582L54.3408 54.418L54.3203 54.3564V54.0488L54.4023 53.8643L54.5049 53.7412L54.71 53.6182L54.7715 53.5977Z" fill="black"/>
<path d="M55.0176 28.8857L55.2432 28.9268L55.4072 29.0293L55.5098 29.1318L55.6123 29.2959L55.6328 29.3779V29.6855L55.5303 29.8906L55.3867 30.0342L55.2227 30.1162L55.1406 30.1367H54.8945L54.6689 30.0547L54.5049 29.8906L54.4229 29.7266L54.4023 29.665V29.3574L54.4844 29.1729L54.5869 29.0498L54.792 28.9268L55.0176 28.8857Z" fill="black"/>
</g>
<defs>
<clipPath id="clip0_151_415">
<rect width="42" height="42" fill="white" transform="translate(22 23)"/>
</clipPath>
</defs>
</svg>
