<svg width="87" height="87" viewBox="0 0 87 87" fill="none" xmlns="http://www.w3.org/2000/svg">
<circle cx="43.5" cy="43.5" r="43.5" fill="#B7EAFC"/>
<g clip-path="url(#clip0_151_418)">
<path d="M57.375 24H62.6875V24.0391L62.8633 24.1562L62.9609 24.293V24.332H63V24.7617L62.9414 24.8203L62.5898 25.5039L62.4141 25.8359V25.9336L62.6094 26.3047L62.9023 26.8711L63 27.0469V27.4375L62.9219 27.5156L62.8047 27.6523L62.6094 27.75L62.5117 27.7695L58.1172 27.7891L58.1367 30.7969L58.5078 30.9727L58.8203 31.207L58.9766 31.3633L59.1719 31.6367L59.3086 31.9297L59.3867 32.2031L59.4062 32.3594V37.7695L59.3477 38.082L59.25 38.3555L59.0547 38.6875L58.7812 38.9805L58.5469 39.1562L58.2344 39.3125L57.9805 39.3906L57.7656 39.4297L57.1016 39.4688L55.1875 39.5469L54.8945 39.5859L54.6016 39.6836L54.3672 39.8203L54.1328 40.0352L53.9766 40.2109L53.8203 40.5234L53.7422 40.7773L53.7227 40.875L53.7031 44.6641L53.7617 44.7227L54.25 44.9961L54.6797 45.25L56.2031 46.1289L56.6719 46.4023L57.1797 46.6953L57.7266 47.0078L58.1562 47.2617L58.3516 47.4375L58.4297 47.5938L58.4492 47.6719V52.2617L58.4102 52.4766L58.3125 52.6328L58.1953 52.75L58.0391 52.8086H57.7461L57.5508 52.7109L57.4141 52.5547L57.3555 52.418L57.3359 52.3008V48.082L57.0039 47.8867L56.4961 47.5938L56.0273 47.3203L54.5039 46.4414L54.0352 46.168L53.4883 45.8555L53.0195 45.582L52.7852 45.4258L52.668 45.2891L52.6094 45.1719L52.5898 45.0352V40.9336L52.6484 40.5234L52.7266 40.25L52.8438 39.957L53.0391 39.6055L53.2344 39.3516L53.5469 39.0391L53.8789 38.8047L54.2109 38.6289L54.5625 38.5117L54.8555 38.4531L55.3828 38.4141L57.3359 38.3359L57.7461 38.2969L58.0195 38.1602L58.1758 37.9844L58.2539 37.8086L58.293 37.5547V32.5156L58.2539 32.3203L58.1367 32.0859L57.9609 31.9297L57.7656 31.8516L57.6875 31.832H57.3945L57.1602 31.9102L56.9844 32.0469L56.8672 32.2031L56.8086 32.3594L56.7891 32.4766L56.7695 35.4648L56.75 36.0312L56.6719 36.2852L56.5547 36.4805L56.3984 36.6562L56.2031 36.7734L56.0078 36.8516L55.7734 36.8906L47.6094 36.9102L47.3359 36.9492L47.0234 37.0469L46.7109 37.2031L46.4766 37.3789L46.2031 37.6133L45.832 37.9844L45.6562 38.1992L45.4219 38.4531L45.2461 38.668L44.9922 38.9609L44.8164 39.1758L44.582 39.4492L44.4844 39.5859H44.4453L44.4062 39.6641L44.1719 39.9375L44.0352 40.0938L43.8789 40.2305L43.6445 40.4062L43.4492 40.5234L42.9805 40.7188L41.8672 41.1094L41.3398 41.3047L41.1445 41.3633L41.125 41.4023L41.2031 41.4414L41.3984 41.7344L41.5156 41.9883L41.5938 42.2812L41.6133 42.418L41.6328 42.8086L42.4922 42.5352L44.0938 42.0469L44.5625 41.8906L44.8359 41.7344L44.9922 41.5977H45.0312V41.5586H45.0703L45.1094 41.4805L45.4023 41.168L45.5391 41.0117L45.7539 40.7773L45.8906 40.6211L46.0664 40.4258L46.2812 40.1914L46.457 39.9766L46.6328 39.8008L46.8281 39.7031L47.0234 39.6836L47.1992 39.7227L47.375 39.8398L47.4922 40.0156L47.5312 40.1523V54.4297L47.4922 54.5859L47.375 54.7617L47.1992 54.8789L47.0625 54.918H46.9062L46.7109 54.8594L46.5352 54.7031L46.457 54.5469L46.4375 54.4883L46.418 53.9609V41.7148L46.3203 41.8125L46.0273 42.125L45.8516 42.3203L45.6367 42.5352L45.3438 42.75L45.0312 42.9062L44.6602 43.043L43.0977 43.5312L41.4961 44.0195L40.4414 44.3516L39.6016 44.6445L38.8398 44.918L37.2969 45.4648L36.8867 45.5625L36.4375 45.6016L34.7969 45.6211L34.4844 45.6992L34.2305 45.8359L34.0547 45.9727L33.9961 45.9922V46.0312L33.8984 46.1289L33.7812 46.2852L33.625 46.5977L33.5664 46.793L33.5469 46.9297V49.8398L34.0156 50.1133L35.5391 50.9922L36.0078 51.2656L36.5156 51.5586L36.9844 51.832L37.4336 52.0859L37.9219 52.3789L38.0781 52.5352L38.1562 52.6914L38.1758 52.9258V55.9922L38.1562 56.6758L38.0586 56.8711L37.9023 57.0078L37.7461 57.0664L37.5898 57.0859L37.4141 57.0469L37.2773 56.9688L37.1406 56.8125L37.082 56.6758L37.0625 56.5781L37.043 53.1602L36.5742 52.8867L35.5586 52.3008L35.0898 52.0273L33.5664 51.1484L33.0977 50.875L32.668 50.6211L32.5117 50.4648L32.4336 50.3086L32.4141 50.1523V47.0273L32.4531 46.6562L32.5508 46.2656L32.6875 45.9336L32.8828 45.6211L33.0586 45.3867L33.3711 45.0742L33.7422 44.8203L34.1133 44.6445L34.4453 44.5469L34.7969 44.4883L36.5547 44.4688L36.8281 44.4297L37.5312 44.1953L39.4258 43.5117L39.9922 43.3164L40.2266 43.1992L40.3828 43.043L40.4609 42.8867L40.5 42.6133L40.4609 42.3789L40.3633 42.1836L40.2266 42.0469L39.9922 41.9297L39.8945 41.9102H39.6602L39.2695 42.0273L38.4688 42.3008L37.6094 42.5938L36.9062 42.8281L36.4375 42.9648L36.1836 43.0039L35.8906 43.0234H28L27.4336 43.043L26.9844 43.1016L26.5547 43.1992L26.1836 43.3359L25.8711 43.5117L25.6172 43.7266L25.4414 43.9805L25.3438 44.2148L25.3047 44.4688V51.1484L25.3633 51.4805L25.5195 51.8125L25.6758 52.0078L25.7734 52.125L26.0078 52.3008L26.3398 52.4766L26.3984 52.4961V45.2695L26.4766 45.0938L26.5938 44.957L26.7891 44.8594L26.8672 44.8398H27.0234L27.2383 44.918L27.375 45.0352L27.4727 45.2109L27.4922 45.25V58.5508L27.4336 58.707L27.2773 58.8828L27.1211 58.9609L27.043 58.9805H26.8281L26.6523 58.9023L26.5352 58.8047L26.418 58.6094L26.3984 58.5312L26.3789 53.6484L26.0469 53.5508L25.6562 53.3945L25.3633 53.2188L25.1094 53.0234L24.7969 52.7109L24.582 52.418L24.3672 52.0078L24.25 51.6562L24.1914 51.3047L24.1719 50.8945V44.625L24.1914 44.2734L24.2695 43.9023L24.3867 43.5898L24.543 43.2969L24.7578 43.0234L25.0117 42.7695L25.3047 42.5547L25.6172 42.3789L25.9492 42.2227L26.4375 42.0664L26.9453 41.9688L27.4531 41.9102H28.1953L28.0586 41.7539L27.8242 41.4609L27.6289 41.168L27.4141 40.7578L27.2383 40.2891L27.1211 39.7812L27.0625 39.3516V38.6094L27.1406 38.1211L27.2773 37.6719L27.4531 37.3008L27.6484 37.0078L27.8242 36.8125L27.9219 36.7148L28.1172 36.5391L28.3906 36.3633L28.7031 36.207L29.0547 36.0898L29.4648 36.0117L29.6797 35.9922H30.2461L30.6953 36.0508L30.9883 36.1289L31.3008 36.2461L31.6328 36.4219L31.9453 36.6562L32.1992 36.9102L32.4141 37.2031L32.5898 37.5352L32.7266 37.9062L32.8242 38.3555L32.8633 38.7461V39.1953L32.8242 39.6445L32.7266 40.1328L32.5508 40.6602L32.375 41.0312L32.1406 41.4023L31.9453 41.6562L31.8867 41.7344H31.8477L31.8086 41.8125L31.7305 41.8906H36.0664L36.418 41.8125L37.2188 41.5391L37.9219 41.3047L39.7773 40.6602L41.6523 39.9961L42.4336 39.7227L42.8438 39.5664L43.1172 39.4102L43.1953 39.332H43.2344V39.293H43.2734V39.2539H43.3125L43.3516 39.1758L43.5273 38.9805L43.7031 38.7656L43.918 38.5117L44.0547 38.3555L44.2305 38.1406L44.6602 37.6328L44.7969 37.4766L44.8359 37.418H44.875L44.9141 37.3398L45.2266 37.0078L45.5195 36.7148L45.7344 36.5391L45.9297 36.3828L46.2031 36.207L46.5742 36.0117L46.9258 35.8945L47.2969 35.8164L47.4727 35.7969L47.8828 35.7773H49.1523L48.7812 35.4062L48.5273 35.0742L48.332 34.7617L48.1172 34.3125L47.9609 33.8438L47.8633 33.3945L47.8242 33.1016L47.8047 32.8477V32.5156L47.8438 32.0664L47.9219 31.6562L48.0391 31.3047L48.2344 30.8945L48.4102 30.6406L48.625 30.3867L48.8398 30.1914L49.0938 30.0156L49.3281 29.8789L49.7383 29.7227L50.0508 29.6445L50.3242 29.6055L50.5977 29.5859H50.9297L51.3594 29.625L51.7305 29.7031L52.1211 29.8398L52.4531 30.0156L52.8438 30.3086L52.9805 30.4648L53.1562 30.6602L53.3125 30.9141L53.4688 31.2266L53.5859 31.5391L53.6836 31.9688L53.7227 32.3203V32.9844L53.6836 33.3555L53.5859 33.8242L53.4102 34.3516L53.2148 34.7617L53.0391 35.0352L52.8438 35.3086L52.6094 35.5625L52.4531 35.7188L55.6562 35.7383V32.4766L55.6953 32.1836L55.793 31.8711L55.9297 31.5977L56.0859 31.3828L56.3203 31.1484L56.5742 30.9727L56.8086 30.8555L57.0039 30.7773L57.0234 24.4102L57.1016 24.2344L57.1797 24.1367L57.375 24ZM58.1172 25.0938V26.6758H61.5352L61.4961 26.5586L61.2617 26.0898L61.2227 25.9531V25.8164L61.3203 25.543L61.5352 25.1328V25.0938H58.1172ZM50.5 30.6992L50.168 30.7578L49.9141 30.8359L49.6797 30.9531L49.5039 31.0898L49.4258 31.1484V31.1875H49.3867L49.2109 31.4219L49.0547 31.7344L48.957 32.1055L48.918 32.3984V32.9258L48.9766 33.3555L49.0742 33.7266L49.1914 34.0391L49.3672 34.3711L49.5625 34.6445L49.6797 34.7812H49.7188L49.7383 34.8398L49.9922 35.0352L50.3047 35.1914L50.5391 35.25L50.8711 35.2695L51.1641 35.2109L51.3984 35.1133L51.6523 34.957L51.8867 34.7422L52.0625 34.5469L52.2773 34.1953L52.4336 33.8438L52.5312 33.5117L52.6094 33.082L52.6289 32.8086V32.457L52.5703 32.0273L52.4727 31.6953L52.2969 31.3633L52.1211 31.1484L51.8867 30.9727L51.5742 30.8164L51.3008 30.7383L51.0469 30.6992H50.5ZM29.6406 37.1055L29.3281 37.1641L29.0547 37.2617L28.8008 37.418L28.5664 37.6328L28.4297 37.8281L28.2734 38.1602L28.1953 38.4922L28.1562 38.8047V39.2148L28.2148 39.6641L28.3125 40.0547L28.4688 40.4453L28.6641 40.7773L28.8398 40.9922L29.0547 41.207L29.3672 41.4023L29.543 41.4805L29.8555 41.5391H30.0898L30.3633 41.4805L30.5781 41.3828L30.8125 41.2461L31.0664 41.0117L31.2617 40.7773L31.4375 40.4648L31.5352 40.25L31.6523 39.8984L31.7305 39.5273L31.7695 39.0195L31.75 38.6484L31.6914 38.3164L31.5938 38.0234L31.4375 37.7305L31.2227 37.4961L31.0078 37.3398L30.7148 37.2031L30.4023 37.125L30.2852 37.1055H29.6406Z" fill="black"/>
<path d="M52.707 54.8398H62.4531L62.668 54.8789L62.7852 54.957L62.8828 55.0352L63 55.2305V63.6484L62.8633 63.8438L62.6484 64H62.2773L62.0625 63.8438L61.9453 63.6875L61.9062 63.5508L61.8867 55.9531H53.2734V63.5703L53.1953 63.7461L53.0586 63.9023L52.9023 64H52.5508L52.3359 63.8438L52.2188 63.6875L52.1797 63.5703L52.1602 61.7539V58.1211H43.5469V63.5312L43.4883 63.707L43.3711 63.8633L43.2148 63.9609L43.1562 64H42.8242L42.6289 63.8633L42.5117 63.7266L42.4531 63.5898L42.4336 60.6211V59.9375L33.8203 59.918V63.5312L33.7617 63.707L33.6445 63.8633L33.5469 63.9414L33.4297 64H33.0977L32.9219 63.8828L32.7852 63.7266L32.7266 63.6094L32.707 63.4336L32.6875 61.9688H24.0938V63.4727L24.0547 63.668L23.9375 63.8438L23.7031 64H23.3516V63.9609L23.2344 63.9219L23.0586 63.7461L23 63.6289V61.2266L23.1367 61.0508L23.2734 60.9336L23.3906 60.875L23.5273 60.8555H32.707V59.3516L32.7461 59.1758L32.8438 59.0195L33 58.8828L33.1367 58.8242L42.4336 58.8047L42.4531 57.4375L42.5703 57.2031L42.707 57.0859L42.8242 57.0273L43.0195 57.0078H52.1602L52.1797 55.2891L52.2578 55.0938L52.4141 54.9375L52.5703 54.8594L52.707 54.8398Z" fill="black"/>
<path d="M50.0312 45.9531H50.2656L50.5 46.0508L50.9102 46.2852L52.4141 47.125L52.8633 47.3789L53.8789 47.9453L54.3281 48.1992L54.8555 48.4922L55.1484 48.668L55.3438 48.8438L55.4219 49L55.4414 49.1172V52.1836L55.4219 52.418L55.3242 52.6133L55.168 52.75L55.0312 52.8086H54.7188L54.5625 52.7305L54.4258 52.5938L54.3477 52.418L54.3281 52.2812L54.3086 49.4688L53.8398 49.2148L53.5664 49.0586L53.0781 48.7852L52.2773 48.3359L51.8281 48.082L50.8516 47.5352L50.7148 47.457L50.6953 54.4688L50.6172 54.6641L50.5195 54.7812L50.3633 54.8789L50.2266 54.918H50.0508L49.8555 54.8398L49.7188 54.7227L49.6211 54.5469L49.6016 54.4883L49.582 54.2539V48.4922L49.6016 46.3828L49.6797 46.207L49.8164 46.0508L49.9531 45.9727L50.0312 45.9531Z" fill="black"/>
<path d="M29.9141 51.0703H30.1484L30.3438 51.1484L30.8125 51.4023L31.2227 51.6367L31.6523 51.8711L32.0625 52.1055L34.5039 53.4727L34.9531 53.7266L35.1094 53.8633L35.207 54.0391L35.2266 54.1172V56.6172L35.168 56.793L34.9922 56.9883L34.8945 57.0469L34.7188 57.0859L34.5234 57.0664L34.3281 56.9688L34.2109 56.832L34.1328 56.6562L34.1133 56.5V54.5469L33.7812 54.3516L33.4297 54.1562L32.9805 53.9023L32.4531 53.6094L31.9648 53.3359L31.5547 53.1016L30.9883 52.7891L30.6172 52.5742L30.5977 58.375L30.5781 58.5898L30.5 58.7461L30.4219 58.8438L30.2266 58.9609L30.1484 58.9805H29.9336L29.7383 58.9023L29.6406 58.8047L29.543 58.6875L29.5039 58.5703L29.4844 58.3945V51.5781L29.543 51.3828L29.6211 51.2656L29.7773 51.1289L29.9141 51.0703Z" fill="black"/>
</g>
<defs>
<clipPath id="clip0_151_418">
<rect width="40" height="40" fill="white" transform="translate(23 24)"/>
</clipPath>
</defs>
</svg>
