<svg width="87" height="87" viewBox="0 0 87 87" fill="none" xmlns="http://www.w3.org/2000/svg">
<circle cx="43.5" cy="43.5" r="43.5" fill="#B7EAFC"/>
<path d="M45.104 32.2881H45.8511L46.4004 32.3931L46.8179 32.54L47.1694 32.708L47.4111 32.834L47.7627 33.0649L48.0044 33.2539L48.4438 33.6318L48.7075 33.9048L48.9492 34.1987L49.2349 34.5767L49.4985 34.9756L49.8062 35.5425L50.0039 35.9624L50.1797 36.4243L50.3555 37.0542L50.4653 37.7051L50.4873 37.936V38.5449L50.4214 39.0908L50.3115 39.5737L50.1138 40.1406L49.916 40.5605L49.8501 40.7075L50.0479 40.7705L50.8389 41.1064L51.5859 41.4004L51.9375 41.5474L52.311 41.7573L52.5527 41.9253L52.7725 42.0933L52.9922 42.2822L53.2119 42.5132L53.4316 42.8071L53.6514 43.1851L53.7832 43.521L53.8711 43.8989L53.8931 44.0669V44.4658L53.8491 44.8018L53.7393 45.1587L53.5854 45.4736L53.4316 45.7256L53.2339 45.9565L53.0361 46.1455L52.7285 46.3555L52.355 46.5444L51.9595 46.6704L51.52 46.7544H50.6851L50.4434 46.7124L50.707 47.1113L50.9268 47.4893L51.3003 48.1821L51.6738 48.938L51.9375 49.5049L52.355 50.3867L52.7285 51.1846L53.0801 51.9194L53.3438 52.4863L53.6953 53.2212L54.0249 53.9141L54.2886 54.439L54.75 55.3208L54.9917 55.8037L55.1895 56.1606L55.2114 56.2866L55.4751 56.2026H55.7168L55.9585 56.2866L56.1562 56.4546L56.332 56.7485L56.5737 57.1895L56.7715 57.4204L56.9912 57.5884L57.3428 57.7773L57.8262 57.9453L58.3975 58.0713L58.9907 58.1553L60.0894 58.2603L60.5508 58.3442L60.9683 58.4912L61.2759 58.6592L61.5615 58.8901L61.7593 59.1421L61.8691 59.3521L61.9351 59.541L61.979 59.793V60.0869L61.957 60.2969H65.4287L65.6265 60.3599L65.8022 60.4858L65.9341 60.6538L65.9561 60.7378H66V61.1787L65.8462 61.4097L65.6704 61.5566L65.3848 61.6406H21.5713L21.3296 61.5566L21.1099 61.3677L21 61.1787V60.7588L21.1318 60.5488L21.3296 60.3809L21.5493 60.2969H29.3057L29.1958 60.1919V60.1499L29.1079 60.1079L28.9102 59.9189L28.7124 59.688L28.5146 59.436L28.229 58.9951L28.0093 58.5542L27.8115 58.0503L27.6357 57.4414L27.5039 56.7905L27.416 56.0977L27.3721 55.4888V54.25L27.416 53.5571L27.5039 52.7383L27.6357 51.9194L27.7456 51.3315L27.7676 51.1426L27.5698 50.7437L27.394 50.2397L27.2842 49.6938L27.2402 49.2949V48.3711L27.3281 47.6152L27.438 47.0063L27.6357 46.2085L27.8774 45.4526L28.1191 44.8018L28.4268 44.0879L28.5806 43.752L28.9321 43.0801L29.2178 42.5552L29.5254 42.0513L29.7891 41.6313L30.1846 41.0645L30.4482 40.7075L30.624 40.4766L30.8877 40.1406L31.1733 39.8047L31.415 39.5317L31.6128 39.3218L31.6348 39.2798H31.6787L31.7227 39.1958L32.0083 38.9229L32.1401 38.7759L32.3159 38.6289L32.5137 38.4399L32.6895 38.293L32.9971 38.041L33.3706 37.7681L33.7881 37.4741L34.2056 37.2222L34.667 36.9702L35.2603 36.6973L35.7217 36.5293L36.2271 36.3823L36.6006 36.2983L36.9741 36.2354L37.084 36.1304L37.3916 35.7524L37.6772 35.3955L37.897 35.1226L38.1826 34.7656L38.4023 34.4927L38.666 34.1567L38.8418 34.0308L39.0615 33.9468H39.3032L39.5449 34.0308L39.8525 34.2407L40.292 34.5557L40.7095 34.8496L40.8193 34.9126H40.8633L40.9072 34.8076L41.127 34.5347L41.3247 34.3247L41.4785 34.1567L41.918 33.7368L42.1597 33.5479L42.4453 33.3379L42.731 33.1489L43.1704 32.897L43.522 32.729L43.8735 32.582L44.335 32.4351L44.7964 32.3301L45.104 32.2881ZM45.3018 33.6318L44.8843 33.6948L44.4448 33.8208L43.9395 34.0308L43.6099 34.2197L43.3462 34.3877L43.0605 34.5977L42.7969 34.8076V34.8496L42.709 34.8916L42.4453 35.1436L42.2915 35.3115L41.9839 35.6895V35.7524H42.0278L42.0718 35.8364L42.4893 36.1304L42.7749 36.3403L43.1045 36.5713L43.1924 36.5503L43.7637 36.2983L44.291 36.0884L44.8623 35.9204L45.4336 35.8154L45.6094 35.7944H45.873L46.1147 35.8784L46.2905 36.0254L46.8618 36.8442L47.1475 37.2222L47.3892 37.4951L47.543 37.6631L47.9165 38.02L48.2021 38.23L48.7075 38.5449L48.9712 38.6919H49.0371L49.0591 38.5449V37.873L48.9712 37.3062L48.8174 36.7812L48.6416 36.3403L48.3779 35.8154L48.1143 35.3955L47.8945 35.1016L47.7188 34.8916L47.521 34.6816L47.4551 34.5977H47.4111L47.3672 34.5137L47.1914 34.3667L46.9277 34.1567L46.6201 33.9678L46.2686 33.7998L45.9829 33.6948L45.7852 33.6528L45.5874 33.6318H45.3018ZM39.3032 35.5635L39.1714 35.7524L38.8857 36.1094L38.7759 36.2563V36.3193L39.1934 36.4033L39.7207 36.5713L41.1489 37.1172L41.6763 37.3271L41.7422 37.3062L41.6104 37.2012H41.5664V37.1592L40.9731 36.7183L40.5557 36.4243L40.1162 36.1094L39.6987 35.8154L39.3472 35.5635H39.3032ZM45.3457 37.1802L44.8843 37.3062L44.4448 37.4741L44.2251 37.5791L44.2031 37.6421L44.4888 38.272L44.5986 38.4819L45.5435 38.8809L46.1147 39.1118L47.499 39.6997L48.1802 39.9937L48.4878 40.1196L48.5757 40.0776L48.5317 39.9937L47.9385 39.6577L47.5869 39.4478L47.2134 39.1958L46.9277 38.9648L46.752 38.8179L46.4443 38.5239L46.2466 38.293L45.939 37.915L45.6973 37.5791L45.4336 37.2012L45.3457 37.1802ZM37.3037 37.5791L36.8643 37.6421L36.3369 37.7681L35.9634 37.894L35.5679 38.062L35.0186 38.335L34.7769 38.4819L34.5132 38.6499L34.1616 38.9019L33.876 39.1118L33.5684 39.3638L33.2168 39.6787L32.7773 40.0986L32.6235 40.2666L32.4258 40.4766L32.228 40.7075L31.9204 41.0645L31.6128 41.4634L31.3931 41.7573L31.2173 42.0093L30.8657 42.5342L30.5581 43.0381L30.2505 43.584L29.877 44.2979L29.5693 44.9907L29.3276 45.5996L29.064 46.3555L28.8442 47.1533L28.7124 47.8252L28.6465 48.3081L28.6245 48.665V49.106L28.6685 49.5259L28.7563 49.9248L28.8882 50.2607L29.064 50.5547L29.2178 50.7227L29.5254 50.9116L29.855 51.0376L30.2725 51.1426L30.8438 51.2266L31.3491 51.2686L31.9204 51.2896H32.4917L33.5024 51.2476L34.7988 51.1426L35.9854 51.0166L36.1831 50.9746L36.3589 50.7017L36.7983 49.9668L37.084 49.5049L37.2158 49.2739L40.0283 44.5708L40.3359 44.0669L40.5557 43.7729L40.7974 43.521L40.9731 43.395L40.9512 43.332L39.8745 42.9331L39.0615 42.6392L38.644 42.4712L38.4463 42.3032L38.3364 42.0933L38.3145 42.0093V41.7993L38.4023 41.5684L38.4902 41.4424L38.666 41.3164L38.8418 41.2534H39.1494L39.479 41.3584L42.4673 42.4502L43.2583 42.7441L44.0713 43.0381L44.8184 43.311L45.4995 43.563L46.73 44.0039L49.1689 44.8857L49.916 45.1587L50.4214 45.3267L50.9268 45.4106H51.3223L51.6519 45.3477L51.9155 45.2427L52.2012 45.0327L52.355 44.8228L52.4429 44.6128L52.4648 44.5078V44.0879L52.377 43.7939L52.2012 43.479L52.0254 43.269L51.8276 43.0801L51.4761 42.8491L51.1245 42.6812L50.2896 42.3452L49.6304 42.0723L47.8726 41.3164L45.895 40.4766L45.2358 40.2036L44.0713 39.7207L43.2803 39.4058L42.6211 39.1538L41.4785 38.7129L40.7754 38.4399L39.9844 38.125L39.2593 37.8311L38.7759 37.6841L38.3584 37.6001L38.1387 37.5791H37.3037ZM42.665 44.1089L42.3354 44.1719L41.9839 44.3398L41.7861 44.4868L41.6323 44.6338L41.4126 44.9487L41.1929 45.3267L40.8853 45.8306L40.6655 46.2085L40.3579 46.7124L40.0503 47.2373L39.7427 47.7412L39.457 48.2241L39.1494 48.728L38.9517 49.064L38.71 49.4629L38.7319 49.5049L39.1494 49.2109L39.457 48.98L39.7427 48.77L40.0942 48.5181L40.4897 48.2241L40.7534 48.0352L41.2148 47.6992L41.6104 47.4053L41.9619 47.1533L42.3354 46.8804L42.7969 46.5444L43.0825 46.3345L43.4561 46.0615L43.8735 45.7676L44.4009 45.4316L44.7744 45.2217L45.126 45.0537L45.3237 44.9697L45.2578 44.9067L44.9282 44.7808L44.0713 44.4658L43.2363 44.1719L42.8848 44.1089H42.665ZM46.8179 45.9355L46.3564 46.0195L45.9829 46.1455L45.4336 46.3975L44.9941 46.6494L44.6206 46.9014L44.1592 47.2373L43.8955 47.4263L43.5 47.7202L43.1265 47.9932L42.665 48.3291L42.3135 48.5811L42.0278 48.791L41.083 49.4839L40.8193 49.6729L39.7866 50.4287L39.3252 50.7646L38.9736 51.0166L37.8311 51.8564L37.4795 52.1084L37.1938 52.3184L36.7764 52.6123L36.5566 52.7383L36.3149 52.9062L36.0073 53.1582L35.7656 53.3472L35.458 53.5991L35.2383 53.7671L34.9307 54.019L34.689 54.208L34.3813 54.46L34.0737 54.6909L33.876 54.8379L33.7441 54.9009L33.6343 54.9219H33.3486L33.1509 54.8379L33.041 54.7539H32.9971L32.8433 54.46L32.8213 54.397V54.166L32.9092 53.9351L33.1069 53.7251L33.3926 53.4941L33.6343 53.3052L33.9419 53.0532L34.1836 52.8643L34.4912 52.6123L34.6011 52.5073L33.3486 52.5913L32.7993 52.6123H31.6128L30.9536 52.5703L30.2725 52.4863L29.7671 52.3813L29.3057 52.2554L29.0859 52.1714H29.02L28.9102 52.8853L28.8223 53.6831L28.7783 54.5439V55.2788L28.8223 56.0137L28.9321 56.7695L29.0859 57.3994L29.2617 57.9033L29.5474 58.4702L29.7671 58.7852L30.0088 59.0581L30.2505 59.2681L30.5801 59.478L30.8657 59.604L31.2832 59.709L31.5908 59.751H32.8652L33.5244 59.709L34.2275 59.625L34.7549 59.52L35.2822 59.373L35.8315 59.1631L36.3369 58.9111L36.8643 58.5752L37.2158 58.3232L37.5234 58.0923L37.8311 57.8403L38.0508 57.6514L38.2925 57.4624L38.5562 57.2314L38.7319 57.0845L38.9956 56.8535L39.1714 56.7065L39.479 56.4546L39.7866 56.1816L39.9624 56.0347L40.27 55.7827L40.5776 55.5098L40.7534 55.3628L40.9731 55.1738L41.1489 55.0269L41.3906 54.8169L41.4346 54.7959V54.7539L41.5225 54.7119L41.7642 54.502L41.9399 54.355L42.2256 54.103L42.4673 53.9141L42.7969 53.6201L43.0166 53.4521V53.4102L43.1045 53.3682L43.3682 53.1372L43.5439 52.9902L43.8076 52.7593L44.0273 52.5703L44.269 52.3813L44.4229 52.2344L44.5986 52.0874L44.8184 51.8984L45.0601 51.7095L45.4116 51.3945L45.5874 51.2476L45.8071 51.0586L45.9829 50.9116L46.2246 50.7017L46.2686 50.6807V50.6387L46.3564 50.5967L46.5981 50.4707L46.708 50.4497H46.9277L47.1255 50.5127L47.3013 50.6177L47.4331 50.8066L47.5649 51.1216L48.0044 52.3604L48.2681 53.1162L48.5977 54.082L49.0151 55.3838L49.4985 56.8955L49.6523 56.8745L50.3115 56.6855L51.0146 56.4546L51.9155 56.1187L52.6626 55.7827L53.2119 55.5308L53.146 55.3208L52.8164 54.6489L52.5308 54.04L51.6958 52.2764L51.3662 51.5835L51.0806 50.9746L50.751 50.2817L50.3335 49.3999L50.0259 48.77L49.6963 48.1401L49.3887 47.6362L49.1689 47.3003L48.9053 46.9644L48.6196 46.6494L48.3999 46.4395L48.0703 46.2085L47.7188 46.0405L47.4111 45.9565L47.2573 45.9355H46.8179ZM46.4883 52.2974L46.2905 52.4443L46.0049 52.6963L45.7852 52.8853L45.6094 53.0322L45.3896 53.2212L45.2139 53.3682L44.9722 53.5781L44.7964 53.7251L44.4888 53.9771L44.1812 54.25L44.0054 54.397L43.6978 54.6489L43.3901 54.9219L43.2144 55.0688L42.9727 55.2788L42.7969 55.4258L42.5332 55.6567L42.3574 55.8037L42.1377 55.9927L41.9619 56.1396L41.7422 56.3286L41.5664 56.4756L41.3467 56.6646L41.1709 56.8115L40.9512 57.0005L40.7754 57.1475L40.5557 57.3364L40.3799 57.4834L40.1602 57.6724L39.8525 57.9243L39.5449 58.1973L39.3691 58.3442L39.0615 58.5962L38.8418 58.7852L38.6001 58.9741L38.3145 59.2051L37.9409 59.478L37.5894 59.73L37.106 60.0239L36.7104 60.2339L36.6665 60.2549V60.2969H50.2236L50.2456 60.2759L50.2676 58.3652L50.3335 58.1763L50.3555 58.0923L50.1797 58.1133L49.5205 58.2603L49.0811 58.3232L48.8394 58.3022L48.6416 58.2183L48.4878 58.0923L48.334 57.7983L47.8286 56.2236L47.3013 54.5859L46.8179 53.1582L46.5322 52.3184L46.4883 52.2974ZM53.8711 56.7275L53.3657 56.9585L52.6846 57.2524L51.7837 57.6094L51.7178 57.6724L51.7837 57.7563L52.0693 57.7354L52.7505 57.6094L53.2778 57.4624L53.8491 57.2314L54.0469 57.1265L54.0688 57.0635L53.915 56.7275H53.8711ZM55.3213 57.9453L55.0137 58.1343L54.6621 58.3232L54.3105 58.4912L53.8931 58.6592L53.3657 58.8271L52.8384 58.9531L52.0474 59.0791L51.6738 59.1211L51.6519 59.2471V60.2969H60.4409L60.4849 60.2759L60.5508 60.0869L60.5728 59.9399L60.5288 59.814L60.353 59.709L60.0234 59.625L59.5181 59.562L58.6392 59.478L57.98 59.373L57.2769 59.2051L56.8594 59.0581L56.354 58.8271L56.0903 58.6592L55.8047 58.4282L55.6509 58.2812L55.3872 57.9453H55.3213Z" fill="black"/>
<path d="M30.9102 25.3384H31.1519L31.5913 25.3804L31.9648 25.4644L32.4043 25.6323L32.7339 25.8003L33.0415 26.0103L33.2612 26.1992L33.3052 26.2202V26.2622H33.3491V26.3042H33.3931L33.5908 26.5352L33.8105 26.8291L34.0083 27.186L34.1621 27.585L34.272 28.1099V28.2358H34.8652L35.2607 28.2988L35.6343 28.4038L36.0298 28.5718L36.3594 28.7607L36.667 28.9917L36.7329 29.0337V29.0757L36.8208 29.1177L37.0405 29.3486L37.2822 29.6636L37.436 29.9155L37.5898 30.2515L37.7217 30.6924L37.7656 30.9023L37.7876 31.1123V31.5532L37.7437 31.8892L37.6558 32.2461L37.5239 32.582L37.3481 32.918L37.1724 33.1699L37.0186 33.3589L36.9746 33.4219H36.9307L36.8867 33.5059L36.6011 33.7578L36.2935 33.9678L35.8979 34.1777L35.4805 34.3247L35.1289 34.4087L34.7773 34.4507H33.8765L33.1294 34.4297L32.8877 34.3877L32.7119 34.3037L32.5581 34.1567L32.4482 33.9468L32.4263 33.8838V33.6108L32.5142 33.3799L32.668 33.2119L32.9316 33.0859L33.0415 33.0649L34.5137 33.0859L34.9092 33.0439L35.2607 32.939L35.5464 32.792L35.7441 32.645L35.9419 32.4561L36.1396 32.1621L36.2715 31.8472L36.3374 31.5532V31.1333L36.2715 30.8184L36.1396 30.5034L35.9639 30.2515L35.7661 30.0415L35.4585 29.8315L35.1069 29.6846L34.8652 29.6216L34.6675 29.6006H34.3599L34.0083 29.6636L33.6128 29.7896H33.3271L33.1074 29.7056L32.9316 29.5586L32.7998 29.3486L32.7778 29.2856V28.9707L32.8438 28.5928V28.3408L32.7778 27.9839L32.668 27.7109L32.5361 27.48L32.3823 27.291L32.1846 27.1021L31.877 26.9131L31.5693 26.7871L31.2397 26.7241H30.8223L30.4927 26.7871L30.207 26.8921L29.8994 27.0811L29.6357 27.312L29.4819 27.522L29.3062 27.8579L29.2183 28.2148L29.1963 28.3828V28.9287L29.1084 29.1387L29.0205 29.2646H28.9766V29.3066L28.7788 29.4116L28.647 29.4536L28.1196 29.4746L27.7461 29.5376L27.4604 29.6426L27.2407 29.7686L26.9551 29.9995L26.7793 30.2095L26.5815 30.5664L26.4937 30.8394L26.4497 31.1123V31.3643L26.5156 31.7002L26.6255 31.9731L26.7793 32.2251L26.9771 32.4561L27.2188 32.645L27.4824 32.792L27.79 32.897L28.0317 32.939L28.3174 32.96L29.6138 32.981L29.8774 33.0229L30.0532 33.1069L30.1631 33.2119L30.2949 33.3799L30.3608 33.5898V33.7788L30.3828 33.7158L30.4707 33.6318L30.6904 33.3169L30.9761 32.918L31.064 32.813L31.042 32.729L30.6904 32.4561L30.3389 32.2041L29.9873 31.9312L29.7236 31.7422L29.3281 31.4482L28.9766 31.1753L28.8447 30.9863L28.7788 30.7974V30.6084L28.8447 30.3984L29.0205 30.1675L29.2402 29.9365L29.416 29.7266L29.6577 29.4536L29.8555 29.2227L30.0972 28.9497L30.2949 28.7188L30.5366 28.4458L30.7344 28.2358L30.8882 28.1309L31.1519 28.0679L31.4375 28.1099L31.6353 28.2148L31.811 28.4038L31.8989 28.6138V28.9077L31.811 29.0967L31.6133 29.3486L31.3496 29.6426L31.1519 29.8735L30.9102 30.1465L30.6025 30.5034L30.5366 30.5664L30.5146 30.6294L30.6245 30.6714L30.8882 30.8813L31.1738 31.0913L31.4814 31.3223L31.855 31.5952L32.1846 31.8472L32.4702 32.0571L32.646 32.2251L32.7559 32.4351L32.7778 32.54V32.687L32.7119 32.897L32.5801 33.1069L32.2944 33.5059L31.5693 34.5137L31.3496 34.8286L31.0859 35.1855L30.7344 35.6895L30.5586 35.9204L30.207 36.4243L30.1191 36.5293L29.9214 36.6763L29.7236 36.7393L29.5698 36.7603L29.3062 36.6973L29.1084 36.5713L28.9546 36.3823L28.8887 36.2354L28.8667 36.0464L28.9326 35.7944L29.0645 35.5845L29.2842 35.2905L29.5479 34.9126L29.8335 34.5137L29.9873 34.2827L29.7236 34.3457H28.647L27.9878 34.3247L27.5703 34.2617L27.2627 34.1777L26.9111 34.0518L26.5815 33.8838L26.2959 33.6948L25.9883 33.4429L25.7466 33.1909L25.5269 32.897L25.3291 32.561L25.1753 32.2041L25.0654 31.8052L25.0215 31.5532V30.8813L25.1094 30.4194L25.2632 29.9995L25.439 29.6636L25.6367 29.3696L25.7686 29.2017H25.8125L25.8564 29.1177L26.1641 28.8237L26.4937 28.5928L26.8013 28.4248L27.1528 28.2778L27.6143 28.1519L27.7461 28.1309L27.812 27.8789L27.9219 27.48L28.0317 27.207L28.2075 26.8711L28.4492 26.5352L28.6909 26.2832L28.9106 26.0732L29.2402 25.8423L29.5479 25.6743L29.8335 25.5483L30.1631 25.4434L30.6245 25.3594L30.9102 25.3384Z" fill="black"/>
</svg>
