<svg width="29" height="21" viewBox="0 0 29 21" fill="none" xmlns="http://www.w3.org/2000/svg">
<g clip-path="url(#clip0_122_376)">
<path d="M3.30109 0.861328H25.6671L26.0653 0.893427L26.368 0.957626L26.6547 1.05392L26.9893 1.21442L27.1804 1.34282L27.3557 1.47121L27.5468 1.64776L27.722 1.8243L27.8813 2.03295L28.0406 2.28974L28.2 2.62678L28.2955 2.93173L28.3433 3.15642L28.3752 3.41321V17.7134L28.3274 18.0504L28.2477 18.3554L28.1203 18.6603L28.0088 18.885L27.8495 19.1258L27.6424 19.3826L27.5309 19.4949H27.499V19.527L27.3238 19.6714L27.0689 19.848L26.7662 20.0085L26.4636 20.1208L26.2246 20.185L25.9379 20.2332L25.7467 20.2492H3.22144L2.91876 20.2171L2.61609 20.1529L2.29749 20.0406L1.97888 19.8801L1.78772 19.7517L1.58063 19.5912L1.37354 19.3986L1.08679 19.0455L0.89563 18.7085L0.784119 18.4517L0.688538 18.1307L0.640747 17.8899L0.624817 17.7615L0.608887 17.4085V3.63791L0.624817 3.34901L0.672607 3.04407L0.752258 2.75518L0.8797 2.43419L1.02307 2.17739L1.1983 1.9206L1.37354 1.72801L1.45319 1.63171L1.58063 1.51936L1.78772 1.35887L2.0426 1.19837L2.37714 1.03787L2.69574 0.941576L2.93469 0.893427L3.30109 0.861328ZM3.22144 1.93665L2.98248 1.96875L2.82318 2.0169L2.91876 2.12925L3.14178 2.32184L3.31702 2.48234L3.49225 2.62678L3.7312 2.85148L3.85864 2.96382L4.01794 3.10827L4.19318 3.25272L4.30469 3.36506L4.47992 3.50951L4.68701 3.70211L4.81445 3.81445L4.97375 3.9589L5.14899 4.10335L5.38794 4.32804L5.56317 4.47249L5.78619 4.68113L5.96143 4.82558L6.18445 5.03422L6.35968 5.17867L6.47119 5.29102L6.64642 5.43546L6.86945 5.64411L7.04468 5.78855L7.2677 5.9972L7.44293 6.14164L7.55444 6.25399L7.68188 6.36634L7.90491 6.55893L8.09607 6.73548L8.2713 6.87993L8.49432 7.08857L8.62177 7.20092L8.78107 7.34536L8.9563 7.48981L9.17932 7.69845L9.30676 7.8108L9.52979 8.0034L9.72095 8.17994L9.84839 8.29229L10.0714 8.48488L10.2626 8.66143L10.39 8.77378L10.613 8.96637L10.8042 9.14292L10.9316 9.25526L11.1547 9.44786L11.3458 9.62441L11.4733 9.73675L11.6326 9.8812L11.8078 10.0256L12.0308 10.2343L12.1583 10.3466L12.3813 10.5392L12.5884 10.7318L12.7636 10.8763L12.9866 11.0849L13.1141 11.1973L13.3371 11.3899L13.5442 11.5825L13.7194 11.7269L13.9424 11.9355L14.1177 12.08L14.3407 12.2886L14.4681 12.401L14.5478 12.3849L14.6593 12.2726L14.8345 12.1281L15.0576 11.9195L15.185 11.8071L15.408 11.6146L15.6151 11.422L15.7903 11.2775L15.9974 11.0849L16.1249 10.9726L16.2842 10.8281L16.4594 10.6837L16.6984 10.459L16.8736 10.3145L17.0807 10.1219L17.2081 10.0096L17.3674 9.86515L17.5427 9.7207L17.7816 9.49601L17.9568 9.35156L18.1639 9.15897L18.2914 9.04662L18.4507 8.90217L18.6259 8.75773L18.8649 8.53303L18.9923 8.42069L19.2153 8.22809L19.3906 8.06759L19.518 7.95525L19.741 7.76265L19.9481 7.57006L20.0756 7.45771L20.2986 7.26512L20.4738 7.10462L20.6013 6.99227L20.8243 6.79968L21.0314 6.60708L21.1588 6.49473L21.3818 6.30214L21.573 6.12559L21.7004 6.01325L21.9235 5.82065L22.1306 5.62806L22.3058 5.48361L22.5288 5.27497L22.704 5.13052L22.8156 5.01817L22.9908 4.87373L23.2138 4.66508L23.3412 4.55273L23.5483 4.37619L23.7395 4.19964L23.7714 4.18359V4.15149L23.8351 4.1194L23.9944 3.97495L24.1218 3.8626L24.2971 3.70211L24.4245 3.58976L24.6316 3.41321L24.8228 3.23667L24.9502 3.12432L25.1891 2.91568L25.3803 2.73913L25.5078 2.62678L25.7148 2.45024L25.9379 2.24159L26.1131 2.09715L26.1609 2.049V2.0169L26.0016 1.96875L25.7467 1.93665H3.22144ZM1.94702 2.69098L1.81958 2.94778L1.75586 3.10827L1.69214 3.38111L1.67621 3.55766V17.5208L1.70807 17.8418L1.73993 17.9862L1.78772 18.0183L1.94702 17.8418L2.09039 17.6653L2.28156 17.4566L2.42493 17.2801L2.61609 17.0714V17.0393H2.64795L2.7276 16.943V16.9109H2.75946L2.90283 16.7344L3.06213 16.5578V16.5257H3.09399L3.20551 16.3973L3.39667 16.1726L3.50818 16.0442V16.0121H3.54004L3.65155 15.8837L3.84271 15.6591L3.98608 15.4986L4.0976 15.3702L4.28876 15.1455L4.43213 14.985L4.54364 14.8566L4.68701 14.6961L4.83038 14.5195L5.02155 14.3109L5.16492 14.1343L5.35608 13.9257L5.46759 13.7973L5.65875 13.5726L5.80212 13.4121V13.38H5.83398L5.9455 13.2516L6.02515 13.1553V13.1232H6.05701L6.20038 12.9467L6.24817 12.8985V12.8664H6.28003L6.39154 12.738L6.5827 12.5133L6.72607 12.3528L6.83759 12.2244L7.02875 11.9997L7.17212 11.8392L7.28363 11.7109L7.427 11.5504L7.57037 11.3738L7.76154 11.1652L7.90491 10.9886L8.09607 10.78V10.7479H8.12793L8.23944 10.6195L8.38281 10.4429L8.54211 10.2664V10.2343H8.57397L8.68549 10.1059L8.87665 9.8812L8.98816 9.7528V9.7207H9.02002L9.13153 9.59231L9.2749 9.41576L9.37048 9.30341L9.33862 9.23922L9.17932 9.09477L9.00409 8.93427L8.82886 8.78983L8.60583 8.58118L8.47839 8.46883L8.25537 8.27624L8.06421 8.09969L7.93677 7.98735L7.71375 7.79475L7.52258 7.61821L7.39514 7.50586L7.17212 7.31326L6.96503 7.12067L6.78979 6.97622L6.5827 6.78363L6.45526 6.67128L6.29596 6.52683L6.16852 6.41449L5.9455 6.22189L5.7384 6.0293L5.56317 5.88485L5.34015 5.67621L5.16492 5.53176L4.94189 5.32311L4.81445 5.21077L4.65515 5.06632L4.47992 4.92187L4.2569 4.71323L4.08167 4.56878L3.85864 4.36014L3.7312 4.24779L3.5719 4.10335L3.39667 3.9589L3.17365 3.75025L2.99841 3.60581L2.77539 3.39716L2.64795 3.28482L2.47272 3.12432L2.29749 2.97987L2.09039 2.78728L1.97888 2.69098H1.94702ZM27.0211 2.69098V2.72308L26.9574 2.75518L26.7822 2.91568L26.6547 3.02802L26.4954 3.17247L26.368 3.28482L26.2087 3.42926L26.0812 3.54161L25.8582 3.73421L25.683 3.8947L25.5078 4.03915L25.2688 4.26384L25.1254 4.37619V4.40829L25.0617 4.44039L24.8387 4.64903L24.6635 4.79348L24.4723 4.97002L24.3448 5.08237L24.1855 5.22682L24.0581 5.33916L23.8988 5.48361L23.7714 5.59596L23.5483 5.78855L23.389 5.933L23.2616 6.04535L23.0864 6.20584L22.9111 6.35029L22.6722 6.57498L22.4969 6.71943L22.3058 6.89597L22.1783 7.00832L22.0031 7.16882L21.8279 7.31326L21.5889 7.53796L21.4137 7.6824L21.2225 7.85895L21.0951 7.9713L20.9199 8.13179L20.7446 8.27624L20.5057 8.50093L20.3623 8.61328V8.64538L20.2986 8.67748L20.1393 8.82193L20.1074 8.83798V8.87007L20.0437 8.90217L19.8366 9.09477L19.6614 9.23922V9.30341L19.8047 9.46391L19.9481 9.64045L20.1393 9.8491L20.2827 10.0256L20.4738 10.2343L20.6172 10.4108L20.8083 10.6195L20.9517 10.796L21.1429 11.0047L21.2544 11.1331L21.4456 11.3578L21.6208 11.5504L21.7642 11.7269L21.9553 11.9355L22.0987 12.1121L22.2899 12.3207L22.3058 12.3528H22.3376L22.3695 12.417L22.5288 12.5936L22.6722 12.7701L22.8633 12.9788L22.9749 13.1072L23.166 13.3319L23.3412 13.5245L23.4846 13.701L23.6599 13.8936L23.7714 14.022L23.9625 14.2467L24.1378 14.4393L24.2811 14.6158L24.4723 14.8245L24.6157 15.001L24.8068 15.2097L24.9183 15.3381L25.0458 15.4986H25.0776L25.1095 15.5628L25.2688 15.7393L25.4122 15.9158L25.6033 16.1245L25.7148 16.2529L25.906 16.4776L26.0812 16.6702L26.2246 16.8467L26.4158 17.0554L26.5591 17.2319L26.7503 17.4406L26.8937 17.6171L27.1326 17.8739L27.1964 17.9702L27.2441 17.9862L27.2919 17.8097L27.3079 17.6813V3.41321L27.2601 3.17247L27.1645 2.89963L27.053 2.70703L27.0211 2.69098ZM18.8171 9.99355L18.6259 10.1701L18.4985 10.2824L18.3392 10.4269L18.2117 10.5392L17.9887 10.7318L17.7816 10.9244L17.6064 11.0689L17.3993 11.2615L17.2719 11.3738L17.1125 11.5183L16.9373 11.6627L16.6984 11.8874L16.5231 12.0318L16.316 12.2244L16.1886 12.3368L16.0293 12.4812L15.8859 12.5936V12.6257L15.8222 12.6578L15.6151 12.8504L15.4399 12.9948L15.2328 13.1874L15.1053 13.2998L14.946 13.4442L14.7708 13.5726L14.6115 13.6368H14.3885L14.261 13.5887L14.1177 13.4924L13.8947 13.2837L13.7194 13.1393L13.4964 12.9306L13.3212 12.7862L13.0981 12.5775L12.9707 12.4652L12.8114 12.3207L12.6362 12.1763L12.3972 11.9516L12.222 11.8071L11.999 11.5985L11.8715 11.4862L11.7122 11.3417L11.537 11.1973L11.314 10.9886L11.1387 10.8442L10.9157 10.6355L10.7883 10.5232L10.629 10.3787L10.4537 10.2343L10.2148 10.0096L10.1511 10.0256L10.0396 10.138L9.89618 10.3145L9.72095 10.5071L9.57758 10.6837L9.35455 10.9244L9.21118 11.101L9.03595 11.2936L8.92444 11.422L8.73328 11.6467L8.57397 11.8232L8.4306 11.9997L8.23944 12.2084L8.09607 12.3849L7.88898 12.6096L7.77747 12.738L7.60223 12.9467L7.427 13.1393L7.28363 13.3158L7.09247 13.5245L6.9491 13.701L6.742 13.9257L6.63049 14.0541L6.45526 14.2627L6.29596 14.4393L6.18445 14.5677L5.99329 14.7924L5.83398 14.9689L5.69061 15.1455L5.49945 15.3541L5.35608 15.5307L5.14899 15.7553L5.03748 15.8837L4.84631 16.1084L4.68701 16.285L4.54364 16.4615L4.32062 16.7023L4.17725 16.8788L3.98608 17.0875L3.84271 17.264L3.79492 17.3122V17.3443H3.76306L3.61969 17.5208L3.42853 17.7294L3.28516 17.906L3.09399 18.1146L2.95062 18.2912L2.7276 18.5319L2.58423 18.7085L2.42493 18.869L2.50458 18.9492L2.7276 19.0616L2.91876 19.1258L3.17365 19.1739L3.39667 19.19H25.2051L25.8423 19.1739L26.129 19.1097L26.3361 19.0295L26.5751 18.9011V18.8529L26.3839 18.6282L26.2724 18.4998L26.129 18.3393L25.9857 18.1628L25.7945 17.9541L25.683 17.8257L25.4918 17.6011L25.3484 17.4406L25.2369 17.3122L25.0936 17.1517L24.9502 16.9751L24.759 16.7665L24.6157 16.5899L24.4404 16.3973L24.3289 16.2689L24.1696 16.0924L24.0262 15.9158L23.8351 15.7072L23.6917 15.5307L23.5005 15.322L23.3572 15.1455L23.1819 14.9529L23.0704 14.8245L22.9271 14.664L22.7837 14.4874L22.6085 14.2948L22.4969 14.1664L22.3536 14.0059L22.2102 13.8294L22.019 13.6208L21.8757 13.4442L21.6845 13.2356L21.573 13.1072L21.4296 12.9467L21.2863 12.7701L21.0951 12.5615L20.9517 12.3849L20.7606 12.1763L20.649 12.0479L20.4579 11.8232L20.3145 11.6627L20.203 11.5343L20.0596 11.3738L19.9163 11.1973L19.7251 10.9886L19.5817 10.8121L19.3906 10.6034L19.2472 10.4269L19.072 10.2343L18.9604 10.1059L18.8649 9.99355H18.8171Z" fill="black"/>
</g>
<defs>
<clipPath id="clip0_122_376">
<rect width="29" height="21" fill="white"/>
</clipPath>
</defs>
</svg>
