<?xml version="1.0" encoding="UTF-8"?>
<svg version="1.1" viewBox="0 0 2048 2048" width="512" height="512" xmlns="http://www.w3.org/2000/svg">
<path transform="translate(189,1535)" d="m0 0h1669l22 2 16 4 16 7 13 7 12 9 10 9 7 7 11 15 9 17 6 17 4 20v30l-4 20-6 16-8 16-10 14-9 10-11 10-15 10-19 9-17 5-10 2-11 1h-1682l-21-3-18-6-16-8-12-8-13-11-11-12-7-10-8-14-6-14-5-19-2-17v-11l2-18 5-19 7-17 10-16 8-10 5-6h2v-2l11-9 13-9 15-8 18-6 17-3z"/>
<path transform="translate(189,895)" d="m0 0h1669l22 2 16 4 16 7 13 7 12 9 10 9 7 7 11 15 9 17 6 17 4 20v30l-4 20-6 16-8 16-10 14-9 10-11 10-15 10-19 9-17 5-10 2-11 1h-1682l-21-3-18-6-16-8-12-8-13-11-11-12-7-10-8-14-6-14-5-19-2-17v-11l2-18 5-19 7-17 10-16 8-10 5-6h2v-2l11-9 13-9 15-8 18-6 17-3z"/>
<path transform="translate(189,255)" d="m0 0h1669l22 2 16 4 16 7 13 7 12 9 10 9 7 7 11 15 9 17 6 17 4 20v30l-4 20-6 16-8 16-10 14-9 10-11 10-15 10-19 9-17 5-10 2-11 1h-1682l-21-3-18-6-16-8-12-8-13-11-11-12-7-10-8-14-6-14-5-19-2-17v-11l2-18 5-19 7-17 10-16 8-10 5-6h2v-2l11-9 13-9 15-8 18-6 17-3z"/>
</svg>
