<svg width="27" height="27" viewBox="0 0 27 27" fill="none" xmlns="http://www.w3.org/2000/svg">
<g clip-path="url(#clip0_122_391)">
<path d="M6.9082 0.738281H20.0918L20.5005 0.764648L20.9224 0.817383L21.2651 0.883301L21.5815 0.962402L21.9243 1.06787L22.2803 1.19971L22.6626 1.37109L22.9922 1.54248L23.2559 1.70068L23.4141 1.80615L23.6382 1.96436L23.8096 2.09619L23.9414 2.20166L24.126 2.35986L24.3237 2.54443L24.5742 2.79492L24.6665 2.90039L24.8247 3.08496L25.0093 3.32227L25.2202 3.62549L25.418 3.95508L25.5498 4.19238L25.7344 4.57471L25.9058 5.00977L26.0376 5.43164L26.1431 5.87988L26.209 6.28857L26.2485 6.6709L26.2617 6.92139V20.0654L26.2354 20.4873L26.1826 20.896L26.1035 21.3047L25.998 21.7002L25.8662 22.0957L25.7212 22.4517L25.5366 22.834L25.4443 23.0054L25.2861 23.269L25.1807 23.4272L25.062 23.5986L24.9434 23.7568L24.772 23.9678L24.6533 24.1128L24.5479 24.2183L24.4556 24.3237L24.2446 24.5347L24.1392 24.627L23.9414 24.7983L23.7041 24.9829L23.4668 25.1543L23.1768 25.3389L22.8999 25.4971L22.5967 25.6553L22.2275 25.8135L21.8584 25.9453L21.4497 26.064L21.0146 26.1562L20.6719 26.209L20.2632 26.2485L19.9468 26.2617H7.04004L6.69727 26.2485L6.30176 26.209L5.82715 26.1299L5.44482 26.0376L5.0625 25.9189L4.70654 25.7871L4.27148 25.5894L4.021 25.4575L3.79688 25.3257L3.49365 25.1279L3.24316 24.9434L3.09814 24.8247L2.92676 24.6797L2.79492 24.561L2.5708 24.3501L2.55762 24.3105L2.51807 24.2974L2.42578 24.1919L2.3335 24.0996L2.21484 23.9546L2.03027 23.7305L1.85889 23.48L1.7666 23.3481L1.59521 23.0713L1.43701 22.7812L1.25244 22.3989L1.10742 22.0298L0.98877 21.6738L0.883301 21.252L0.804199 20.8301L0.751465 20.3818L0.738281 20.1709V6.78955L0.777832 6.34131L0.856934 5.8667L0.949219 5.47119L1.06787 5.07568L1.22607 4.66699L1.42383 4.23193L1.58203 3.94189L1.79297 3.59912L1.89844 3.4541L2.03027 3.26953L2.20166 3.05859L2.32031 2.91357L2.38623 2.83447H2.4126L2.43896 2.78174L2.5708 2.6499L2.58398 2.62354H2.61035V2.59717H2.63672V2.5708L2.74219 2.47852L2.84766 2.37305L2.95312 2.28076L3.16406 2.10938L3.38818 1.93799L3.70459 1.72705L3.94189 1.58203L4.23193 1.42383L4.58789 1.25244L4.95703 1.10742L5.36572 0.975586L5.73486 0.883301L6.14355 0.804199L6.47314 0.764648L6.9082 0.738281ZM6.93457 1.80615L6.53906 1.83252L6.104 1.89844L5.72168 1.99072L5.37891 2.09619L5.00977 2.24121L4.62744 2.42578L4.31104 2.61035L4.15283 2.71582L3.92871 2.87402L3.71777 3.04541L3.58594 3.16406L3.48047 3.25635L3.17725 3.55957L3.05859 3.70459L2.91357 3.87598L2.80811 4.021L2.62354 4.29785L2.50488 4.49561L2.37305 4.73291L2.18848 5.1416L2.05664 5.51074L1.96436 5.84033L1.88525 6.20947L1.8457 6.44678L1.81934 6.75L1.80615 7.02686V20.0259L1.83252 20.4214L1.88525 20.7905L1.96436 21.1729L2.06982 21.5288L2.18848 21.8584L2.3335 22.1748L2.43896 22.3857L2.5708 22.623L2.78174 22.9395L2.90039 23.0977L3.00586 23.2295L3.16406 23.4141L3.19043 23.4536H3.2168L3.24316 23.5063L3.50684 23.77H3.5332V23.7964L3.67822 23.915L3.81006 24.0337L4.06055 24.2183L4.2583 24.3501L4.52197 24.5083L4.87793 24.6929L5.18115 24.8247L5.44482 24.917L5.64258 24.9829L5.95898 25.062L6.31494 25.1279L6.63135 25.1675L6.81592 25.1807L7.27734 25.1938H19.8413L20.1973 25.1807L20.5928 25.1411L20.9092 25.0884L21.2915 24.9961L21.5947 24.9038L21.9639 24.7588L22.2012 24.6533L22.4912 24.4951L22.7153 24.3633L22.8735 24.2578L23.0581 24.126L23.2427 23.981L23.4404 23.8096L23.5459 23.7173V23.6909L23.5986 23.6646L23.7305 23.5327V23.5063H23.7568L23.8491 23.4009L24.0073 23.2163L24.1392 23.0449L24.271 22.8604L24.416 22.6362L24.5874 22.333L24.7588 21.9771L24.8906 21.6343L25.0093 21.252L25.0884 20.9224L25.1411 20.6191L25.1807 20.1841V6.81592L25.1543 6.5127L25.1016 6.15674L25.0225 5.7876L24.917 5.44482L24.7983 5.11523L24.6533 4.79883L24.4688 4.44287L24.2842 4.15283L24.1523 3.96826L24.0205 3.79688L23.8623 3.6123L23.77 3.50684L23.4272 3.16406L23.2822 3.04541L23.1108 2.90039L22.8604 2.729L22.6626 2.59717L22.3857 2.43896L22.1616 2.32031L21.8584 2.18848L21.542 2.06982L21.1729 1.96436L20.8169 1.88525L20.4346 1.83252L19.9731 1.80615H6.93457Z" fill="black"/>
<path d="M13.4604 6.96094L13.9087 6.97412L14.3174 7.01367L14.7393 7.07959L15.1479 7.17188L15.5039 7.27734L15.9126 7.42236L16.2422 7.56738L16.4927 7.68604L16.7827 7.84424L17.0332 8.00244L17.1914 8.10791L17.376 8.23975L17.5474 8.37158L17.6924 8.49023L17.877 8.64844L18.0879 8.84619L18.2461 9.00439L18.3384 9.10986L18.4834 9.26807L18.5889 9.3999L18.7734 9.63721L18.9185 9.84814L19.103 10.1382L19.2876 10.4678L19.4458 10.7842L19.604 11.1665L19.7095 11.4697L19.8018 11.7729L19.894 12.1553L19.96 12.5244L20.0127 12.9727L20.0259 13.1572V13.8296L19.9863 14.2778L19.9204 14.7129L19.8413 15.0688L19.7358 15.4512L19.6172 15.7939L19.459 16.1763L19.2744 16.5586L19.1162 16.8354L18.9844 17.0464L18.813 17.2969L18.6943 17.4551L18.5493 17.6396L18.3911 17.8242L18.3516 17.877H18.3252L18.2988 17.9297L17.9033 18.3252H17.877V18.3516L17.7319 18.4702L17.5605 18.6152L17.2969 18.813L17.02 18.9976L16.8486 19.103L16.5718 19.2612L16.3477 19.3799L15.9917 19.5381L15.6357 19.6699L15.3062 19.7754L14.937 19.8677L14.6074 19.9336L14.2383 19.9863L13.9614 20.0127L13.7373 20.0259H13.1968L12.8408 19.9995L12.4453 19.9468L12.1025 19.8809L11.6807 19.7754L11.2061 19.6172L10.8237 19.459L10.4414 19.2744L10.2041 19.1426L9.8877 18.9448L9.66357 18.7866L9.43945 18.6152L9.26807 18.4702L9.1626 18.3779L9.03076 18.2593L8.63525 17.8638L8.54297 17.7583L8.3584 17.5342L8.17383 17.2837L7.96289 16.9673L7.84424 16.7695L7.72559 16.5586L7.54102 16.1895L7.36963 15.7676L7.21143 15.293L7.10596 14.8711L7.02686 14.4097L6.97412 13.9219L6.96094 13.645V13.355L6.9873 12.9199L7.02686 12.5771L7.10596 12.1289L7.21143 11.707L7.36963 11.2324L7.51465 10.8633L7.7124 10.4546L7.88379 10.1514L8.04199 9.90088L8.2002 9.67676L8.31885 9.51855L8.46387 9.33398L8.58252 9.20215L8.6748 9.09668L8.79346 8.96484L9.09668 8.66162L9.2417 8.54297L9.37354 8.42432L9.54492 8.29248L9.78223 8.12109L10.0195 7.96289L10.3096 7.7915L10.6128 7.6333L10.916 7.48828L11.3643 7.31689L11.7466 7.19824L12.2476 7.07959L12.6694 7.01367L13.0781 6.97412L13.4604 6.96094ZM13.2231 8.04199L12.8936 8.06836L12.4585 8.13428L12.1685 8.2002L11.8389 8.29248L11.4697 8.42432L11.1138 8.58252L10.8105 8.74072L10.4678 8.95166L10.2173 9.13623L10.0459 9.26807L9.92725 9.37354L9.82178 9.46582L9.75586 9.51855V9.54492L9.70312 9.57129V9.59766L9.65039 9.62402L9.54492 9.72949L9.45264 9.83496L9.33398 9.9668L9.18896 10.1514L9.01758 10.3755L8.80664 10.7051L8.63525 11.0215L8.49023 11.3247L8.34521 11.6938L8.22656 12.0762L8.14746 12.4189L8.10791 12.6299L8.06836 12.9067L8.04199 13.2891V13.7109L8.06836 14.0801L8.13428 14.5283L8.23975 14.9766L8.39795 15.4512L8.54297 15.7939L8.71436 16.1367L8.84619 16.3608L9.03076 16.6377L9.18896 16.8486L9.36035 17.0596L9.51855 17.231L9.66357 17.3892L9.86133 17.5737L10.0459 17.7319L10.27 17.9033L10.6655 18.167L10.9951 18.3516L11.2192 18.457L11.3906 18.5361L11.6938 18.6548L12.0894 18.7734L12.498 18.8657L12.8408 18.9185L13.1177 18.9448L13.4077 18.958H13.6318L14.0273 18.9316L14.4229 18.8789L14.8579 18.7866L15.2402 18.668L15.5698 18.5493L15.9126 18.3911L16.2422 18.2197L16.4927 18.0615L16.7036 17.9165L16.9277 17.7451L17.1123 17.5869L17.3101 17.4023L17.5605 17.1519L17.6792 17.0068L17.6924 16.9673H17.7188L17.8901 16.7432L18.0483 16.519L18.2461 16.2026L18.457 15.7939L18.6021 15.4512L18.7603 14.9634L18.8525 14.5679L18.9185 14.1592L18.9448 13.8691L18.958 13.4209L18.9448 13.1045L18.8921 12.6431L18.8262 12.3003L18.7075 11.8521L18.5889 11.5225L18.4438 11.1797L18.2856 10.8633L18.0879 10.5337L17.9033 10.27L17.7715 10.0986L17.6265 9.92725L17.5342 9.82178L17.4814 9.75586H17.4551L17.4287 9.70312L17.2441 9.51855H17.2178V9.49219L17.1123 9.3999L16.9673 9.28125L16.7695 9.12305L16.5059 8.93848L16.2686 8.79346L16.0312 8.66162L15.8203 8.55615L15.6226 8.46387L15.2402 8.31885L14.8315 8.2002L14.5283 8.13428L14.1987 8.08154L13.7769 8.04199H13.2231Z" fill="black"/>
<path d="M20.1841 4.20508H20.3555L20.5928 4.23145L20.8169 4.28418L21.0278 4.36328L21.252 4.48193L21.4365 4.61377L21.6211 4.77197L21.7134 4.87744L21.8452 5.04883L21.9639 5.24658L22.0693 5.51025L22.1353 5.76074L22.1616 5.94531V6.26172L22.1221 6.53857L22.043 6.80225L21.9243 7.05273L21.7661 7.29004L21.6079 7.46143L21.4893 7.58008L21.2651 7.73828L21.041 7.85693L20.8301 7.93604L20.5532 8.00195L20.4346 8.01514H20.0522L19.8149 7.97559L19.604 7.90967L19.4458 7.84375L19.248 7.73828L19.0635 7.60645L18.8657 7.42188L18.8525 7.38232H18.8262L18.6943 7.21094L18.5625 7L18.4702 6.78906L18.3911 6.53857L18.3516 6.30127V5.94531L18.3911 5.69482L18.457 5.4707L18.5625 5.2334L18.6812 5.03564L18.7866 4.90381L18.9053 4.77197L19.0239 4.65332L19.2217 4.5083L19.4326 4.38965L19.6963 4.28418L19.9204 4.23145L20.1841 4.20508ZM20.1445 5.28613L19.9336 5.33887L19.7754 5.43115L19.6172 5.57617L19.5249 5.72119L19.459 5.86621L19.4326 5.98486V6.24854L19.4722 6.40674L19.5513 6.56494L19.6567 6.69678L19.7754 6.80225L19.9863 6.90771L20.1577 6.94727H20.3423L20.5269 6.90771L20.7114 6.81543L20.8301 6.72314L20.9224 6.63086L21.0278 6.44629L21.0806 6.26172L21.0938 6.16943V6.05078L21.0674 5.90576L21.0015 5.73438L20.9224 5.60254L20.7773 5.45752L20.6323 5.36523L20.5005 5.3125L20.3687 5.28613H20.1445Z" fill="black"/>
</g>
<defs>
<clipPath id="clip0_122_391">
<rect width="27" height="27" fill="white"/>
</clipPath>
</defs>
</svg>
