<svg width="26" height="24" viewBox="0 0 26 24" fill="none" xmlns="http://www.w3.org/2000/svg">
<g clip-path="url(#clip0_122_239)">
<path d="M12.0975 0H13.9197V0.0117188L14.7169 0.09375L15.1978 0.164062L15.7293 0.257812L16.2101 0.363281L16.6657 0.480469L17.058 0.597656L17.4249 0.714844L17.8805 0.878906L18.2854 1.04297L18.7157 1.23047L19.0827 1.40625L19.3737 1.55859L19.6774 1.72266L19.9178 1.86328L20.2975 2.09766L20.4999 2.22656L20.5506 2.21484L20.7277 2.10938L20.9935 1.99219L21.2339 1.92188L21.411 1.88672L21.6641 1.86328H21.8666L22.1197 1.88672L22.3348 1.93359L22.5626 2.00391L22.7777 2.09766L22.9802 2.21484L23.1573 2.34375L23.3092 2.47266V2.49609H23.3345L23.4484 2.625L23.5876 2.8125L23.6635 2.92969L23.7774 3.17578L23.8533 3.42188L23.8913 3.64453V4.04297L23.866 4.20703L23.8027 4.44141L23.6888 4.71094L23.537 4.94531L23.5117 4.98047L23.5243 5.02734L23.8533 5.48438L24.0052 5.70703L24.1191 5.88281L24.2962 6.16406L24.486 6.49219L24.7265 6.9375L24.8783 7.25391L25.0681 7.6875L25.1567 7.89844L25.3086 8.32031L25.4098 8.625L25.549 9.10547L25.6629 9.57422L25.7641 10.0898L25.84 10.6055L25.8907 11.0625H25.916V12.9023L25.8907 12.9258L25.84 13.3828L25.7768 13.8281L25.7008 14.2617L25.587 14.7539L25.4731 15.1641L25.3465 15.5742L25.1947 15.9961L25.0555 16.3477L24.8783 16.7461L24.7138 17.0859L24.524 17.4492L24.3975 17.6719L24.2076 17.9883L24.0937 18.1641L23.9166 18.4336L23.7141 18.7148L23.5749 18.9023L23.4104 19.1133L23.1573 19.418L22.9928 19.6055L22.8789 19.7344L22.7271 19.8984L22.5879 20.0391L22.4993 20.1328L22.2968 20.332L21.8793 20.7188L21.778 20.8008L21.5755 20.9766L21.4743 21.0586L21.2972 21.1992L21.158 21.3047L20.9555 21.457L20.791 21.5742L20.5885 21.7148L20.3481 21.8672L20.2089 21.9609L19.9178 22.1367L19.5888 22.3242L19.2598 22.5L18.9055 22.6758L18.4752 22.875L18.1083 23.0273L17.678 23.1914L17.1972 23.3555L16.729 23.4961L16.1722 23.6367L15.628 23.7539L15.0839 23.8477L14.5524 23.918L13.983 23.9766L13.7679 24H12.0216V23.9883L11.2623 23.9062L10.7435 23.8359L10.0475 23.707L9.45275 23.5664L8.90861 23.4141L8.4404 23.2617L7.95954 23.0859L7.55461 22.9219L7.11171 22.7227L6.74473 22.5469L6.44103 22.3828L6.16263 22.2305L5.88424 22.0664L5.60585 21.8906L5.41603 21.7734L5.35276 21.7852L5.23887 21.8555L5.04906 21.9492L4.78332 22.043L4.51758 22.1016L4.31511 22.125H3.97344L3.69505 22.0898L3.47993 22.0312L3.27746 21.9609L3.03703 21.8438L2.8219 21.7031L2.6574 21.5625L2.53086 21.4453L2.36635 21.2461L2.23981 21.0352L2.15123 20.8594L2.06265 20.5898L2.02468 20.3789L2.01203 20.25V20.0625L2.03734 19.8398L2.10061 19.5938L2.17654 19.3945L2.27777 19.1953L2.39166 19.0312L2.40431 18.9844L2.20184 18.7031L2.10061 18.5742L1.9361 18.3281L1.80956 18.1406L1.61975 17.8359L1.45524 17.5547L1.35401 17.3789L1.21481 17.1094L1.06296 16.8047L0.911108 16.4648L0.784565 16.1602L0.632714 15.7617L0.480863 15.3047L0.341666 14.8125L0.227777 14.3203L0.139197 13.8516L0.0759257 13.4062L0.0126543 12.8438L0 12.7969V11.168L0.0253086 11.0508L0.101234 10.3945L0.189814 9.86719L0.316357 9.29297L0.468208 8.74219L0.607405 8.32031L0.733948 7.96875L0.911108 7.53516L1.08827 7.14844L1.25277 6.82031L1.36666 6.59766L1.51851 6.33984L1.64506 6.11719L1.84752 5.80078L1.98672 5.58984L2.2145 5.27344L2.31573 5.17969L2.44228 5.12109L2.58147 5.09766L2.78394 5.12109L2.92314 5.19141L3.03703 5.29688L3.1003 5.41406L3.12561 5.48438V5.66016L3.06234 5.8125L2.74598 6.28125L2.61944 6.48047L2.54351 6.59766L2.46758 6.72656L2.23981 7.13672L2.04999 7.51172L1.97407 7.66406H6.93455L7.03578 7.39453L7.13701 7.20703L7.22559 7.06641L7.41541 6.83203H7.44072L7.46603 6.78516L7.56726 6.69141L7.70646 6.58594L7.90893 6.45703L8.14936 6.33984L8.38979 6.25781L8.65553 6.19922L8.84534 6.1875L8.90861 5.88281L9.0225 5.39062L9.14904 4.91016L9.31355 4.33594L9.49071 3.80859L9.68052 3.29297L9.89565 2.78906L10.0981 2.36719L10.3385 1.92188L10.5157 1.64062L10.6929 1.38281L10.8447 1.18359L10.8953 1.11328L10.4271 1.19531L9.94626 1.30078L9.41478 1.44141L8.95923 1.58203L8.61756 1.69922L8.25059 1.83984L7.88362 1.99219L7.59257 2.12109L7.35214 2.23828L7.07374 2.37891L6.73208 2.56641L6.49165 2.70703L6.03609 2.98828L5.90955 3.03516L5.83362 3.04688H5.73239L5.58054 3.01172L5.45399 2.94141L5.36541 2.84766L5.28949 2.71875L5.26418 2.61328L5.27683 2.47266L5.32745 2.34375L5.40338 2.25L5.51727 2.15625L6.01078 1.85156L6.30183 1.6875L6.51695 1.57031L6.808 1.41797L7.14967 1.25391L7.45337 1.11328L7.73177 0.996094L8.16201 0.832031L8.63022 0.667969L9.21232 0.492188L9.66787 0.375L10.1361 0.269531L10.6422 0.175781L11.1358 0.105469L11.5027 0.0585938L12.0469 0.0117188L12.0975 0ZM12.9327 0.9375L12.7429 0.960938L12.553 1.01953L12.3885 1.10156L12.2114 1.21875L12.0342 1.35938L11.9077 1.47656L11.6799 1.73438L11.5154 1.95703L11.3762 2.15625L11.237 2.37891L11.1611 2.50781L10.9839 2.84766L10.87 3.08203L10.6929 3.49219L10.5031 3.98438L10.3512 4.42969L10.1614 5.07422L10.0095 5.66016L9.87034 6.28125V6.35156L10.0855 6.45703L10.2373 6.55078L10.4145 6.67969L10.6296 6.87891L10.7688 7.05469L10.8827 7.23047L10.9839 7.42969L11.0725 7.67578L16.2481 7.6875L16.2861 7.67578L16.2734 7.53516L16.1722 6.92578L16.0583 6.33984L15.9191 5.71875L15.7925 5.22656L15.6533 4.73438L15.5395 4.37109L15.337 3.79688L15.1978 3.44531L15.0586 3.12891L14.9194 2.83594L14.7422 2.49609L14.5524 2.17969L14.3626 1.89844L14.2614 1.76953L14.1222 1.60547L13.983 1.45312L13.8311 1.3125L13.654 1.18359L13.5274 1.10156L13.325 1.00781L13.1605 0.960938L12.9327 0.9375ZM15.0206 1.11328L15.0586 1.18359L15.2231 1.39453L15.3876 1.64062L15.5774 1.94531L15.8305 2.41406L16.0077 2.78906L16.2101 3.26953L16.3999 3.77344L16.5518 4.23047L16.7036 4.73438L16.8682 5.35547L17.0074 5.95312L17.1339 6.57422L17.2604 7.3125L17.3111 7.65234L17.3237 7.67578L17.3743 7.6875L23.9419 7.67578L23.9292 7.61719L23.7394 7.23047L23.5117 6.80859L23.3471 6.53906L23.1573 6.23438L22.9675 5.96484L22.7651 5.68359L22.7144 5.625L22.6385 5.63672L22.436 5.70703L22.1956 5.76562L22.0564 5.78906L21.9172 5.80078H21.5755L21.3098 5.76562L21.0947 5.70703L20.8922 5.63672L20.6518 5.51953L20.4746 5.40234L20.3354 5.29688L20.1583 5.13281L19.9938 4.93359L19.8672 4.72266L19.7786 4.54688L19.6901 4.27734L19.6521 4.07812L19.6394 3.9375V3.78516L19.6648 3.53906L19.728 3.28125L19.8039 3.08203L19.8419 3L19.8293 2.95312L19.5762 2.78906L19.3231 2.63672L19.0953 2.50781L18.7916 2.34375L18.4879 2.19141L18.1715 2.03906L17.8172 1.88672L17.4629 1.74609L17.1339 1.62891L16.7922 1.51172L16.2987 1.37109L15.8179 1.25391L15.299 1.14844L15.1092 1.11328H15.0206ZM21.7021 2.8125L21.5249 2.83594L21.3225 2.89453L21.12 3L20.9555 3.14062L20.8669 3.23438L20.7657 3.39844L20.7024 3.53906L20.6644 3.70312L20.6518 3.86719L20.6771 4.05469L20.7404 4.24219L20.8416 4.41797L20.9428 4.53516L21.0314 4.61719L21.1959 4.72266L21.3984 4.81641L21.6262 4.86328H21.9046L22.1197 4.81641L22.2715 4.75781L22.4107 4.67578L22.5373 4.58203L22.6512 4.46484L22.7524 4.3125L22.8157 4.17188L22.8663 3.97266V3.72656L22.8283 3.55078L22.7651 3.39844L22.6891 3.26953L22.6005 3.16406L22.5373 3.09375L22.3728 2.97656L22.1703 2.88281L22.0058 2.83594L21.816 2.8125H21.7021ZM8.94658 7.125L8.76942 7.14844L8.56695 7.20703L8.38979 7.30078L8.26325 7.39453L8.14936 7.5L8.03547 7.66406L7.94689 7.83984L7.90893 8.01562L7.89627 8.19141L7.93423 8.41406L7.98485 8.55469L8.08609 8.73047L8.18732 8.84766L8.28855 8.94141L8.4151 9.02344L8.61756 9.11719L8.79472 9.16406L8.87065 9.17578H9.14904L9.36417 9.12891L9.51602 9.07031L9.65522 8.98828L9.78176 8.89453L9.89565 8.77734L9.98423 8.64844L10.0475 8.51953L10.0981 8.35547L10.1108 8.27344V8.03906L10.0728 7.86328L10.0095 7.71094L9.93361 7.58203L9.78176 7.40625L9.61725 7.28906L9.41478 7.19531L9.25028 7.14844L9.06046 7.125H8.94658ZM1.58179 8.625L1.4679 8.96484L1.29074 9.62109L1.21481 9.96094L1.13889 10.3945L1.08827 10.7578L1.05031 11.1211L1.025 11.4961L1.01234 12.0586L1.025 12.5039L1.06296 13.0312L1.12623 13.5469L1.21481 14.0508L1.3287 14.5547L1.4679 15.0469L1.56913 15.3516L1.58179 15.3633H8.46571V15.2578L8.38979 14.4023L8.35182 13.8516L8.31386 12.9492L8.30121 12.2812V11.5547L8.31386 11.0039L8.35182 10.1602V10.043L8.28855 10.0078L8.03547 9.90234L7.89627 9.83203L7.68115 9.69141L7.51664 9.55078L7.37745 9.42188L7.21294 9.21094L7.0864 9L6.98516 8.75391L6.93455 8.625H1.58179ZM11.0851 8.625L11.0345 8.74219L10.9586 8.94141L10.8574 9.12891L10.7055 9.33984L10.5916 9.46875L10.4018 9.64453L10.2373 9.76172L9.98423 9.90234L9.78176 9.98438L9.55398 10.0547L9.40213 10.0898L9.37682 10.1016L9.36417 10.2422L9.3262 11.1797V12.9023L9.36417 13.8164L9.41478 14.543L9.49071 15.3281L9.50336 15.3633H14.8055L14.9194 15.0586L15.0586 14.8125L15.1725 14.6602L15.2864 14.5312L15.4129 14.4023L15.5521 14.2969L15.6913 14.2031L15.8811 14.0977L16.0709 14.0156L16.2987 13.9453L16.5138 13.8984L16.5391 13.875L16.5645 13.3711L16.5771 13.0547L16.5898 12.5156V11.4258L16.5645 10.582L16.5265 9.89062L16.4759 9.23438L16.4253 8.70703L16.4126 8.625H11.0851ZM17.4503 8.625V8.77734L17.5262 9.65625L17.5768 10.5117L17.6021 11.25V12.7969L17.5768 13.4766L17.5641 13.7227V13.9805L17.8046 14.0742L18.0323 14.1914L18.1842 14.2969L18.3614 14.4375L18.4626 14.5312L18.6271 14.7305L18.741 14.9062L18.8422 15.1055L18.9308 15.3516L18.9435 15.3633H24.3342L24.4354 15.0586L24.562 14.6133L24.6758 14.1328L24.7644 13.6641L24.8404 13.1016L24.8783 12.6211L24.891 12.3633V11.6016L24.853 11.0391L24.815 10.6641L24.7391 10.1719L24.6505 9.73828L24.562 9.36328L24.4228 8.88281L24.3468 8.64844L24.3342 8.625H17.4503ZM16.8049 14.8125L16.6277 14.8359L16.4632 14.8828L16.2861 14.9648L16.1216 15.082L16.033 15.1641L15.9444 15.2812L15.8685 15.3984L15.7925 15.5859L15.7672 15.7266V15.9727L15.8052 16.1367L15.8811 16.3125L15.9697 16.4414L16.0836 16.5703L16.2228 16.6758L16.3873 16.7695L16.5518 16.8281L16.729 16.8633H17.0074L17.1845 16.8281L17.3743 16.7578L17.5515 16.6523L17.678 16.5469L17.7666 16.4531L17.8678 16.3008L17.9438 16.1133L17.9691 15.9961L17.9817 15.7969L17.9438 15.5742L17.8678 15.3867L17.754 15.2109L17.6148 15.0703L17.4376 14.9531L17.2478 14.8711L17.0453 14.8242L16.9188 14.8125H16.8049ZM1.96141 16.3125L1.99938 16.418L2.2145 16.8398L2.31573 17.0273L2.49289 17.3438L2.67005 17.625L2.84721 17.8945L3.04968 18.1758L3.20153 18.375L3.2648 18.3633L3.53054 18.2695L3.80894 18.2109L4.09999 18.1875H4.23918L4.5682 18.2227L4.83394 18.293L4.99844 18.3516L5.20091 18.4453L5.40338 18.5625L5.56788 18.6914L5.6185 18.7148V18.7383L5.68177 18.7852L5.69443 18.8086H5.71973L5.74504 18.8555L5.85893 18.9844L5.98547 19.1602L6.08671 19.3477L6.16263 19.5234L6.22591 19.7344L6.26387 19.957V20.3438L6.22591 20.5664L6.16263 20.7891L6.07405 20.9883L6.08671 21.0469L6.28918 21.1758L6.61819 21.375L6.97251 21.5742L7.20029 21.6914L7.50399 21.8438L7.88362 22.0195L8.22528 22.1602L8.65553 22.3242L8.92127 22.418L9.4654 22.582L9.87034 22.6875L10.3385 22.793L10.7055 22.8633L10.8447 22.8867L10.8953 22.875L10.8068 22.7461L10.7055 22.6172L10.5284 22.3594L10.3765 22.1133L10.2247 21.8555L10.0855 21.5859L9.89565 21.1875L9.71849 20.7656L9.55398 20.332L9.40213 19.8984L9.23762 19.3594L9.11108 18.9141L8.95923 18.293L8.858 17.8242L8.73145 17.168L8.63022 16.5469L8.59226 16.3125H1.96141ZM9.62991 16.3125V16.4062L9.73114 17.0273L9.84503 17.6133L9.97157 18.1992L10.1234 18.7969L10.2879 19.3594L10.4524 19.8633L10.6296 20.3438L10.8068 20.7656L10.9586 21.0938L11.199 21.5508L11.3635 21.8203L11.5154 22.043L11.6672 22.2422L11.8064 22.4062L11.933 22.5352L12.0216 22.6289L12.1608 22.7461L12.3506 22.875L12.5657 22.9805L12.7176 23.0273L12.8441 23.0508H13.0719L13.2743 23.0039L13.4135 22.9453L13.5527 22.875L13.7299 22.7578L13.8944 22.6172L14.0336 22.4883L14.2614 22.2305L14.4259 22.0078L14.5145 21.8789L14.6537 21.6562L14.7802 21.4453L14.9447 21.1172L15.0712 20.8594L15.2104 20.5312L15.3243 20.25L15.5015 19.7461L15.628 19.3594L15.7799 18.832L15.9444 18.1641L16.0456 17.7188V17.6602L15.8052 17.543L15.6154 17.4258L15.4762 17.3203L15.3623 17.2266L15.3496 17.2031H15.3243L15.299 17.1562L15.1851 17.0391L15.0333 16.8281L14.9321 16.6523L14.8308 16.3945L14.7929 16.3125H9.62991ZM18.9435 16.3125L18.8549 16.5469L18.7663 16.7344L18.6398 16.9336L18.5385 17.0625L18.3867 17.2266L18.2475 17.3438L18.083 17.4609L17.8932 17.5664L17.678 17.6602L17.4123 17.7422L17.1592 17.7891L17.0706 17.8008L17.0453 17.8828L16.9188 18.4453L16.7669 19.043L16.5898 19.6523L16.4253 20.1562L16.2354 20.6602L16.033 21.1523L15.8432 21.5508L15.704 21.8203L15.5901 22.0195L15.5141 22.1484L15.4003 22.3359L15.3117 22.4648L15.2104 22.6055L15.0459 22.8281L15.008 22.8867L15.1092 22.875L15.4382 22.8164L15.8179 22.7344L16.2481 22.6289L16.6151 22.5234L16.9567 22.418L17.4249 22.2539L18.007 22.0195L18.5385 21.7734L18.8296 21.6211L19.0953 21.4805L19.361 21.3281L19.7786 21.0703L20.0064 20.918L20.2089 20.7773L20.4367 20.6133L20.6012 20.4844L20.7404 20.3789L20.8922 20.25L20.9935 20.168L21.158 20.0273L21.3604 19.8516L21.5629 19.6641L21.6515 19.5703L21.7401 19.4883L21.8286 19.3945L21.9425 19.2773V19.2539H21.9678L22.0564 19.1602L22.2209 18.9727L22.3601 18.8086L22.512 18.6328L22.6132 18.5039L22.7651 18.3047L23.0434 17.918L23.2206 17.6484L23.3978 17.3672L23.6129 16.9922L23.828 16.582L23.9419 16.3359V16.3125H18.9435ZM4.08733 19.125L3.91017 19.1484L3.7077 19.207L3.53054 19.3008L3.404 19.3945L3.29011 19.5L3.17622 19.6641L3.1003 19.8164L3.04968 20.0156L3.03703 20.1914L3.07499 20.4141L3.12561 20.5547L3.22684 20.7305L3.32808 20.8477L3.42931 20.9414L3.61912 21.0586L3.78363 21.1289L4.01141 21.1758H4.2898L4.50492 21.1289L4.64412 21.0703L4.79597 20.9883L4.92252 20.8945L5.0364 20.7773L5.13764 20.625L5.20091 20.4844L5.23887 20.3555L5.25153 20.2734V20.0391L5.21356 19.8633L5.15029 19.7109L5.07437 19.582L4.92252 19.4062L4.75801 19.2891L4.55554 19.1953L4.39104 19.1484L4.20122 19.125H4.08733Z" fill="black"/>
<path d="M3.94815 3.46875H4.15062L4.28982 3.51562L4.36574 3.5625L4.42901 3.60938L4.50494 3.71484L4.55556 3.83203V4.05469L4.50494 4.17188L4.41636 4.27734L4.31512 4.34766L4.20124 4.39453L4.15062 4.40625H3.94815L3.80895 4.35938L3.70772 4.28906L3.61914 4.19531L3.55587 4.07812L3.54321 4.03125V3.84375L3.60648 3.69141L3.72037 3.57422L3.83426 3.50391L3.94815 3.46875Z" fill="black"/>
</g>
<defs>
<clipPath id="clip0_122_239">
<rect width="25.916" height="24" fill="white"/>
</clipPath>
</defs>
</svg>
