<svg width="24" height="24" viewBox="0 0 24 24" fill="none" xmlns="http://www.w3.org/2000/svg">
<path d="M11.8477 0H12.1406L12.2227 0.0351562L12.6797 0.175781L13.5 0.433594L14.1094 0.621094L14.4375 0.726562L15.5625 1.07812L16.2305 1.28906L16.6523 1.41797L17.0156 1.53516L17.4023 1.65234L17.5781 1.71094L18.5977 2.02734L18.9258 2.13281L19.6758 2.36719L21.8086 3.03516L21.9844 3.10547L22.1016 3.19922L22.1836 3.31641L22.2188 3.42188L22.2305 3.90234V5.02734L22.2188 12.1641L22.1953 12.6211L22.1484 13.125L22.1016 13.4883L22.0195 13.9922L21.9141 14.5078L21.7852 15.0234L21.6328 15.5391L21.4688 16.0195L21.2695 16.5234L21.1172 16.875L21 17.1328L20.9062 17.3203L20.7422 17.6367L20.6016 17.8945L20.4023 18.2227L20.2852 18.4219L20.0039 18.8438L19.8867 19.0078L19.7578 19.1836L19.6641 19.3125L19.5117 19.5L19.3828 19.6641L19.3125 19.7578H19.2891L19.2656 19.8047L19.1602 19.9219L19.0547 20.0508L18.9844 20.1328H18.9609L18.9375 20.1797L18.8086 20.3086L18.7266 20.4023L18.3633 20.7656L18.2695 20.8477L18.1641 20.9531L18.0703 21.0352L17.9531 21.1406L17.8242 21.2461L17.6602 21.3867L17.543 21.4805L17.332 21.6445L17.1445 21.7852L16.9336 21.9375L16.6758 22.1133L16.4766 22.2422L16.1953 22.418L15.9961 22.5352L15.7031 22.6992L15.4688 22.8281L15.2812 22.9219L14.9883 23.0625L14.5664 23.25L14.2148 23.3906L13.7578 23.5547L13.3242 23.6953L12.9023 23.8125L12.3281 23.9531L12.1289 24H11.8594L11.6367 23.9414L11.2852 23.8594L10.793 23.7305L10.2422 23.5547L9.84375 23.4141L9.32812 23.2031L8.94141 23.0273L8.64844 22.8867L8.30859 22.7109L7.81641 22.4297L7.65234 22.3242L7.40625 22.1719L7.27734 22.0781L7.10156 21.9609L6.9375 21.8438L6.5625 21.5625L6.36328 21.3984L6.17578 21.2461L6.04688 21.1289L5.95312 21.0469L5.77734 20.8945L5.66016 20.7773L5.56641 20.6953L5.25 20.3789L5.16797 20.2852L5.03906 20.1562L4.95703 20.0625L4.81641 19.8984L4.71094 19.7812L4.61719 19.6641L4.46484 19.4766L4.3125 19.2773L4.17188 19.0898L3.89062 18.6914L3.75 18.4688L3.64453 18.3047L3.42188 17.9297L3.30469 17.7188L3.12891 17.3906L3 17.1328L2.82422 16.7461L2.66016 16.3594L2.46094 15.8203L2.29688 15.3164L2.14453 14.7656L2.03906 14.2969L1.95703 13.875L1.875 13.3477L1.81641 12.8086L1.78125 12.2695L1.76953 11.8711V3.49219L1.79297 3.375L1.86328 3.23438L1.95703 3.14062L2.12109 3.05859L2.41406 2.96484L3.23438 2.70703L4.80469 2.21484L6.375 1.72266L6.79688 1.59375L7.16016 1.47656L9.44531 0.761719L10.0898 0.5625L10.4531 0.445312L10.8398 0.328125L11.2031 0.210938L11.5898 0.09375L11.8359 0.0117188L11.8477 0ZM12 0.960938L9.45703 1.75781L9.07031 1.875L8.70703 1.99219L7.51172 2.36719L7.125 2.48438L6.76172 2.60156L6.16406 2.78906L4.25391 3.38672L3.57422 3.59766L2.92969 3.79688L2.75391 3.85547L2.73047 3.86719L2.71875 5.96484V11.7539L2.73047 12.2227L2.76562 12.7734L2.82422 13.2891L2.91797 13.8633L3.02344 14.3672L3.12891 14.7773L3.26953 15.2461L3.43359 15.7266L3.62109 16.1953L3.80859 16.6172L3.9375 16.8867L4.05469 17.1094L4.21875 17.4141L4.41797 17.7422L4.52344 17.918L4.75781 18.2695L4.99219 18.5977L5.10938 18.75L5.27344 18.9609L5.40234 19.1133L5.50781 19.2422L5.61328 19.3594L5.69531 19.4531L5.83594 19.6055L6.01172 19.793L6.35156 20.1328L6.44531 20.2148L6.59766 20.3555L6.71484 20.4609L6.83203 20.5547L6.99609 20.6953L7.16016 20.8242L7.35938 20.9766L7.58203 21.1406L7.80469 21.293L8.12109 21.5039L8.37891 21.6562L8.66016 21.8203L9.05859 22.0312L9.46875 22.2305L9.73828 22.3477L10.0781 22.4883L10.5938 22.6758L11.0508 22.8164L11.5781 22.957L11.9414 23.0391H12.0586L12.5508 22.9219L12.9844 22.8047L13.5703 22.6172L13.9688 22.4648L14.3086 22.3242L14.8945 22.0547L15.1172 21.9375L15.4219 21.7734L15.6211 21.6562L15.8672 21.5039L16.125 21.3398L16.5234 21.0586L16.6641 20.9531L16.8164 20.8359L16.9805 20.707L17.1328 20.5781L17.2617 20.4727L17.3906 20.3555L17.4844 20.2734L17.6602 20.1094L17.7422 20.0391V20.0156L17.7891 19.9922V19.9688L17.8359 19.9453L18.0234 19.7578L18.1055 19.6641L18.2109 19.5586V19.5352H18.2344L18.3164 19.4414L18.4219 19.3242L18.5273 19.1953L18.6445 19.0664L18.7617 18.9141L18.9258 18.7031L19.0312 18.5625L19.1836 18.3516L19.4648 17.9297L19.582 17.7422L19.7695 17.4258L19.9336 17.1211L20.0742 16.8516L20.25 16.4883L20.4258 16.0781L20.5781 15.6797L20.7539 15.1641L20.8945 14.6719L21 14.2383L21.1055 13.7109L21.1758 13.2656L21.2227 12.8438L21.2578 12.3398L21.2695 12.0117V3.86719L21.1758 3.83203L19.8281 3.41016L18.2578 2.91797L17.3672 2.63672L16.5352 2.37891L15.6445 2.09766L15.2227 1.96875L14.8594 1.85156L12.082 0.984375L12 0.960938Z" fill="black"/>
<path d="M11.9297 2.74219H12.0586L12.3516 2.82422L13.2188 3.09375L13.6289 3.22266L13.957 3.32812L14.3789 3.45703L14.7422 3.57422L15.1992 3.71484L15.5273 3.82031L15.9492 3.94922L16.2773 4.05469L16.9219 4.25391L17.25 4.35938L18.6445 4.79297L18.9727 4.89844L19.2891 5.00391L19.418 5.07422L19.5117 5.16797L19.582 5.30859L19.5938 5.36719V12.1406L19.5703 12.5273L19.5234 12.9727L19.4531 13.4414L19.3828 13.8047L19.2773 14.2383L19.1953 14.5312L19.1016 14.8359L18.9375 15.293L18.75 15.7383L18.5625 16.1367L18.4453 16.3594L18.3633 16.4648L18.2461 16.5469L18.0938 16.5938H17.9766L17.8359 16.5586L17.7305 16.4883L17.6484 16.4062L17.5664 16.2422L17.5547 16.1836V16.0547L17.5898 15.9375L17.6836 15.7383L17.7773 15.5508L17.9297 15.2227L18.0703 14.8594L18.1875 14.5312L18.3164 14.1094L18.4219 13.6875L18.5039 13.2773L18.5508 12.9844L18.5859 12.7148L18.6211 12.2812L18.6328 12.0234V5.80078L18.1992 5.66016L17.4492 5.42578L17.0625 5.30859L16.6992 5.19141L16.3125 5.07422L15.9492 4.95703L15.1289 4.69922L12.0234 3.72656L11.9062 3.75L11.2383 3.96094L10.6758 4.13672L10.2188 4.27734L9.85547 4.39453L8.66016 4.76953L5.47266 5.76562L5.36719 5.80078L5.35547 8.12109V11.7773L5.36719 12.1758L5.40234 12.6445L5.46094 13.1016L5.54297 13.5586L5.66016 14.0508L5.80078 14.5195L5.94141 14.918L6.10547 15.3164L6.19922 15.5273L6.29297 15.7148L6.48047 16.0781L6.59766 16.2773L6.75 16.5234L6.96094 16.8398L7.11328 17.0508L7.23047 17.2031L7.38281 17.3906L7.48828 17.5195L7.60547 17.6484L7.6875 17.7422L7.81641 17.8828L8.20312 18.2695L8.29688 18.3516L8.42578 18.4688L8.68359 18.6797L8.84766 18.8086L9.07031 18.9727L9.33984 19.1602L9.62109 19.3359L9.90234 19.5L10.3008 19.7109L10.6523 19.875L10.9336 19.9922L11.3438 20.1445L11.7422 20.2734L11.9531 20.332H12.0469L12.4688 20.2031L12.8789 20.0625L13.3359 19.875L13.6406 19.7344L14.0859 19.5L14.4023 19.3125L14.625 19.1719L14.8125 19.043L15.0117 18.9023L15.1289 18.8438L15.2227 18.8203H15.3633L15.4805 18.8555L15.6094 18.9375L15.6797 19.0195L15.75 19.1602L15.7617 19.207V19.3828L15.7266 19.4883L15.6445 19.6172L15.5508 19.6992L15.3164 19.8633L15.0703 20.0273L14.8477 20.168L14.543 20.3438L14.2617 20.4961L14.0742 20.5898L13.7578 20.7422L13.3359 20.918L12.9141 21.0703L12.5508 21.1875L12.1172 21.3047L12.0703 21.3164H11.918L11.5664 21.2227L11.1562 21.0938L10.8516 20.9883L10.4414 20.8242L9.97266 20.6133L9.66797 20.4609L9.39844 20.3086L9.23438 20.2148L8.95312 20.0391L8.60156 19.8047L8.37891 19.6406L8.22656 19.5234L8.0625 19.3945L7.86328 19.2305L7.71094 19.0898L7.61719 19.0078L7.5 18.9023L7.32422 18.7383L7.17188 18.5859V18.5625H7.14844L7.06641 18.4688L6.89062 18.2812L6.80859 18.1875L6.67969 18.0352L6.44531 17.7422L6.28125 17.5195L6.16406 17.3555L5.95312 17.0391L5.77734 16.7578L5.60156 16.4414L5.46094 16.1719L5.36719 15.9844L5.25 15.7383L5.07422 15.3164L4.92188 14.8945L4.79297 14.4961L4.67578 14.0625L4.57031 13.5703L4.5 13.1484L4.45312 12.7852L4.41797 12.4102L4.39453 11.8594V5.41406L4.41797 5.29688L4.51172 5.13281L4.62891 5.03906L4.75781 4.98047L5.54297 4.73438L6 4.59375L6.36328 4.47656L8.94141 3.66797L9.58594 3.46875L10.2539 3.25781L10.6406 3.14062L11.0039 3.02344L11.7539 2.78906L11.9297 2.74219Z" fill="black"/>
<path d="M14.2969 8.15625H14.4961L14.625 8.20312L14.7188 8.27344L14.8359 8.37891L16.2891 9.83203L16.4062 9.98438L16.4531 10.0898L16.4648 10.1484V10.2773L16.418 10.4297L16.3359 10.5469L11.4609 15.4219L11.3203 15.5039L11.2266 15.5273H11.0508L10.9219 15.4805L10.8164 15.3984L7.64062 12.2227L7.57031 12.1055L7.53516 12V11.8477L7.57031 11.7305L7.64062 11.6133L7.74609 11.5078L7.80469 11.4375L7.88672 11.3672L7.94531 11.2969L8.02734 11.2266L8.08594 11.1562L8.16797 11.0859L8.22656 11.0156L8.30859 10.9453L8.36719 10.8867L8.41406 10.8281L8.49609 10.7578L8.55469 10.6875L8.63672 10.6172L8.69531 10.5469L8.77734 10.4766L8.83594 10.4062L8.91797 10.3359L8.97656 10.2656L9.05859 10.1953L9.12891 10.1133H9.15234L9.17578 10.0664L9.30469 9.94922L9.39844 9.89062L9.50391 9.85547H9.69141L9.82031 9.90234L9.91406 9.97266L10.0664 10.1133L11.1328 11.1797L11.1797 11.168L13.9336 8.41406L13.9922 8.34375L14.0859 8.26172L14.2148 8.17969L14.2969 8.15625ZM14.3906 9.30469L14.2969 9.38672L14.2148 9.48047L11.5195 12.1758L11.4023 12.2695L11.2617 12.3281L11.2148 12.3398H11.0859L10.9336 12.293L10.7812 12.1758L10.5352 11.9297L10.4766 11.8594L10.3945 11.7891L10.3359 11.7188L10.2539 11.6484L10.1953 11.5781L10.1133 11.5078L10.0547 11.4375L9.97266 11.3672L9.96094 11.3438H9.9375V11.3203H9.91406V11.2969H9.89062V11.2734H9.86719V11.25H9.84375V11.2266H9.82031L9.79688 11.1797H9.77344L9.75 11.1328H9.72656V11.1094L9.65625 11.0508L9.60938 11.0039L9.5625 11.0273L9.26953 11.3203V11.3438L9.22266 11.3672V11.3906L9.17578 11.4141V11.4375L9.12891 11.4609V11.4844L9.08203 11.5078V11.5312L9.03516 11.5547V11.5781L8.98828 11.6016V11.625L8.94141 11.6484V11.6719L8.89453 11.6953L8.75391 11.8359V11.8594L8.70703 11.8828L8.68359 11.9297L11.0859 14.332H11.1094L11.1328 14.3789L11.1797 14.3555L15.3164 10.2188L15.2461 10.1367L14.4141 9.30469H14.3906Z" fill="black"/>
<path d="M16.7578 17.3906H16.9102L17.0625 17.4375L17.168 17.5195L17.2383 17.6016L17.2969 17.7305L17.3086 17.7656V17.9531L17.2617 18.082L17.1797 18.1992L17.0859 18.2695L16.9805 18.3164L16.9336 18.3281H16.7344L16.6055 18.2812L16.5 18.1992L16.4297 18.1055L16.3828 18.0117L16.3594 17.918V17.8125L16.4062 17.6602L16.4766 17.5547L16.5352 17.4961L16.6406 17.4258L16.7578 17.3906Z" fill="black"/>
</svg>
