<svg width="26" height="24" viewBox="0 0 26 24" fill="none" xmlns="http://www.w3.org/2000/svg">
<g clip-path="url(#clip0_122_216)">
<path d="M12.1606 0H13.869V0.0117188L14.4764 0.0703125L15.0332 0.140625L15.59 0.234375L16.1341 0.351562L16.6909 0.492188L17.197 0.644531L17.5134 0.75L18.0196 0.9375L18.4372 1.11328L18.7535 1.25391L19.1711 1.45312L19.7152 1.74609L20.0316 1.93359L20.2973 2.09766L20.5251 2.25L20.7023 2.36719L20.9301 2.53125L21.1072 2.66016L21.2464 2.76562L21.4362 2.91797L21.6134 3.05859L21.7652 3.1875L21.8918 3.30469L21.993 3.38672L22.322 3.69141L22.4106 3.78516L22.5498 3.91406L22.6384 4.00781L22.7902 4.17188L22.9547 4.34766L23.2331 4.67578L23.3976 4.875L23.5621 5.08594L23.7267 5.30859L23.8659 5.50781L24.043 5.76562L24.1822 5.98828L24.3341 6.23438L24.4859 6.50391L24.6125 6.72656L24.8023 7.10156L25.0047 7.54688L25.1819 7.98047L25.3337 8.40234L25.5109 8.97656L25.6501 9.52734L25.7513 10.0312L25.8146 10.4297L25.8779 10.957L25.8905 11.0859L25.9158 11.0977V12.8672L25.8905 12.9023L25.8399 13.3711L25.764 13.9102L25.6501 14.4844L25.5109 15.0352L25.3464 15.5625L25.1945 15.9844L25.0554 16.3359L24.9162 16.6523L24.7643 16.9688L24.6757 17.1562L24.5618 17.3555L24.4606 17.543L24.2961 17.8359L24.1189 18.1172L23.9797 18.3281L23.8532 18.5156L23.6254 18.832L23.4736 19.0195L23.3723 19.1602L23.2078 19.3477L23.0813 19.5L22.9168 19.6875L22.7649 19.8516L22.651 19.9688L22.5372 20.0977L22.3473 20.2734L22.2588 20.3672L21.9804 20.625L21.8791 20.707L21.702 20.8711L21.6007 20.9531L21.4236 21.0938L21.2338 21.2461L21.1072 21.3398L20.6517 21.668L20.4872 21.7734L20.2594 21.9258L20.0063 22.0781L19.7659 22.2188L19.5128 22.3594L19.2217 22.5117L18.9433 22.6523L18.4878 22.8633L18.0069 23.0625L17.6273 23.2031L17.3236 23.3086L16.868 23.4492L16.4884 23.5547L16.0582 23.6602L15.5393 23.7656L14.9825 23.8594L14.527 23.918L13.7171 24H12.0594V23.9883L11.6039 23.9414L11.0091 23.8711L10.5535 23.8008L10.0727 23.707L9.70571 23.625L9.16158 23.4844L8.70602 23.3438L8.37701 23.2383L8.03535 23.1094L7.70633 22.9805L7.26343 22.793L7.023 22.6758L6.70665 22.5234L6.16251 22.2305L5.6943 21.9492L5.47918 21.8086L5.2514 21.6562L5.0869 21.5391L4.90974 21.4102L4.70727 21.2578L4.56807 21.1523L4.45418 21.0586L4.35295 20.9766L4.22641 20.8711L4.07456 20.7422L3.91005 20.5898L3.80882 20.5078L3.70758 20.4141V20.3906L3.66962 20.3789L3.58104 20.2852L3.41653 20.1328V20.1094H3.39123L3.30265 20.0156L3.13814 19.8398L2.98629 19.6758L2.82178 19.4883L2.65728 19.2891L2.48012 19.0781L2.31561 18.8555L2.21438 18.7266L2.08783 18.5508L1.96129 18.3633L1.79679 18.1172L1.59432 17.7891L1.42981 17.4961L1.30327 17.2734L1.11345 16.8984L0.961603 16.5703L0.759135 16.0898L0.581975 15.6094L0.430123 15.1172L0.316235 14.6953L0.227655 14.3086L0.139075 13.8398L0.0504951 13.1953L0.0125322 12.8086L-0.00012207 12.7852V11.2266L0.0251865 11.0742L0.0758036 10.6055L0.151729 10.0781L0.252964 9.57422L0.366852 9.10547L0.468086 8.75391L0.619938 8.28516L0.771789 7.875L0.961603 7.42969L1.12611 7.07812L1.29061 6.75L1.44247 6.46875L1.56901 6.24609L1.75882 5.94141L1.92333 5.68359L2.04987 5.50781L2.17641 5.32031L2.30296 5.15625L2.45481 4.95703L2.55604 4.82812L2.68259 4.67578L2.85975 4.46484L2.97363 4.33594L3.13814 4.16016L3.28999 3.99609L3.59369 3.69141L3.7582 3.53906L3.82147 3.46875L3.9227 3.38672L4.09986 3.22266H4.12517V3.19922L4.22641 3.11719L4.37826 2.98828L4.51746 2.88281L4.644 2.77734L4.82116 2.64844L5.02363 2.49609L5.18813 2.37891L5.41591 2.22656L5.63103 2.08594L5.85881 1.94531L6.17517 1.75781L6.45356 1.60547L6.80788 1.41797L7.37732 1.14844L7.76961 0.984375L8.07331 0.867188L8.56683 0.691406L9.08565 0.527344L9.71837 0.363281L10.3764 0.222656L10.9585 0.128906L11.5153 0.0585938L12.1606 0ZM12.4011 1.05469L11.8569 1.08984L11.4014 1.13672L10.8952 1.20703L10.4397 1.28906L9.97145 1.39453L9.43997 1.53516L8.90849 1.69922L8.55417 1.82812L8.25047 1.94531L7.80757 2.13281L7.50387 2.27344L7.22547 2.41406L6.93442 2.56641L6.70665 2.69531L6.45356 2.84766L6.26375 2.96484L6.03597 3.11719L5.89677 3.21094L5.6943 3.35156L5.49184 3.50391L5.35264 3.60938L5.16282 3.76172L5.02363 3.87891L4.92239 3.96094L4.79585 4.07812L4.75789 4.10156V4.125L4.70727 4.14844L4.45418 4.38281L4.3656 4.47656L4.21375 4.61719L4.09986 4.74609L3.94801 4.89844L3.83412 5.02734L3.65696 5.22656L3.53042 5.37891L3.36592 5.58984L3.21407 5.78906L3.12549 5.90625L2.94833 6.16406L2.79647 6.38672L2.63197 6.65625L2.50543 6.86719L2.37888 7.08984L2.23969 7.35938L2.06253 7.72266L1.92333 8.05078L1.80944 8.33203L1.65759 8.75391L1.50574 9.24609L1.36654 9.79688L1.29061 10.1953L1.24 10.5117L1.20203 10.7812L1.16407 11.1445L1.13876 11.5664V12.457L1.16407 12.8555L1.21469 13.3359L1.29061 13.8164L1.39185 14.3203L1.50574 14.7539L1.63228 15.1758L1.78413 15.6094L1.93598 15.9844L2.10049 16.3594L2.34092 16.8398L2.49277 17.1094L2.60666 17.3086L2.70789 17.4727L2.8724 17.7305L3.03691 17.9648L3.21407 18.2109L3.36592 18.4102L3.46715 18.5391L3.59369 18.6914L3.73289 18.8555L3.84678 18.9844L3.99863 19.1484L4.11252 19.2656L4.2011 19.3594L4.31499 19.4766L4.44153 19.5938L4.53011 19.6875L4.73258 19.875L4.83381 19.957L4.97301 20.0859L5.07424 20.168L5.2514 20.3086L5.44122 20.4609L5.79554 20.7188L6.03597 20.8828L6.28906 21.0469L6.47887 21.1641L6.79523 21.3516L7.09893 21.5156L7.41529 21.6797L7.94677 21.9258L8.40232 22.1133L8.85787 22.2773L9.45263 22.4648L9.98411 22.6055L10.5409 22.7227L11.0977 22.8164L11.6671 22.8867L12.0974 22.9219L12.5403 22.9453H13.3501L13.8184 22.9219L14.3498 22.875L14.9699 22.793L15.4887 22.6992L15.9569 22.5938L16.4884 22.4531L16.9313 22.3125L17.1464 22.2422L17.5893 22.0781L18.0322 21.8906L18.589 21.6328L18.8927 21.4688L19.0952 21.3633L19.3736 21.1992L19.6014 21.0586L19.8544 20.8945L20.0316 20.7773L20.3859 20.5195L20.5504 20.3906L20.6896 20.2852L20.8415 20.1562L20.9427 20.0742L21.006 20.0273V20.0039L21.0566 19.9805L21.2338 19.8164L21.335 19.7344L21.373 19.6992V19.6758L21.4109 19.6641L21.4995 19.5703L21.6134 19.4648V19.4414H21.6387L21.7273 19.3477L21.8412 19.2305V19.207H21.8665L21.9551 19.1133L22.1828 18.8555L22.322 18.6914L22.4865 18.4922L22.6131 18.3281L22.7776 18.1055L22.9041 17.9297L23.0307 17.7422L23.1446 17.5664L23.2964 17.3203L23.423 17.1094L23.676 16.6406L23.8405 16.3008L23.9924 15.9492L24.1189 15.6328L24.2834 15.1641L24.4353 14.6602L24.5492 14.1914L24.6378 13.7344L24.7137 13.1953L24.7643 12.6211L24.777 12.3164V11.6719L24.7517 11.2266L24.7137 10.8047L24.6378 10.2656L24.5365 9.75L24.3847 9.16406L24.2202 8.64844L24.0304 8.13281L23.8912 7.81641L23.7267 7.46484L23.6128 7.23047L23.4862 7.00781L23.3597 6.77344L23.1825 6.49219L23.0433 6.26953L22.9041 6.07031L22.7902 5.90625L22.5878 5.63672L22.4233 5.42578L22.2714 5.25L22.1069 5.05078L21.9424 4.875L21.8285 4.75781L21.7146 4.62891L21.5628 4.48828L21.4742 4.39453L21.0819 4.03125L20.9807 3.94922L20.8921 3.86719L20.7529 3.76172L20.601 3.63281L20.4618 3.52734L20.2594 3.375L20.1075 3.26953L19.9177 3.14062L19.7026 3L19.5381 2.89453L19.323 2.76562L19.0825 2.625L18.7788 2.46094L18.5511 2.34375L18.1335 2.14453L17.7791 1.99219L17.4248 1.85156L17.0325 1.71094L16.4758 1.53516L15.843 1.37109L15.2862 1.25391L14.6915 1.16016L14.1727 1.10156L13.7171 1.06641L13.4893 1.05469H12.4011Z" fill="black"/>
<path d="M12.9199 6.51562L13.0844 6.52734L13.2109 6.57422L13.3248 6.64453L13.4134 6.72656L13.502 6.89062L13.5273 7.04297L13.5399 11.7891L13.6285 11.8828L13.7171 11.9531L13.793 12.0352L13.8689 12.0938L13.9449 12.1758L14.0208 12.2344L14.0967 12.3164L14.1726 12.375L14.2486 12.457L14.3245 12.5156L14.4004 12.5977L14.4763 12.6562L14.5396 12.7266L14.5902 12.7617V12.7852L14.6408 12.8086V12.832L14.6915 12.8555V12.8789L14.7421 12.9023V12.9258L14.7927 12.9492V12.9727L14.8433 12.9961V13.0195L14.8939 13.043V13.0664L14.9446 13.0898V13.1133L14.9952 13.1367V13.1602L15.0458 13.1836L18.4877 16.3711V16.3945L18.5384 16.418V16.4414L18.589 16.4648V16.4883L18.6396 16.5117V16.5352L18.6902 16.5586V16.582L18.7408 16.6055V16.6289L18.7788 16.6406L18.8547 16.7227L18.9306 16.7812L19.0066 16.8633L19.0825 16.9219L19.1584 17.0039L19.2344 17.0625L19.3103 17.1445L19.3862 17.2031L19.4748 17.2969L19.5887 17.4141L19.6773 17.5781L19.6899 17.625V17.7891L19.6519 17.9062L19.5381 18.0703L19.3862 18.1758L19.247 18.2227L19.1711 18.2344H19.0698L18.9053 18.1992L18.7408 18.0938L12.5529 12.3633L12.439 12.2109L12.401 12.1055L12.3884 12.0469L12.3757 11.5195V7.99219L12.3884 6.99609L12.4263 6.85547L12.5023 6.72656L12.5782 6.64453L12.7174 6.5625L12.8313 6.52734L12.9199 6.51562Z" fill="black"/>
<path d="M3.32827 11.4727H3.7079L3.85975 11.5078L3.9863 11.5664L4.10018 11.6602L4.17611 11.7773L4.21407 11.8828L4.22673 11.9414V12.0586L4.18876 12.1992L4.10018 12.3281L4.03691 12.3867L3.97364 12.4336L3.8471 12.4922L3.63198 12.5273H3.37889L3.17642 12.4922L3.02457 12.4102L2.93599 12.3281L2.84741 12.1875L2.80945 12.0352V11.9531L2.86007 11.7773L2.97395 11.625L3.07519 11.5547L3.20173 11.4961L3.32827 11.4727Z" fill="black"/>
<path d="M12.9199 2.60156L13.0718 2.61328L13.211 2.66016L13.3248 2.73047L13.4134 2.8125L13.4894 2.95312L13.5273 3.10547V3.38672L13.4894 3.57422L13.4514 3.64453L13.3755 3.73828L13.3122 3.79688L13.1983 3.86719L12.9958 3.91406L12.8313 3.90234L12.6921 3.85547L12.5909 3.78516L12.5276 3.72656L12.439 3.60938L12.3884 3.43359V3.09375L12.4264 2.94141L12.477 2.84766L12.5782 2.73047L12.7427 2.63672L12.9199 2.60156Z" fill="black"/>
<path d="M12.8819 20.0859H13.0338L13.1983 20.1328L13.3375 20.2148L13.4387 20.332L13.4894 20.4258L13.5273 20.5898V20.8711L13.502 21.0117L13.4514 21.1289L13.3502 21.2461L13.2363 21.3281L13.0971 21.375L13.0211 21.3867H12.8819L12.7301 21.3516L12.5909 21.2695L12.4897 21.1641L12.4137 21.0234L12.3884 20.918V20.5664L12.4264 20.4258L12.5023 20.2852L12.6036 20.1914L12.7301 20.1211L12.8819 20.0859Z" fill="black"/>
<path d="M22.1955 11.4727H22.5878L22.7396 11.5078L22.8535 11.5664L22.9801 11.6719L23.056 11.7891L23.094 11.9062V12.082L23.0433 12.2344L22.9548 12.3516L22.8535 12.4336L22.7523 12.4805L22.6131 12.5156L22.5119 12.5273H22.2588L22.0563 12.4922L21.9551 12.4453L21.8412 12.3633L21.7273 12.1992L21.6893 12.0703V11.9297L21.7273 11.8008L21.7906 11.6953L21.9045 11.5781L22.0816 11.4961L22.1955 11.4727Z" fill="black"/>
<path d="M6.31407 17.5547H6.47857L6.63043 17.6016L6.75697 17.6836L6.84555 17.7656L6.92147 17.8945L6.95944 18.0234V18.1406L6.90882 18.293L6.79493 18.4453L6.73166 18.5156L6.52919 18.6797L6.38999 18.75L6.2508 18.7852H6.13691L5.98506 18.75L5.84586 18.668L5.75728 18.5859L5.6687 18.457L5.63074 18.3398V18.1875L5.6687 18.0703L5.74463 17.9531L5.85851 17.8242L5.98506 17.707L6.14956 17.6016L6.31407 17.5547Z" fill="black"/>
<path d="M19.6519 5.21484H19.7911L19.9556 5.26172L20.0948 5.35547L20.1961 5.46094L20.2593 5.57812L20.2846 5.67188V5.80078L20.234 5.95312L20.1201 6.10547L20.0442 6.1875L19.943 6.26953L19.8164 6.36328L19.6772 6.42188L19.5633 6.44531H19.4621L19.3103 6.41016L19.1711 6.32812L19.0825 6.24609L18.9939 6.11719L18.9559 6V5.85938L18.9939 5.71875L19.0951 5.57812L19.2343 5.4375L19.3735 5.32031L19.5001 5.25L19.6519 5.21484Z" fill="black"/>
<path d="M6.12425 5.21484H6.27611L6.40265 5.25L6.52919 5.32031L6.70635 5.46094L6.82024 5.57812L6.90882 5.70703L6.95944 5.85938V5.97656L6.92147 6.11719L6.82024 6.25781L6.70635 6.35156L6.5545 6.42188L6.44061 6.44531H6.33938L6.18753 6.41016L6.01037 6.30469L5.78259 6.09375L5.6687 5.92969L5.63074 5.8125V5.67188L5.68135 5.51953L5.78259 5.37891L5.90913 5.28516L6.01037 5.23828L6.12425 5.21484Z" fill="black"/>
</g>
<defs>
<clipPath id="clip0_122_216">
<rect width="25.916" height="24" fill="white"/>
</clipPath>
</defs>
</svg>
