<svg width="29" height="29" viewBox="0 0 29 29" fill="none" xmlns="http://www.w3.org/2000/svg">
<g clip-path="url(#clip0_122_368)">
<path d="M13.6968 0.554688H14.8931L15.6279 0.605957L16.3457 0.691406L17.0464 0.811035L17.73 0.964844L18.3452 1.13574L19.0288 1.35791L19.644 1.59717L20.1055 1.80225L20.4814 1.97314L21.1309 2.31494L21.541 2.5542L21.8657 2.75928L22.2759 3.03271L22.5664 3.23779L22.9253 3.51123L23.1646 3.69922L23.3525 3.85303L23.5234 4.00684L23.7114 4.16064L24.2925 4.70752L24.4463 4.86133L24.5659 4.99805L24.7197 5.15186V5.18604H24.7539L24.8735 5.32275L25.0786 5.56201L25.3008 5.81836L25.5059 6.0918L25.7109 6.34814L25.9331 6.67285L26.104 6.91211L26.3774 7.33936L26.5312 7.5957L26.8047 8.07422L26.9414 8.33057L27.1294 8.72363L27.2832 9.04834L27.5054 9.57812L27.6763 10.0396L27.9155 10.7744L28.0522 11.2871L28.189 11.8682L28.3086 12.5176L28.394 13.167L28.4453 13.7139L28.4795 14.3462V15.1665L28.4453 15.833L28.3599 16.6362L28.2573 17.2515L28.1377 17.8496L27.9668 18.5161L27.7446 19.2168L27.5396 19.7637L27.3174 20.2935L27.1123 20.7207L26.873 21.1992L26.668 21.5581L26.4287 21.9512L26.3091 22.1392L26.1724 22.3442L25.9673 22.6348L25.7622 22.9082L25.5229 23.2158L25.3691 23.4038L25.1641 23.6431L24.9932 23.8311L24.9761 23.8652H24.9419L24.9077 23.9336L24.6685 24.1729L24.6514 24.207H24.6172L24.583 24.2754L24.5146 24.3438H24.4805V24.3779H24.4463V24.4121L24.3096 24.5317L24.1558 24.6855L24.019 24.8052L23.8481 24.959L23.6602 25.1128L23.438 25.3008L22.8911 25.7109L22.6177 25.8989L22.3613 26.0698L21.9512 26.3262L21.5581 26.5483L21.2163 26.7363L20.8232 26.9243L20.4985 27.0781L20.0029 27.2832L19.4902 27.4712L18.9092 27.6592L18.1914 27.8472L17.4565 28.001L16.79 28.1035L16.1406 28.1719L15.6792 28.2061L15.1323 28.2231H14.7051L14.1924 28.2061L13.3721 28.1377L12.6543 28.0352L12.0049 27.9155L11.3726 27.7617L10.9453 27.6421L10.4497 27.4883L9.88574 27.2832L9.42432 27.0952L8.92871 26.873L8.2793 26.5483L8.00586 26.3945L7.57861 26.1382H7.47607L6.87793 26.3945L6.19434 26.6851L5.03223 27.1807L4.26318 27.5054L3.66504 27.7617L2.86182 28.1035L2.09277 28.4282L1.59717 28.6333L1.42627 28.6675H1.30664L1.08447 28.5991L0.913574 28.4795L0.793945 28.3257L0.725586 28.189L0.691406 27.9668L0.742676 27.7275L0.999023 27.0269L1.23828 26.3774L1.56299 25.5059L1.80225 24.8564L2.10986 24.019L2.3833 23.2842L2.67383 22.498L2.91309 21.8486L2.98145 21.6777L2.96436 21.5923L2.79346 21.3188L2.60547 20.9941L2.3833 20.6011L2.24658 20.3276L2.0415 19.9004L1.83643 19.4219L1.68262 19.0288L1.51172 18.5503L1.34082 18.0205L1.18701 17.4565L1.0332 16.7559L0.913574 16.0552L0.828125 15.3374L0.776855 14.6196V13.4575L0.828125 12.7397L0.913574 12.0562L1.0332 11.3555L1.18701 10.689L1.35791 10.0737L1.56299 9.4585L1.78516 8.87744L2.02441 8.33057L2.28076 7.80078L2.48584 7.4248L2.74219 6.98047L2.98145 6.60449L3.20361 6.27979L3.3916 6.02344L3.52832 5.83545L3.59668 5.73291H3.63086L3.66504 5.66455L3.83594 5.44238L3.87012 5.39111H3.9043L3.93848 5.32275L4.09229 5.15186L4.24609 4.96387L4.34863 4.84424H4.38281L4.41699 4.77588H4.45117L4.48535 4.70752L5.03223 4.16064L5.16895 4.04102L5.37402 3.85303L5.56201 3.69922L5.80127 3.49414L6.07471 3.28906L6.29688 3.11816L6.5874 2.91309L6.89502 2.70801L7.21973 2.50293L7.47607 2.34912L7.90332 2.10986L8.58691 1.76807L9.18506 1.51172L9.83447 1.27246L10.4326 1.08447L11.0649 0.913574L11.7144 0.776855L12.3467 0.674316L12.9277 0.605957L13.355 0.571777L13.6968 0.554688ZM13.6968 1.93896L13.1841 1.97314L12.4321 2.05859L11.7656 2.17822L11.0479 2.34912L10.5352 2.50293L9.98828 2.69092L9.47559 2.896L9.03125 3.10107L8.48438 3.37451L8.05713 3.61377L7.73242 3.81885L7.37354 4.05811L7.08301 4.26318L6.86084 4.43408L6.62158 4.62207L6.39941 4.81006L6.16016 5.01514L6.0918 5.06641V5.10059L6.02344 5.13477L5.33984 5.81836L5.22021 5.95508L5.01514 6.19434L4.82715 6.4165L4.65625 6.63867L4.41699 6.96338L4.21191 7.25391L3.97266 7.62988L3.75049 8.00586L3.51123 8.4502L3.28906 8.89453L3.06689 9.40723L2.87891 9.90283L2.65674 10.5864L2.46875 11.3042L2.33203 11.9878L2.24658 12.5859L2.19531 13.0815L2.16113 13.8335V14.3462L2.19531 15.064L2.26367 15.7305L2.36621 16.3628L2.50293 17.0122L2.63965 17.5249L2.81055 18.0889L3.0498 18.7383L3.25488 19.2168L3.49414 19.7295L3.71631 20.1567L3.95557 20.5669L4.10938 20.8232L4.29736 21.1138L4.41699 21.353L4.45117 21.541L4.41699 21.7632L4.33154 22.0195L4.05811 22.7544L3.69922 23.7285L3.40869 24.5146L3.16943 25.1641L2.896 25.8989L2.60547 26.6851L2.63965 26.7021L3.06689 26.5142L3.80176 26.2065L4.72461 25.8135L5.4082 25.5229L6.82666 24.9248L7.35645 24.7026L7.49316 24.6685H7.71533L7.90332 24.7368L8.14258 24.8735L8.50146 25.0957L8.86035 25.3008L9.32178 25.54L9.69775 25.728L10.1763 25.9331L10.6719 26.1211L11.2871 26.3262L11.9023 26.4971L12.5176 26.6338L13.1328 26.7363L13.6797 26.8047L14.3633 26.856H15.6108L16.2773 26.8047L16.9268 26.7192L17.4907 26.6167L18.2085 26.4458L18.7212 26.292L19.2681 26.104L19.8149 25.8818L20.3105 25.6597L20.584 25.5229L20.96 25.3179L21.4214 25.0444L21.7119 24.8564L22.0366 24.6343L22.3613 24.395L22.6348 24.1729L22.8228 24.019L23.0791 23.7969L23.3013 23.5918L23.438 23.4551L23.5747 23.3354L23.7798 23.1133L23.9678 22.9253V22.8911H24.002L24.1216 22.7544L24.2754 22.5664L24.3779 22.4468V22.4126H24.4121L24.6685 22.0708L24.8394 21.8486L25.0273 21.5752L25.1982 21.3188L25.4888 20.8403L25.6938 20.4644L25.8477 20.1738L26.0698 19.6953L26.2749 19.1997L26.4458 18.7383L26.6167 18.1914L26.7705 17.5933L26.8901 17.0293L26.9927 16.397L27.061 15.7305L27.0952 14.9785V14.4487L27.061 13.7822L27.0098 13.2524L26.9243 12.6372L26.8047 12.022L26.6338 11.3384L26.48 10.8257L26.3091 10.3301L26.0698 9.73193L25.8647 9.2876L25.54 8.63818L25.3008 8.22803L25.0444 7.81787L24.8735 7.56152L24.6685 7.271L24.5146 7.06592L24.2754 6.7583L23.8994 6.31396L23.5234 5.90381L22.9766 5.35693L22.8398 5.2373L22.6519 5.06641L22.4639 4.9126L22.2417 4.72461L21.9512 4.50244L21.6948 4.31445L21.353 4.0752L20.9771 3.83594L20.7207 3.68213L20.3618 3.47705L19.9004 3.23779L19.439 3.01562L19.0288 2.84473L18.5845 2.67383L17.9692 2.46875L17.4224 2.31494L16.8242 2.17822L16.2432 2.07568L15.8843 2.02441L15.3887 1.97314L14.8247 1.93896H13.6968Z" fill="black"/>
<path d="M10.21 6.05762H10.415L10.7227 6.0918L10.9619 6.16016L11.167 6.2627L11.3208 6.38232L11.4575 6.50195L11.5942 6.67285L11.7822 6.96338L11.9873 7.32227L12.2437 7.7666L12.4658 8.12549L12.7222 8.51855L12.9614 8.89453L13.1665 9.23633L13.4058 9.69775L13.5425 10.0566L13.5938 10.2617L13.6108 10.3813V10.6206L13.5425 10.894L13.4399 11.0991L13.3032 11.3042L13.0981 11.5435L12.876 11.7656L12.688 11.9194L12.4487 12.1245L12.1582 12.3467L12.0044 12.4834L11.8164 12.6372L11.7651 12.6885L11.7822 12.8423L11.9189 13.1841L12.124 13.5601L12.3975 13.9702L12.6367 14.2949L12.8589 14.5684L13.0469 14.7905L13.2178 14.9785L13.3374 15.1152L13.4912 15.269L13.6108 15.4058L13.7817 15.5767L13.9185 15.6963L14.1064 15.8843L14.2432 16.0039L14.4824 16.209L14.7559 16.4312L14.978 16.6021L15.3198 16.8413L15.6274 17.0293L15.9351 17.2002L16.2769 17.3369L16.4136 17.354L16.499 17.2856L16.6528 17.0977L16.8579 16.8584L16.9946 16.6704H17.0288L17.063 16.6021L17.2852 16.3286L17.3364 16.2603H17.3706L17.4048 16.1919L17.6611 15.9355L17.8833 15.7646L18.1055 15.6279L18.3276 15.5425L18.6011 15.5083L18.9429 15.5425L19.353 15.6792L19.6265 15.8159L19.9512 15.9868L20.3613 16.2432L20.7886 16.5166L21.0791 16.7046L21.3867 16.8926L21.8311 17.1489L22.2412 17.3882L22.5317 17.5933L22.7026 17.7471L22.8564 17.9521L22.959 18.1572L23.0273 18.3965L23.0615 18.6699V18.8921L23.0273 19.1484L22.9419 19.4219L22.7881 19.7637L22.6172 20.0542L22.4805 20.2593L22.2754 20.5327L22.1216 20.7207L21.9678 20.8916L21.8481 21.0283L21.5576 21.3018L21.3354 21.4897L21.062 21.6948L20.7373 21.8999L20.3784 22.0879L20.0366 22.2246L19.6948 22.3271L19.3188 22.3955L19.1479 22.4126H18.7378L18.2593 22.3784L17.832 22.3271L17.3706 22.2417L16.8579 22.1221L16.3794 21.9854L15.8496 21.7974L15.2686 21.5581L14.79 21.3359L14.4141 21.1479L14.021 20.9258L13.645 20.7036L13.2178 20.4302L12.8931 20.208L12.6538 20.0371L12.2949 19.7637L12.0728 19.5928L11.7822 19.3535L11.3037 18.9434L10.7739 18.4478L10.4834 18.1572V18.123H10.4492L10.3296 17.9863L10.0903 17.73L9.93652 17.542L9.78271 17.3711L9.62891 17.1831L9.44092 16.9438L9.20166 16.6362L8.97949 16.3286L8.74023 15.9868L8.55225 15.6963L8.34717 15.3716L8.09082 14.9272L7.88574 14.5513L7.66357 14.1069L7.42432 13.5601L7.23633 13.0645L7.04834 12.5005L6.91162 11.9707L6.79199 11.3555L6.72363 10.8428L6.68945 10.2959V10.0396L6.72363 9.68066L6.80908 9.30469L6.91162 8.99707L7.04834 8.67236L7.27051 8.2793L7.4585 8.00586L7.62939 7.78369L7.7832 7.5957L7.83447 7.52734H7.86865L7.90283 7.45898L8.24463 7.11719L8.43262 6.96338L8.70605 6.74121L9.11621 6.46777L9.38965 6.31396L9.68018 6.17725L9.95361 6.0918L10.21 6.05762ZM10.2954 7.44189L10.1245 7.49316L9.7998 7.66406L9.56055 7.83496L9.28711 8.05713L9.08203 8.24512L8.89404 8.43311L8.77441 8.56982L8.56934 8.82617L8.44971 9.01416L8.31299 9.25342L8.19336 9.52686L8.125 9.76611L8.09082 9.97119V10.5352L8.14209 11.0137L8.24463 11.5776L8.36426 12.0391L8.56934 12.6714L8.7915 13.2183L9.01367 13.6968L9.20166 14.0728L9.42383 14.4658L9.62891 14.8076L9.81689 15.0981L10.1074 15.5254L10.2954 15.7817L10.5688 16.1406L10.791 16.4141L10.979 16.6362L11.1328 16.8071L11.2866 16.9951L11.4746 17.1831L11.5942 17.3198L11.9019 17.6274L12.0386 17.7471L12.2778 17.9692L12.4658 18.123L12.6709 18.311L12.8931 18.4819L13.1494 18.687L13.4741 18.9263L13.7134 19.0972L14.0723 19.3364L14.397 19.5415L14.8071 19.7808L15.2173 20.0029L15.6274 20.208L16.2256 20.4644L16.687 20.6353L17.251 20.8062L17.7124 20.9087L18.1055 20.9771L18.6011 21.0283L19.0112 21.0454L19.353 20.9941L19.5923 20.9258L19.8999 20.7891L20.1904 20.6182L20.4639 20.4131L20.7202 20.1909L20.9937 19.9175V19.8833H21.0278L21.1816 19.6953L21.3525 19.4731L21.5405 19.1826L21.626 18.9946L21.6772 18.8237L21.6602 18.6699L21.4893 18.5503L21.0107 18.2769L20.6006 18.0376L20.2759 17.8325L19.8999 17.5933L19.6094 17.4053L19.1309 17.1147L18.8574 16.978L18.7036 16.9097L18.6182 16.9438L18.396 17.166V17.2002H18.3618L18.208 17.3882L18.02 17.6104L17.8833 17.7812L17.5757 18.1572L17.2852 18.4478L17.063 18.6016L16.8237 18.7212L16.6016 18.7725H16.4478L16.1914 18.7383L15.8496 18.6528L15.5762 18.5503L15.166 18.3623L14.7559 18.123L14.397 17.8838L14.1919 17.73L13.833 17.4565L13.645 17.3027L13.4058 17.0977L13.269 16.978L13.0981 16.8242L12.9614 16.6875L12.8247 16.5679L12.4316 16.1748L12.4146 16.1406H12.3804L12.3462 16.0723L12.1924 15.9185L12.0728 15.7817L11.6968 15.3374L11.4917 15.064L11.2695 14.7734L11.0303 14.4146L10.8252 14.0728L10.6543 13.748L10.4834 13.3208L10.3809 12.9277L10.3467 12.6372L10.3638 12.4321L10.4321 12.21L10.5688 11.9707L10.7568 11.7485L10.9961 11.5093L11.167 11.3726L11.3892 11.1846L11.543 11.0649L11.7651 10.877L11.9531 10.7231L12.1753 10.501L12.2095 10.4326L12.1069 10.1763L11.8848 9.7832L11.6626 9.42432L11.4404 9.08252L11.2524 8.79199L11.0303 8.43311L10.7568 7.95459L10.5176 7.54443L10.4492 7.45898L10.415 7.44189H10.2954Z" fill="black"/>
</g>
<defs>
<clipPath id="clip0_122_368">
<rect width="29" height="29" fill="white"/>
</clipPath>
</defs>
</svg>
